<svg width="72" height="74" viewBox="0 0 72 74" fill="none" xmlns="http://www.w3.org/2000/svg">
<circle cx="37" cy="26" r="25" fill="#EBEBF9"/>
<g clip-path="url(#clip0_76_6562)">
<g filter="url(#filter0_d_76_6562)">
<path d="M58.187 32.5444L31.3066 16.957L31.3545 33.8195L58.2349 49.4069L58.187 32.5444Z" fill="#E5E3E8"/>
<path d="M49.9726 55.0294V55.3089H50.3553V55.9942L51.3871 56.5908C51.8382 56.8533 52.3985 56.9318 53.0238 56.7988L49.9726 55.0294Z" fill="#BFBFBF"/>
<path d="M49.9727 51.0135V55.0297L53.0239 56.7991C53.4066 56.7173 53.8166 56.5605 54.2403 56.315C54.9442 55.9093 55.6071 55.3161 56.1845 54.6172L49.9727 51.0135Z" fill="#F6F6F6"/>
<path d="M56.1811 54.6172L29.3007 39.0298C30.5273 37.5331 31.3576 35.5455 31.3542 33.8204L58.2346 49.4077C58.2415 51.1329 57.4112 53.1205 56.1811 54.6172Z" fill="#E0DDE1"/>
<path d="M31.8736 34.6659C31.8531 35.058 31.7916 35.4603 31.6959 35.8626L57.2711 50.6931C57.3668 50.2874 57.4283 49.8885 57.4488 49.4964L31.8736 34.6659Z" fill="#D4CED8"/>
<path d="M49.6756 49.9257V50.1404H49.9729V51.5792L55.1186 54.5623C55.4057 54.2487 55.6756 53.9077 55.925 53.5498L49.6756 49.9257Z" fill="#D4CED8"/>
<path d="M45.3741 48.7795V48.3124H46.8946L30.3501 38.7186C30.1041 39.08 29.8308 39.4209 29.5438 39.7312L45.1451 48.7795H45.3741Z" fill="#D4CED8"/>
<path d="M31.4362 36.6327C31.2858 37.035 31.1047 37.4339 30.8963 37.8191L56.4715 52.6496C56.6799 52.2644 56.861 51.8655 57.0113 51.4632L31.4362 36.6327Z" fill="#D4CED8"/>
<path d="M43.4298 49.8578H43.9833V49.3464H44.1986L28.8159 40.4276C28.5289 40.6697 28.2316 40.881 27.9241 41.0549C27.8968 41.072 27.866 41.089 27.8387 41.1027L43.4298 50.1442V49.8578Z" fill="#D4CED8"/>
<path d="M49.9725 52.6952V53.9396L53.4132 55.934C53.4406 55.917 53.4713 55.9034 53.4987 55.8863C53.8062 55.709 54.1035 55.4976 54.3905 55.259L49.9725 52.6952Z" fill="#D4CED8"/>
<path d="M42.8041 51.5462L25.5148 41.5194C25.3576 41.4751 25.2107 41.4103 25.074 41.3319L42.8041 51.6144V51.5462Z" fill="#D4CED8"/>
<path d="M50.3553 55.9237V55.9919L50.6491 56.1624C50.779 56.2271 50.9567 56.3021 51.0899 56.3499L50.3553 55.9237Z" fill="#D4CED8"/>
<path d="M49.9725 54.7362V55.309H50.3552V55.6363L51.7322 56.434C52.0158 56.4306 52.3164 56.3795 52.6308 56.2772L49.9725 54.7362Z" fill="#D4CED8"/>
<path d="M32.0682 18.1895L32.0921 26.9241L40.255 31.6562L40.231 22.925L32.0682 18.1895Z" fill="#0093AD"/>
<path d="M45.5848 27.4218L57.4584 34.3052L57.4549 32.9107L45.5848 26.0273V27.4218Z" fill="#D4CED8"/>
<path d="M45.2398 25.8254L41.4129 23.6094L41.4163 25.0038L45.2398 27.2198V25.8254Z" fill="#D4CED8"/>
<path d="M50.2215 37.4359L57.4789 41.643L57.4755 40.2486L50.2215 36.0449V37.4359Z" fill="#D4CED8"/>
<path d="M49.9863 35.9047L44.3074 32.6113V34.0057L49.9863 37.2991V35.9047Z" fill="#D4CED8"/>
<path d="M44.0473 32.461L41.4334 30.9473L41.4368 32.3417L44.0473 33.8554V32.461Z" fill="#D4CED8"/>
<path d="M54.6775 37.5782L57.4725 39.1976L57.4691 37.8032L54.6775 36.1838V37.5782Z" fill="#D4CED8"/>
<path d="M54.2944 35.9622L47.1942 31.8438V33.2382L54.2944 37.3566V35.9622Z" fill="#D4CED8"/>
<path d="M46.7777 31.6051L43.3575 29.6209V31.0153L46.7777 32.9961V31.6051Z" fill="#D4CED8"/>
<path d="M42.7489 29.2671L41.4266 28.5L41.43 29.8978L42.7489 30.6615V29.2671Z" fill="#D4CED8"/>
<path d="M48.7762 30.3197L41.4197 26.0547L41.4232 27.4491L48.7762 31.7141V30.3197Z" fill="#D4CED8"/>
<path d="M54.1004 34.7992L57.466 36.7527L57.4626 35.3549L54.1004 33.4082V34.7992Z" fill="#D4CED8"/>
<path d="M53.7347 33.1945L49.1697 30.5488V31.9432L53.7347 34.5889V33.1945Z" fill="#D4CED8"/>
<path d="M42.8381 34.0843L32.0955 27.8555L32.0989 29.2499L42.8381 35.4787V34.0843Z" fill="#D4CED8"/>
<path d="M34.3404 33.9191L32.1092 32.627L32.1126 34.0214L34.3404 35.3135V33.9191Z" fill="#D4CED8"/>
<path d="M38.741 36.4727V37.8637L47.1875 42.7628V41.3718L38.741 36.4727Z" fill="#D4CED8"/>
<path d="M47.4061 41.4961V42.8905L49.012 43.8247V42.4302L47.4061 41.4961Z" fill="#D4CED8"/>
<path d="M34.535 34.0352V35.4262L38.4575 37.7002V36.3058L34.535 34.0352Z" fill="#D4CED8"/>
<path d="M41.2974 35.6115L37.4158 33.3613V34.7557L41.2974 37.0059V35.6115Z" fill="#D4CED8"/>
<path d="M54.903 44.8946L57.493 46.3947L57.4896 45.0003L54.903 43.5002V44.8946Z" fill="#D4CED8"/>
<path d="M54.6635 43.3645L41.577 35.7754V37.1664L54.6635 44.7555V43.3645Z" fill="#D4CED8"/>
<path d="M37.1354 33.2016L32.1024 30.2832L32.1058 31.6776L37.1354 34.5926V33.2016Z" fill="#D4CED8"/>
<mask id="mask0_76_6562" style="mask-type:luminance" maskUnits="userSpaceOnUse" x="31" y="0" width="37" height="33">
<path d="M58.1868 32.5453L31.3064 16.9579C31.2893 10.7359 35.6936 3.12634 41.1196 0L68 15.5874C62.5706 18.7137 58.1697 26.3199 58.1868 32.5453Z" fill="white"/>
</mask>
<g mask="url(#mask0_76_6562)">
<path d="M41.1196 0C39.3873 0.998928 37.7574 2.4513 36.3463 4.173C33.3326 7.84142 31.2962 12.7201 31.3064 16.9579L58.1868 32.5453C58.1731 28.3075 60.213 23.4288 63.2267 19.7604C64.6413 18.0387 66.2677 16.5863 68 15.5874L41.1196 0Z" fill="#EBE9EB"/>
</g>
<mask id="mask1_76_6562" style="mask-type:luminance" maskUnits="userSpaceOnUse" x="31" y="0" width="37" height="33">
<path d="M58.1868 32.5453L31.3064 16.9579C31.2893 10.7359 35.6936 3.12634 41.1196 0L68 15.5874C62.5706 18.7137 58.1697 26.3199 58.1868 32.5453Z" fill="white"/>
</mask>
<g mask="url(#mask1_76_6562)">
<path d="M52.9791 12.8419C54.1853 13.4249 54.6397 12.6953 54.5645 12.4635C54.5269 12.351 53.9871 11.7919 52.9791 12.8419ZM43.5042 7.39727C42.3356 8.75418 43.5315 8.79168 43.5452 8.79168C44.0816 8.74054 44.8094 7.72115 44.8402 7.67683C45.0281 7.41091 45.2058 7.0802 44.9222 6.85178C44.56 6.56199 44.0816 6.74609 43.5042 7.39727ZM57.8208 17.4786L58.3948 17.1138C58.6682 17.8639 59.29 18.1264 59.5429 17.5979C59.6659 17.3354 59.5121 17.1036 59.4609 17.0252C59.1807 16.6024 58.9791 16.0092 59.6283 15.5933C60.3493 15.1296 61.2752 15.4092 61.6955 16.2172C61.5247 16.3024 61.2957 16.4149 61.1249 16.5001C60.667 15.658 60.1477 15.8387 60.0281 16.2137C59.9632 16.4115 60.0691 16.6092 60.1545 16.7388C60.4484 17.182 60.6124 17.8161 59.7377 18.3173C59.4882 18.4605 58.5998 18.8287 57.8208 17.4786ZM59.1363 15.3205C58.3162 16.1558 57.667 16.8172 57.0144 16.974C56.4711 17.1036 55.5657 16.7626 55.5623 16.1728C55.5623 16.0637 55.5828 15.9853 55.6033 15.9035C54.7627 16.4217 53.9666 15.7467 54.1272 15.133C54.1955 14.8739 54.3698 14.6557 54.4825 14.5091C54.9985 13.8886 55.5418 13.3056 56.109 12.7669L56.7137 13.1181C56.1636 13.6431 55.634 14.2091 55.1283 14.8091C54.4996 15.5898 55.2957 15.6239 55.3026 15.6239C55.6648 15.6035 56.0645 15.1978 56.4438 14.7818C56.8094 14.3761 57.1853 13.9841 57.5714 13.6159L58.1727 13.9636C56.8812 15.1807 55.6955 16.4319 56.6898 16.4592C57.339 16.4763 58.9586 14.4511 58.9723 14.4307L59.5873 14.7887C59.5941 14.7887 59.3994 15.0512 59.1363 15.3205ZM53.4814 14.9523C52.0326 14.9182 50.8948 13.9193 52.4051 12.4328C53.6864 11.1714 55.2889 11.8601 55.3367 12.5419C55.3743 13.101 54.3766 14.1341 52.6545 13.2408C52.4666 13.5238 51.9643 14.2773 53.6386 14.4545L53.4814 14.9523ZM48.5235 12.4021L47.8914 12.0373C48.8789 10.7179 49.9928 9.52468 51.1887 8.53598L51.6807 8.82236C51.421 9.84856 51.2502 10.527 50.9803 12.1498C51.2058 11.8566 51.3664 11.6589 51.5201 11.4884C52.3948 10.5782 52.5315 10.4384 53.3003 9.77697L53.9324 10.1418C52.7399 11.1305 51.6295 12.3237 50.642 13.6397L50.1158 13.3363C50.29 12.0783 50.4165 11.1714 50.7752 9.74969C50.2695 10.319 50.2695 10.319 50.15 10.4452C49.2855 11.4134 49.1727 11.5396 48.5235 12.4021ZM46.224 10.9123C46.2069 10.9123 44.4848 10.66 45.2639 9.61673C45.732 9.03374 46.224 8.48143 46.7365 7.96662L46.2582 7.69047C46.3914 7.5541 46.5281 7.42113 46.6648 7.29158L47.1431 7.56773L47.8504 7.0802L48.4586 7.27453C48.2194 7.4825 47.9803 7.69388 47.7479 7.91889L48.4005 8.29733L47.9187 8.6519L47.3413 8.31778C46.8493 8.81213 46.3777 9.34058 45.9301 9.89629C45.6841 10.2202 46.0839 10.3634 46.4597 10.4281C46.3846 10.5679 46.2069 10.7486 46.224 10.9123ZM45.2297 8.38938C43.4734 10.285 42.2126 8.98601 42.2228 8.27005C42.2434 6.97111 44.5361 5.36873 45.6807 6.70177C46.0326 7.11089 45.8891 7.64956 45.2297 8.38938ZM39.0588 6.91656L38.4267 6.55176C39.4108 5.23576 40.5213 4.04591 41.7137 3.05721L42.3459 3.42201C41.8504 3.83454 41.3686 4.28116 40.9039 4.75505L42.3834 5.6142C42.8481 5.13689 43.3299 4.69368 43.8254 4.28116L44.4575 4.64595C43.2684 5.63465 42.1579 6.8211 41.1705 8.13709L40.5383 7.77229C40.9859 7.17225 41.4609 6.59949 41.9563 6.06082L40.4768 5.20167C39.9814 5.74375 39.5099 6.31652 39.0588 6.91656ZM66.79 16.3672L39.9096 0.783203C37.9552 2.18784 36.1784 4.14819 34.7536 6.36766L61.634 21.955C63.0554 19.7322 64.8322 17.7718 66.79 16.3672Z" fill="#FF445F"/>
<path d="M41.7135 3.05664C40.5244 4.04534 39.4139 5.23178 38.4265 6.55119L39.0586 6.91598C39.5062 6.31594 39.9811 5.74318 40.4766 5.20451L41.9561 6.06365C41.4606 6.60233 40.9857 7.17509 40.5381 7.77513L41.1702 8.13993C42.1542 6.82393 43.2647 5.63408 44.4572 4.64879L43.8251 4.28399C43.3296 4.69652 42.8479 5.13973 42.3832 5.61703L40.9037 4.75789C41.3684 4.28058 41.8501 3.83737 42.3456 3.42485L41.7135 3.05664Z" fill="#F6F6F6"/>
<path d="M44.5292 8.06549C44.3379 8.28028 43.9381 8.7269 43.6238 8.77804C43.2479 8.84281 42.9916 8.59053 42.9951 8.3246C43.0019 7.72797 44.3481 6.18696 44.9837 6.90633C45.216 7.17225 44.97 7.56091 44.5292 8.06549ZM42.8037 7.07338C41.3174 8.85986 43.1078 9.39512 43.5896 9.36444C44.5805 9.30648 46.5862 7.50296 45.585 6.6029C44.9256 6.01649 43.7639 5.98581 42.8037 7.07338Z" fill="#F6F6F6"/>
<path d="M46.6611 7.28901C46.5244 7.41856 46.3878 7.55152 46.2545 7.68789L46.7329 7.96405C46.2203 8.48226 45.7283 9.03457 45.2602 9.61416C44.4846 10.6574 46.2033 10.9097 46.2203 10.9097C46.2887 10.7631 46.3844 10.5688 46.4527 10.4222C45.6361 10.2722 45.8513 9.98577 45.9231 9.89031C46.3741 9.33459 46.8456 8.80615 47.3342 8.3118L47.9117 8.64591L48.3935 8.29134L47.7408 7.91291C47.9732 7.6913 48.2124 7.47652 48.4516 7.26855L47.8434 7.07422L47.1361 7.56175L46.6611 7.28901Z" fill="#F6F6F6"/>
<path d="M51.1886 8.53516C49.9927 9.52386 48.8788 10.7171 47.8913 12.0365L48.5234 12.4013C49.258 11.4501 49.258 11.4501 50.7751 9.74546C50.6726 10.158 50.6145 10.3864 50.5564 10.6694C50.3275 11.8626 50.2797 12.1115 50.1157 13.3321L50.6419 13.6355C51.6293 12.3161 52.7398 11.1262 53.9323 10.1375L53.3002 9.77274C52.5177 10.4716 51.7079 11.191 50.9801 12.1456C51.0314 11.8422 51.0895 11.5388 51.1407 11.2319C51.3731 10.0591 51.4141 9.84774 51.6806 8.81813L51.1886 8.53516Z" fill="#F6F6F6"/>
<path d="M54.4343 12.8177C54.2019 13.0359 53.7577 13.22 52.9787 12.8416C53.9935 11.7813 54.5675 12.3131 54.5744 12.5279C54.5778 12.6541 54.4889 12.7632 54.4343 12.8177ZM52.2441 12.6029C50.7851 14.3621 52.6404 14.9417 53.481 14.9519C53.5288 14.8019 53.5937 14.6042 53.6416 14.4542C52.145 14.2905 52.3637 13.6837 52.6575 13.2405C54.4582 14.1746 55.5311 12.9643 55.3022 12.3881C55.0801 11.8324 53.5356 11.1403 52.2441 12.6029Z" fill="#F6F6F6"/>
<path d="M56.1126 12.7676C55.5454 13.3062 55.0021 13.8892 54.4862 14.5097C53.403 15.8769 54.9748 16.1155 55.1388 16.0951C55.3336 16.0678 55.4942 15.9689 55.6035 15.9041C55.3643 16.8144 56.5875 17.3361 57.5579 16.7394C58.1456 16.378 59.3142 15.1814 59.591 14.7893L58.9759 14.4313C58.2652 15.403 56.4611 17.2167 56.3449 16.1837C56.3039 15.8155 57.3188 14.7723 58.1764 13.9642L57.575 13.6165C57.1889 13.9847 56.8096 14.3734 56.4475 14.7825C55.05 16.3167 54.8894 15.3518 54.886 15.3382C54.8654 15.1371 55.05 14.9086 55.1285 14.8098C55.6308 14.2097 56.1604 13.6438 56.714 13.1187L56.1126 12.7676Z" fill="#F6F6F6"/>
<path d="M57.821 17.4789C58.7504 19.1835 60.1649 18.3107 60.3802 17.5743C60.4793 17.2266 60.288 16.9334 60.1581 16.7391C59.9873 16.4765 59.9668 16.2856 60.0898 16.0947C60.2982 15.7742 60.7492 15.8254 61.108 16.4663C61.1148 16.4765 61.1217 16.4902 61.1285 16.5004C61.2993 16.4152 61.5283 16.3027 61.6991 16.2174C61.0567 14.9833 59.5362 15.2355 59.2321 16.1015C59.0989 16.4799 59.3278 16.8209 59.4645 17.0288C59.5226 17.1175 59.7003 17.3868 59.5021 17.68C59.3483 17.905 58.8734 18.1062 58.4531 17.247C58.4155 17.172 58.4053 17.1379 58.3984 17.1209L57.821 17.4789Z" fill="#F6F6F6"/>
</g>
<path d="M49.8766 54.2208L49.8697 51.8514C49.8663 50.4945 49.3846 49.5399 48.6089 49.0898L21.7285 33.5059C22.5041 33.9559 22.9859 34.9105 22.9893 36.2674L22.9962 38.6369C22.9996 40.004 23.4848 40.9654 24.2672 41.4189L51.1476 57.0063C50.3652 56.5494 49.88 55.5846 49.8766 54.2208Z" fill="#C7BFCD"/>
<path d="M31.8804 70L5 54.4126V54.0274L31.8804 69.6113V70Z" fill="#888888"/>
<path d="M68.0005 15.5879V15.9766C62.759 18.9972 58.5084 26.3443 58.5255 32.3515L58.5733 49.2139C58.5802 51.9618 56.636 55.3234 54.2408 56.7042C51.8421 58.085 49.8843 56.9735 49.8774 54.2222L49.8706 51.8527C49.8638 49.1253 47.9196 48.0173 45.538 49.3912C43.1565 50.7618 41.226 54.0995 41.2362 56.8269C41.2499 61.1124 38.2191 66.3491 34.4811 68.5004L31.8809 69.9971V69.6084L34.4811 68.1118C38.0312 66.0662 40.9116 61.092 40.9014 57.0179C40.8945 54.0756 42.9754 50.4788 45.5415 48.9991C48.1075 47.5195 50.2055 48.7094 50.2123 51.655L50.2191 54.0245C50.226 56.5576 52.0301 57.5872 54.2442 56.3121C56.4549 55.037 58.2487 51.938 58.2419 49.4049L58.1941 32.5424C58.1701 26.3204 62.5711 18.7142 68.0005 15.5879Z" fill="#C5C5C5"/>
<path d="M43.5661 50.6412C43.6344 50.5662 43.6993 50.4912 43.7711 50.4196C43.7984 50.3923 43.8257 50.365 43.8497 50.3377C43.9077 50.2798 43.9658 50.2218 44.0239 50.1639C44.0513 50.1366 44.0786 50.1093 44.1059 50.082C44.1743 50.0173 44.2392 49.9559 44.3075 49.8945C44.3246 49.8775 44.3417 49.8604 44.3622 49.8468C44.4476 49.7718 44.5364 49.7002 44.6219 49.6286C44.6458 49.6116 44.6663 49.5945 44.6902 49.5741C44.7551 49.5229 44.8235 49.4718 44.8884 49.4206C44.9191 49.3968 44.9499 49.3763 44.9806 49.3559C45.0456 49.3115 45.1105 49.2672 45.172 49.2229C45.1993 49.2024 45.2301 49.1854 45.2574 49.1649C45.3497 49.107 45.4419 49.049 45.5342 48.9945C45.6059 48.9536 45.6811 48.9127 45.7528 48.8752C45.7733 48.8649 45.7973 48.8547 45.8178 48.8411C45.869 48.8138 45.9237 48.7899 45.9749 48.7661C45.9954 48.7558 46.0194 48.7456 46.0399 48.7354C46.1014 48.7081 46.1629 48.6808 46.2244 48.657C46.2346 48.6535 46.2415 48.6501 46.2517 48.6467C46.32 48.6195 46.3918 48.5922 46.4601 48.5683C46.4806 48.5615 46.4977 48.5547 46.5182 48.5479C46.5695 48.5308 46.6207 48.5172 46.6686 48.5001C46.6891 48.4933 46.713 48.4865 46.7335 48.4831C46.7882 48.4694 46.8428 48.4558 46.8941 48.4422C46.9077 48.4388 46.9214 48.4354 46.9351 48.4319C46.9522 48.4285 46.9727 48.4251 46.9897 48.4217C47.0547 48.4081 47.1196 48.3978 47.1845 48.3876C47.2118 48.3842 47.2392 48.3808 47.2665 48.3774C47.3212 48.3706 47.3759 48.3672 47.4271 48.3638C47.4544 48.3603 47.4818 48.3603 47.5091 48.3603C47.5638 48.3569 47.6184 48.3569 47.6731 48.3603C47.697 48.3603 47.7175 48.3603 47.7415 48.3603C47.8166 48.3638 47.8918 48.3706 47.9636 48.3774C47.9738 48.3774 47.9841 48.3808 47.9943 48.3808C48.0558 48.391 48.1173 48.4013 48.1788 48.4149C48.2027 48.4183 48.2232 48.4251 48.2472 48.4319C48.295 48.4422 48.3428 48.4558 48.3872 48.4729C48.4112 48.4797 48.4351 48.4899 48.459 48.4967C48.5068 48.5138 48.5512 48.5308 48.5957 48.5513C48.6162 48.5615 48.6367 48.5683 48.6572 48.5785C48.7221 48.6092 48.7836 48.6399 48.8417 48.674L21.9681 33.0969C21.9066 33.0628 21.8451 33.0321 21.7836 33.0014C21.7631 32.9912 21.7426 32.9844 21.7221 32.9741C21.6777 32.9537 21.6333 32.9366 21.5854 32.9196C21.5615 32.9128 21.5376 32.9025 21.5137 32.8957C21.4692 32.8821 21.4214 32.8684 21.3736 32.8548C21.3497 32.848 21.3292 32.8446 21.3052 32.8378C21.2437 32.8241 21.1822 32.8139 21.1207 32.8037C21.1105 32.8037 21.1002 32.8002 21.09 32.8002C21.0182 32.79 20.9431 32.7866 20.8679 32.7832C20.8474 32.7832 20.8235 32.7832 20.7995 32.7832C20.7449 32.7832 20.6902 32.7832 20.6355 32.7832C20.6082 32.7832 20.5809 32.7866 20.5535 32.7866C20.4989 32.79 20.4476 32.7934 20.3929 32.8002C20.3656 32.8037 20.3383 32.8071 20.3109 32.8105C20.246 32.8207 20.1811 32.8309 20.1162 32.8446C20.1025 32.848 20.0888 32.848 20.0718 32.8514C20.0683 32.8514 20.0649 32.8548 20.0615 32.8548C20.0478 32.8582 20.0342 32.8616 20.0205 32.865C19.9658 32.8787 19.9146 32.8889 19.8599 32.9059C19.8394 32.9128 19.8155 32.9162 19.795 32.923C19.7437 32.9366 19.6959 32.9537 19.6446 32.9707C19.6241 32.9775 19.6071 32.9844 19.5866 32.9912C19.5182 33.015 19.4499 33.0389 19.3781 33.0662C19.3679 33.0696 19.3576 33.073 19.3508 33.0798C19.2893 33.1037 19.2278 33.131 19.1663 33.1582C19.1458 33.1685 19.1219 33.1787 19.1014 33.1889C19.0501 33.2128 18.9954 33.24 18.9442 33.2639C18.9237 33.2741 18.8998 33.2844 18.8793 33.298C18.8075 33.3355 18.7358 33.3764 18.6606 33.4173C18.5683 33.4719 18.4761 33.5298 18.3838 33.5878C18.3565 33.6048 18.3257 33.6253 18.2984 33.6423C18.2335 33.6867 18.1686 33.731 18.1071 33.7753C18.0763 33.7958 18.0456 33.8196 18.0148 33.8401C17.9465 33.8912 17.8815 33.9424 17.8132 33.9935C17.7893 34.0106 17.7688 34.0276 17.7449 34.0481C17.656 34.1197 17.5706 34.1912 17.4852 34.2663C17.4681 34.2833 17.451 34.2969 17.4305 34.314C17.3622 34.3754 17.2938 34.4367 17.2289 34.5015C17.2016 34.5288 17.1743 34.556 17.1469 34.5799C17.0888 34.6379 17.0308 34.6958 16.9727 34.7538C16.9453 34.7811 16.9214 34.8083 16.8941 34.8356C16.8257 34.9072 16.7574 34.9822 16.6891 35.0572C16.6788 35.0709 16.6651 35.0811 16.6549 35.0947C16.5763 35.1834 16.4977 35.2754 16.4226 35.3675C16.4157 35.3743 16.4089 35.3811 16.4055 35.3879C14.9806 37.1233 14.0171 39.4279 14.0205 41.4326C14.0308 45.5033 11.1538 50.4809 7.60364 52.5265L5 54.0266L31.8804 69.614L34.4806 68.1173C38.0308 66.0717 40.9112 61.0975 40.9009 57.0234C40.8941 55.0119 41.8679 52.6936 43.303 50.9548C43.3781 50.8628 43.4567 50.7707 43.5353 50.6855C43.5421 50.6685 43.5558 50.6548 43.5661 50.6412Z" fill="#F1F1F1"/>
<path d="M22.2649 33.295C21.4483 32.9643 20.389 33.0904 19.2376 33.7552C18.4483 34.2121 17.7034 34.8667 17.0508 35.644L25.282 40.417C25.9346 39.6397 26.6795 38.9851 27.4688 38.5283C28.6237 37.8635 29.6795 37.7373 30.4961 38.068L22.2649 33.295Z" fill="#0093AD"/>
<path d="M16.4973 36.3594C16.265 36.6901 16.0463 37.0344 15.8516 37.389L41.4507 52.2331C41.6488 51.8786 41.8641 51.5342 42.0964 51.2035L16.4973 36.3594Z" fill="#D4CED8"/>
<path d="M14.5942 42.0879C14.584 42.4493 14.5498 42.8141 14.4951 43.1857L40.0942 58.0298C40.1489 57.6582 40.183 57.2934 40.1933 56.932L14.5942 42.0879Z" fill="#0093AD"/>
<path d="M14.7822 40.166C14.7002 40.541 14.6455 40.9127 14.6182 41.274L40.2173 56.1182C40.2446 55.7534 40.2993 55.3818 40.3813 55.0102L14.7822 40.166Z" fill="#D4CED8"/>
<path d="M15.4422 38.2051C15.2748 38.5733 15.1313 38.9449 15.0117 39.3199L40.6108 54.1641C40.7304 53.789 40.8773 53.4174 41.0413 53.0492L15.4422 38.2051Z" fill="#D4CED8"/>
<path d="M31.7064 54.0918C31.1836 56.4306 29.916 58.8341 28.2656 60.6752L36.4968 65.4482C38.1506 63.6072 39.4182 61.2036 39.9376 58.8648L31.7064 54.0918Z" fill="#0093AD"/>
<path d="M14.3383 44.0215C14.2563 44.3965 14.1538 44.7715 14.0342 45.1466L30.2096 54.5256C30.3292 54.1506 30.4317 53.7755 30.5137 53.4005L14.3383 44.0215Z" fill="#D4CED8"/>
<path d="M11.6594 49.6836C11.4168 50.0041 11.1606 50.3143 10.8975 50.6075L18.8314 55.1965C19.0945 54.9032 19.3508 54.593 19.5934 54.2725L11.6594 49.6836Z" fill="#D4CED8"/>
<path d="M12.825 47.9043C12.6268 48.2589 12.415 48.6066 12.1895 48.9407L28.3648 58.3197C28.5904 57.9822 28.8022 57.6379 29.0004 57.2833L12.825 47.9043Z" fill="#D4CED8"/>
<path d="M13.7332 45.9883C13.5863 46.3599 13.4257 46.7281 13.248 47.0929L29.4234 56.4719C29.6011 56.1071 29.7617 55.7389 29.9086 55.3673L13.7332 45.9883Z" fill="#D4CED8"/>
<path d="M10.2863 51.2461C10.0096 51.5188 9.72256 51.7711 9.42871 52.0064L35.0278 66.8505C35.3216 66.6153 35.6087 66.3596 35.8854 66.0902L10.2863 51.2461Z" fill="#D4CED8"/>
<path d="M34.3507 67.35C34.1799 67.4591 33.4794 67.8887 33.3051 67.991L7.70605 53.1468C7.8769 53.0411 8.58419 52.6184 8.75161 52.5059L34.3507 67.35Z" fill="#D4CED8"/>
<path d="M31.6891 38.7571C31.4704 38.6684 31.2312 38.6139 30.9784 38.59L47.1538 47.969C47.4066 47.9895 47.6424 48.0474 47.8645 48.1361L31.6891 38.7571Z" fill="#0093AD"/>
<path d="M27.2813 40.2503C26.9977 40.5129 26.7278 40.7992 26.4715 41.1061L34.9624 46.0734C35.2187 45.77 35.4886 45.4802 35.7722 45.2177L27.2813 40.2503Z" fill="#D4CED8"/>
<path d="M28.8536 39.1115C28.7886 39.1456 28.7237 39.1797 28.6588 39.2172C28.4128 39.3604 28.1702 39.5206 27.9344 39.6979L44.1098 49.0769C44.3456 48.8996 44.5882 48.736 44.8342 48.5962C44.8991 48.5587 44.964 48.5246 45.0289 48.4905L28.8536 39.1115Z" fill="#D4CED8"/>
<path d="M30.3868 38.6037C30.1134 38.6344 29.8298 38.7025 29.536 38.8082L45.7114 48.1872C46.0052 48.0816 46.2922 48.0134 46.5622 47.9827L30.3868 38.6037Z" fill="#0093AD"/>
<path d="M60.6025 22.392C60.5274 22.5148 60.4488 22.6409 60.377 22.7636C60.2472 22.9852 60.1208 23.2068 59.9977 23.4319L34.5422 8.59453C34.6652 8.36951 34.7916 8.14791 34.9248 7.9263C34.9966 7.80357 35.0752 7.67742 35.1504 7.55469L60.6025 22.392Z" fill="#D4CED8"/>
<path d="M59.5472 24.3017C59.4994 24.3971 59.455 24.496 59.4071 24.5949C59.2807 24.8642 59.1577 25.1335 59.0449 25.4029L33.5791 10.5621C33.6953 10.2928 33.8183 10.0235 33.9447 9.75414C33.9891 9.65527 34.037 9.55981 34.0882 9.46094L59.5472 24.3017Z" fill="#D4CED8"/>
<path d="M47.0681 19.2893C47.0408 19.3574 47.0169 19.429 46.9895 19.4972C46.87 19.8143 46.7606 20.1314 46.6649 20.4484L32.8779 12.4468C32.977 12.1297 33.0864 11.8126 33.206 11.499C33.2333 11.4308 33.2572 11.3592 33.2845 11.291L47.0681 19.2893Z" fill="#D4CED8"/>
<path d="M58.0566 28.3104C58.0463 28.3445 58.0361 28.382 58.0292 28.4161C57.9335 28.7946 57.8515 29.173 57.7866 29.548L32.3105 14.7005C32.3789 14.3254 32.4575 13.9504 32.5566 13.5686C32.5634 13.5345 32.5736 13.5004 32.5839 13.4629L58.0566 28.3104Z" fill="#D4CED8"/>
<path d="M57.6606 30.4042C57.6094 30.8338 57.5752 31.2565 57.5649 31.6725C57.5649 31.6963 57.5649 31.7168 57.5649 31.7406L32.0752 16.8863C32.0752 16.8624 32.0752 16.8385 32.0752 16.8181C32.0889 16.4022 32.123 15.9794 32.1777 15.5566L57.6606 30.4042Z" fill="#0093AD"/>
</g>
</g>
<defs>
<filter id="filter0_d_76_6562" x="2" y="-3" width="71.0005" height="78" filterUnits="userSpaceOnUse" color-interpolation-filters="sRGB">
<feFlood flood-opacity="0" result="BackgroundImageFix"/>
<feColorMatrix in="SourceAlpha" type="matrix" values="0 0 0 0 0 0 0 0 0 0 0 0 0 0 0 0 0 0 127 0" result="hardAlpha"/>
<feOffset dx="1" dy="1"/>
<feGaussianBlur stdDeviation="2"/>
<feComposite in2="hardAlpha" operator="out"/>
<feColorMatrix type="matrix" values="0 0 0 0 0 0 0 0 0 0 0 0 0 0 0 0 0 0 0.25 0"/>
<feBlend mode="normal" in2="BackgroundImageFix" result="effect1_dropShadow_76_6562"/>
<feBlend mode="normal" in="SourceGraphic" in2="effect1_dropShadow_76_6562" result="shape"/>
</filter>
<clipPath id="clip0_76_6562">
<rect width="63" height="74" fill="white" transform="translate(5)"/>
</clipPath>
</defs>
</svg>
