<svg width="21" height="20" viewBox="0 0 21 20" fill="none" xmlns="http://www.w3.org/2000/svg">
<g clip-path="url(#clip0_10_6475)">
<path d="M1.61277 2.88316C1.72266 2.99308 1.87168 3.0548 2.02711 3.0548C2.18254 3.0548 2.33156 2.99308 2.44141 2.88316L4.32422 1.00035C4.55305 0.771558 4.55305 0.400542 4.32422 0.171714C4.09543 -0.0570752 3.72442 -0.0570752 3.49559 0.171714L2.02711 1.64019L1.50004 1.11312C1.27125 0.884253 0.900236 0.884331 0.671407 1.11312C0.442579 1.34191 0.442579 1.71289 0.671407 1.94175L1.61277 2.88316Z" fill="#00ADAD"/>
<path d="M0.67163 14.18C0.900419 14.4087 1.27143 14.4087 1.50026 14.18L2.02733 13.6528L2.55444 14.18C2.78323 14.4087 3.15425 14.4087 3.38307 14.18C3.6119 13.9512 3.6119 13.5801 3.38307 13.3513L2.85597 12.8242L3.38307 12.2971C3.6119 12.0683 3.6119 11.6973 3.38307 11.4685C3.15429 11.2397 2.78327 11.2397 2.55444 11.4685L2.02733 11.9956L1.50022 11.4685C1.27143 11.2397 0.900419 11.2397 0.671591 11.4685C0.442762 11.6973 0.442762 12.0683 0.671591 12.2971L1.1987 12.8242L0.67163 13.3513C0.442762 13.5801 0.442762 13.9511 0.67163 14.18Z" fill="#00ADAD"/>
<path d="M1.08572 8.70258H13.0519V4.3927H1.08572C0.76213 4.3927 0.499786 4.65504 0.499786 4.97864V8.11665C0.499786 8.44024 0.76213 8.70258 1.08572 8.70258Z" fill="#00ADAD"/>
<path d="M19.9145 4.3927H14.2244V8.70258H19.9145C20.2381 8.70258 20.5005 8.44024 20.5005 8.11665V4.97864C20.5005 4.65504 20.2381 4.3927 19.9145 4.3927Z" fill="#00ADAD"/>
<path d="M19.9132 15.6896H7.94705V19.9995H19.9132C20.2368 19.9995 20.4991 19.7371 20.4991 19.4135V16.2755C20.4991 15.9519 20.2368 15.6896 19.9132 15.6896Z" fill="#00ADAD"/>
<path d="M0.499786 16.2755V19.4135C0.499786 19.7371 0.76213 19.9995 1.08572 19.9995H6.77584V15.6896H1.08572C0.76213 15.6896 0.499786 15.9519 0.499786 16.2755Z" fill="#00ADAD"/>
</g>
<defs>
<clipPath id="clip0_10_6475">
<rect width="20" height="20" fill="white" transform="translate(0.5)"/>
</clipPath>
</defs>
</svg>
