<svg width="21" height="20" viewBox="0 0 21 20" fill="none" xmlns="http://www.w3.org/2000/svg">
<g clip-path="url(#clip0_15_1960)">
<path d="M5.25 0C3.17969 0 1.5 1.67969 1.5 3.75V16.25C1.5 18.3203 3.17969 20 5.25 20H17.75C18.4414 20 19 19.4414 19 18.75C19 18.0586 18.4414 17.5 17.75 17.5V15C18.4414 15 19 14.4414 19 13.75V1.25C19 0.558594 18.4414 0 17.75 0H16.5H5.25ZM5.25 15H15.25V17.5H5.25C4.55859 17.5 4 16.9414 4 16.25C4 15.5586 4.55859 15 5.25 15ZM6.5 5.625C6.5 5.28125 6.78125 5 7.125 5H14.625C14.9688 5 15.25 5.28125 15.25 5.625C15.25 5.96875 14.9688 6.25 14.625 6.25H7.125C6.78125 6.25 6.5 5.96875 6.5 5.625ZM7.125 7.5H14.625C14.9688 7.5 15.25 7.78125 15.25 8.125C15.25 8.46875 14.9688 8.75 14.625 8.75H7.125C6.78125 8.75 6.5 8.46875 6.5 8.125C6.5 7.78125 6.78125 7.5 7.125 7.5Z" fill="#00ADAD"/>
</g>
<defs>
<clipPath id="clip0_15_1960">
<rect width="17.5" height="20" fill="white" transform="translate(1.5)"/>
</clipPath>
</defs>
</svg>
