<svg width="324" height="153" viewBox="0 0 324 153" fill="none" xmlns="http://www.w3.org/2000/svg">
<path d="M118.554 52.9944H83.4183V61.3738C93.5435 61.2229 114.428 61.0115 116.967 61.3738C120.141 61.8268 122.408 63.6386 122.181 67.2621C121.954 70.8857 119.461 72.169 117.874 72.471H83.4183V81.0769C94.7525 81.0014 117.602 80.8958 118.327 81.0769C119.234 81.3034 122.181 82.2033 122.181 86.5123C122.181 89.6829 119.385 91.4192 117.874 91.7211H83.4183V99.8741H119.007C126.488 99.1947 130.371 93.1514 130.568 87.6446C130.793 81.3565 128.492 78.483 126.979 76.5951L126.941 76.5475C128.679 75.0377 131.475 70.2063 130.342 63.1856C129.192 56.0646 122.408 52.9944 118.554 52.9944Z" fill="#009DA9" fill-opacity="0.1"/>
<path d="M35.1358 104.761H0V113.141C10.1251 112.99 31.0101 112.778 33.549 113.141C36.7225 113.594 38.9894 115.405 38.7627 119.029C38.536 122.653 36.0425 123.936 34.4557 124.238H0V132.844C11.3341 132.768 34.1837 132.663 34.9091 132.844C35.8158 133.07 38.7627 133.97 38.7627 138.279C38.7627 141.45 35.9669 143.186 34.4557 143.488H0V151.641H35.5891C43.0696 150.962 46.9531 144.918 47.1499 139.412C47.3747 133.123 45.0732 130.25 43.5611 128.362L43.523 128.314C45.2609 126.805 48.0567 121.973 46.9232 114.953C45.7736 107.832 38.9894 104.761 35.1358 104.761Z" fill="#009DA9" fill-opacity="0.1"/>
<path d="M203.768 105.667H168.632V114.047C178.757 113.896 199.642 113.684 202.181 114.047C205.354 114.5 207.621 116.311 207.395 119.935C207.168 123.559 204.674 124.842 203.088 125.144H168.632V133.75C179.966 133.674 202.816 133.569 203.541 133.75C204.448 133.976 207.395 134.876 207.395 139.185C207.395 142.356 204.599 144.092 203.088 144.394H168.632V152.547H204.221C211.702 151.868 215.585 145.824 215.782 140.318C216.007 134.029 213.705 131.156 212.193 129.268L212.155 129.22C213.893 127.711 216.689 122.879 215.555 115.859C214.406 108.738 207.621 105.667 203.768 105.667Z" fill="#009DA9" fill-opacity="0.1"/>
<path d="M201.066 0.584146H165.93V8.96362C176.055 8.81264 196.94 8.60126 199.479 8.96362C202.653 9.41656 204.919 11.2283 204.693 14.8519C204.466 18.4755 201.973 19.7588 200.386 20.0608H165.93V28.6667C177.264 28.5912 200.114 28.4855 200.839 28.6667C201.746 28.8932 204.693 29.7931 204.693 34.102C204.693 37.2727 201.897 39.0089 200.386 39.3109H165.93V47.4639H201.519C209 46.7845 212.883 40.7412 213.08 35.2344C213.305 28.9462 211.003 26.0728 209.491 24.1848L209.453 24.1373C211.191 22.6274 213.987 17.796 212.853 10.7754C211.704 3.65437 204.919 0.584146 201.066 0.584146Z" fill="#009DA9" fill-opacity="0.1"/>
<path d="M287.798 53.1126H252.662V61.4921C262.787 61.3411 283.672 61.1297 286.211 61.4921C289.385 61.945 291.651 63.7568 291.425 67.3804C291.198 71.0039 288.705 72.2873 287.118 72.5892H252.662V81.1952C263.996 81.1197 286.846 81.014 287.571 81.1952C288.478 81.4216 291.425 82.3216 291.425 86.6305C291.425 89.8011 288.629 91.5374 287.118 91.8394H252.662V99.9924H288.251C295.732 99.313 299.615 93.2697 299.812 87.7629C300.037 81.4747 297.735 78.6012 296.223 76.7133L296.185 76.6657C297.923 75.1559 300.719 70.3245 299.585 63.3039C298.436 56.1828 291.651 53.1126 287.798 53.1126Z" fill="#009DA9" fill-opacity="0.1"/>
<path d="M166.971 64.4493L166.971 99.5525L175.358 99.5525C175.207 89.4367 174.995 68.5711 175.358 66.0346C175.811 62.864 177.625 60.5992 181.252 60.8257C184.879 61.0522 186.163 63.5434 186.465 65.1287L186.465 99.5525L195.079 99.5525C195.004 88.2288 194.898 65.4004 195.079 64.6757C195.306 63.7698 196.207 60.8257 200.52 60.8257C203.693 60.8257 205.431 63.6189 205.733 65.1287L205.733 99.5525L213.894 99.5525L213.894 63.9963C213.214 56.5227 207.165 52.6429 201.653 52.4462C195.359 52.2216 192.483 54.521 190.593 56.0317L190.546 56.0698C189.034 54.3335 184.198 51.5403 177.171 52.6727C170.044 53.8213 166.971 60.5992 166.971 64.4493Z" fill="#009DA9" fill-opacity="0.1"/>
<path d="M83.55 116.216L83.55 151.319L91.9373 151.319C91.7862 141.204 91.5746 120.338 91.9373 117.801C92.3907 114.631 94.2041 112.366 97.831 112.593C101.458 112.819 102.742 115.31 103.045 116.896L103.045 151.319L111.659 151.319C111.583 139.996 111.477 117.167 111.659 116.443C111.885 115.537 112.786 112.593 117.099 112.593C120.273 112.593 122.01 115.386 122.313 116.896L122.313 151.319L130.473 151.319L130.473 115.763C129.793 108.29 123.744 104.41 118.232 104.213C111.938 103.989 109.062 106.288 107.173 107.799L107.125 107.837C105.614 106.1 100.778 103.307 93.7508 104.44C86.6231 105.588 83.55 112.366 83.55 116.216Z" fill="#009DA9" fill-opacity="0.1"/>
<path d="M252.182 117.122L252.182 152.225L260.569 152.225C260.418 142.11 260.207 121.244 260.569 118.707C261.023 115.537 262.836 113.272 266.463 113.499C270.09 113.725 271.374 116.216 271.677 117.802L271.677 152.225L280.291 152.225C280.215 140.902 280.109 118.073 280.291 117.349C280.517 116.443 281.418 113.499 285.731 113.499C288.905 113.499 290.642 116.292 290.945 117.802L290.945 152.225L299.105 152.225L299.105 116.669C298.425 109.196 292.376 105.316 286.864 105.119C280.57 104.895 277.694 107.194 275.805 108.705L275.757 108.743C274.246 107.006 269.41 104.213 262.383 105.346C255.255 106.494 252.182 113.272 252.182 117.122Z" fill="#009DA9" fill-opacity="0.1"/>
<path d="M249.482 12.039L249.482 47.1422L257.87 47.1422C257.718 37.0265 257.507 16.1608 257.87 13.6243C258.323 10.4537 260.136 8.18899 263.763 8.41547C267.39 8.64194 268.675 11.1331 268.977 12.7184L268.977 47.1422L277.591 47.1422C277.515 35.8186 277.41 12.9902 277.591 12.2655C277.818 11.3596 278.718 8.41547 283.031 8.41546C286.205 8.41546 287.943 11.2086 288.245 12.7184L288.245 47.1422L296.406 47.1422L296.406 11.5861C295.726 4.11249 289.677 0.23266 284.165 0.0359902C277.871 -0.188585 274.995 2.11075 273.105 3.62148L273.057 3.65954C271.546 1.92326 266.71 -0.869901 259.683 0.262462C252.555 1.41102 249.482 8.189 249.482 12.039Z" fill="#009DA9" fill-opacity="0.1"/>
<path d="M143.49 52.9944H134.877C134.952 63.865 134.877 85.9575 134.877 87.4182C134.877 89.4564 136.671 100.327 148.931 100.327C158.905 100.327 162.758 92.1741 162.758 87.4182V52.9944H154.371L154.145 86.9652C153.918 89.2299 152.376 91.54 148.931 91.7211C145.485 91.9023 143.49 89.0035 143.49 86.9652V52.9944Z" fill="#009DA9" fill-opacity="0.1"/>
<path d="M60.0699 104.761H51.4559C51.5315 115.632 51.4559 137.724 51.4559 139.185C51.4559 141.223 53.2505 152.094 65.5102 152.094C75.4843 152.094 79.3379 143.941 79.3379 139.185V104.761H70.9506L70.7239 138.732C70.4972 140.997 68.9558 143.307 65.5102 143.488C62.0647 143.669 60.0699 140.77 60.0699 138.732V104.761Z" fill="#009DA9" fill-opacity="0.1"/>
<path d="M228.702 105.667H220.088C220.163 116.538 220.088 138.63 220.088 140.091C220.088 142.129 221.882 153 234.142 153C244.116 153 247.97 144.847 247.97 140.091V105.667H239.583L239.356 139.638C239.129 141.903 237.588 144.213 234.142 144.394C230.697 144.575 228.702 141.676 228.702 139.638V105.667Z" fill="#009DA9" fill-opacity="0.1"/>
<path d="M226.002 0.584146H217.388C217.464 11.4548 217.388 33.5472 217.388 35.0079C217.388 37.0462 219.183 47.9169 231.443 47.9169C241.417 47.9169 245.27 39.7638 245.27 35.0079V0.584146H236.883L236.656 34.555C236.43 36.8197 234.888 39.1297 231.443 39.3109C227.997 39.4921 226.002 36.5932 226.002 34.555V0.584146Z" fill="#009DA9" fill-opacity="0.1"/>
<path d="M312.732 53.1126H304.118C304.194 63.9833 304.118 86.0757 304.118 87.5364C304.118 89.5746 305.913 100.445 318.172 100.445C328.146 100.445 332 92.2923 332 87.5364V53.1126H323.613L323.386 87.0835C323.159 89.3482 321.618 91.6582 318.172 91.8394C314.727 92.0205 312.732 89.1217 312.732 87.0835V53.1126Z" fill="#009DA9" fill-opacity="0.1"/>
<path d="M237.564 99.8743L246.178 99.8743C246.102 89.0036 246.178 66.9112 246.178 65.4505C246.178 63.4122 244.383 52.5416 232.123 52.5416C222.149 52.5416 218.296 60.6946 218.296 65.4505L218.296 99.8743L226.683 99.8743L226.91 65.9034C227.136 63.6387 228.678 61.3287 232.123 61.1475C235.569 60.9663 237.564 63.8652 237.564 65.9034L237.564 99.8743Z" fill="#009DA9" fill-opacity="0.1"/>
<path d="M154.145 151.641L162.759 151.641C162.684 140.77 162.759 118.678 162.759 117.217C162.759 115.179 160.965 104.308 148.705 104.308C138.731 104.308 134.877 112.461 134.877 117.217L134.877 151.641L143.265 151.641L143.491 117.67C143.718 115.406 145.259 113.096 148.705 112.914C152.151 112.733 154.145 115.632 154.145 117.67L154.145 151.641Z" fill="#009DA9" fill-opacity="0.1"/>
<path d="M322.777 152.547L331.391 152.547C331.316 141.677 331.391 119.584 331.391 118.123C331.391 116.085 329.597 105.214 317.337 105.214C307.363 105.214 303.509 113.367 303.509 118.123L303.509 152.547L311.897 152.547L312.123 118.576C312.35 116.312 313.891 114.002 317.337 113.82C320.783 113.639 322.777 116.538 322.777 118.576L322.777 152.547Z" fill="#009DA9" fill-opacity="0.1"/>
<path d="M320.076 47.4638L328.689 47.4638C328.614 36.5931 328.689 14.5007 328.689 13.04C328.689 11.0017 326.895 0.13105 314.635 0.131049C304.661 0.131048 300.808 8.28405 300.808 13.04L300.808 47.4638L309.195 47.4638L309.421 13.4929C309.648 11.2282 311.19 8.91817 314.635 8.73699C318.081 8.55582 320.076 11.4547 320.076 13.4929L320.076 47.4638Z" fill="#009DA9" fill-opacity="0.1"/>
</svg>
