<svg width="20" height="21" viewBox="0 0 20 21" fill="none" xmlns="http://www.w3.org/2000/svg">
<g clip-path="url(#clip0_25_4092)">
<path d="M14.9997 7.5H11.9997V1.5H7.99974V7.5H4.99974L9.99974 12.5L14.9997 7.5ZM19.3377 14.032C19.1277 13.808 17.7267 12.309 17.3267 11.918C17.0464 11.6493 16.673 11.4995 16.2847 11.5H14.5277L17.5917 14.494H14.0477C13.9996 14.4931 13.952 14.5049 13.9099 14.5283C13.8678 14.5516 13.8325 14.5857 13.8077 14.627L12.9917 16.5H7.00774L6.19174 14.627C6.1668 14.5858 6.13154 14.5519 6.08944 14.5286C6.04734 14.5052 5.99987 14.4933 5.95174 14.494H2.40774L5.47074 11.5H3.71474C3.31774 11.5 2.93874 11.659 2.67274 11.918C2.27274 12.31 0.871737 13.809 0.661737 14.032C0.172737 14.553 -0.0962632 14.968 0.0317368 15.481L0.592737 18.555C0.720737 19.069 1.28374 19.491 1.84474 19.491H18.1567C18.7177 19.491 19.2807 19.069 19.4087 18.555L19.9697 15.481C20.0957 14.968 19.8277 14.553 19.3377 14.032Z" fill="white"/>
</g>
<defs>
<clipPath id="clip0_25_4092">
<rect width="20" height="20" fill="white" transform="translate(0 0.5)"/>
</clipPath>
</defs>
</svg>
