<svg width="22" height="21" viewBox="0 0 22 21" fill="none" xmlns="http://www.w3.org/2000/svg">
<path d="M7.98398 19.2733V16.2156C7.98398 15.4351 8.65492 14.8023 9.48256 14.8023H12.508C12.9055 14.8023 13.2866 14.9512 13.5677 15.2163C13.8487 15.4813 14.0066 15.8408 14.0066 16.2156V19.2733C14.0041 19.5978 14.139 19.9099 14.3814 20.1402C14.6239 20.3705 14.9537 20.5 15.2978 20.5H17.3619C18.3259 20.5024 19.2513 20.1428 19.9339 19.5008C20.6164 18.8588 21 17.987 21 17.0778V8.36686C21 7.63246 20.6548 6.93584 20.0575 6.46467L13.0358 1.17587C11.8144 0.248562 10.0643 0.278502 8.87936 1.24698L2.01791 6.46467C1.39236 6.92195 1.01848 7.62064 1 8.36686V17.0689C1 18.9639 2.62882 20.5 4.63808 20.5H6.65504C7.36971 20.5 7.95052 19.9562 7.9557 19.2822L7.98398 19.2733Z" stroke="#878787"/>
</svg>
