<svg width="20" height="21" viewBox="0 0 20 21" fill="none" xmlns="http://www.w3.org/2000/svg">
<path d="M6.98398 19.2733V16.2156C6.98398 15.4351 7.65492 14.8023 8.48256 14.8023H11.508C11.9055 14.8023 12.2866 14.9512 12.5677 15.2163C12.8487 15.4813 13.0066 15.8408 13.0066 16.2156V19.2733C13.0041 19.5978 13.139 19.9099 13.3814 20.1402C13.6239 20.3705 13.9537 20.5 14.2978 20.5H16.3619C17.3259 20.5023 18.2513 20.1428 18.9339 19.5008C19.6164 18.8588 20 17.987 20 17.0778V8.36686C20 7.63246 19.6548 6.93584 19.0575 6.46467L12.0358 1.17587C10.8144 0.248562 9.06433 0.278502 7.87936 1.24698L1.01791 6.46467C0.392359 6.92195 0.0184761 7.62064 0 8.36686V17.0689C0 18.9639 1.62882 20.5 3.63808 20.5H5.65504C6.36971 20.5 6.95052 19.9562 6.9557 19.2822L6.98398 19.2733Z" fill="#00ADAD"/>
</svg>
