<svg width="21" height="20" viewBox="0 0 21 20" fill="none" xmlns="http://www.w3.org/2000/svg">
<path d="M2.16602 7.49935C2.16602 5.92768 2.16602 5.14268 2.65435 4.65435C3.14268 4.16602 3.92768 4.16602 5.49935 4.16602H15.4993C17.071 4.16602 17.856 4.16602 18.3443 4.65435C18.8327 5.14268 18.8327 5.92768 18.8327 7.49935C18.8327 7.89185 18.8327 8.08852 18.711 8.21102C18.5885 8.33268 18.391 8.33268 17.9993 8.33268H2.99935C2.60685 8.33268 2.41018 8.33268 2.28768 8.21102C2.16602 8.08852 2.16602 7.89102 2.16602 7.49935ZM2.16602 14.9993C2.16602 16.571 2.16602 17.356 2.65435 17.8443C3.14268 18.3327 3.92768 18.3327 5.49935 18.3327H15.4993C17.071 18.3327 17.856 18.3327 18.3443 17.8443C18.8327 17.356 18.8327 16.571 18.8327 14.9993V10.8327C18.8327 10.4402 18.8327 10.2435 18.711 10.121C18.5885 9.99935 18.391 9.99935 17.9993 9.99935H2.99935C2.60685 9.99935 2.41018 9.99935 2.28768 10.121C2.16602 10.2435 2.16602 10.441 2.16602 10.8327V14.9993Z" fill="#00ADAD"/>
<path d="M6.33203 2.5V5M14.6654 2.5V5" stroke="#00ADAD" stroke-width="1.66667" stroke-linecap="round"/>
</svg>
