<svg width="74" height="72" viewBox="0 0 74 72" fill="none" xmlns="http://www.w3.org/2000/svg">
<circle cx="38.0004" cy="25" r="25" fill="#EBEBF9"/>
<path d="M46.037 49.3234V44.3409C46.037 43.647 45.5557 42.8155 44.9555 42.4717L72.9188 26.3301C73.519 26.6739 74.0004 27.5116 74.0004 28.1993V33.1881C74.0004 33.5694 73.8503 33.7945 73.6815 33.8882C64.3604 39.2709 55.0456 44.6535 45.7244 50.0298C45.962 49.8673 46.037 49.6047 46.037 49.3234Z" fill="#1F2855"/>
<path d="M72.919 26.3214L44.9556 42.463L42.6363 41.1251C41.9549 34.5109 41.2797 27.8968 40.6108 21.2826L52.4013 14.4746L72.919 26.3214Z" fill="#006B89"/>
<path d="M45.6066 50.0804C45.4003 50.1429 45.1378 50.0616 44.9565 49.9554L43.4499 49.0864C43.4061 48.6738 43.3623 48.2612 43.3248 47.8486C43.9625 48.2174 44.0875 48.3112 44.3188 48.3487C44.5126 48.3737 44.6939 48.3049 44.7252 48.2737C44.9002 48.1737 44.9752 47.9799 45.0065 47.7798C45.0315 47.6423 45.0253 47.8548 45.0253 44.9291C45.0253 44.2414 44.5439 43.4037 43.9437 43.0599L42.7622 42.3784C42.7184 41.9658 42.6747 41.5532 42.6371 41.1406L44.9565 42.4785C45.5504 42.8223 46.038 43.6538 46.038 44.3477V49.3302C46.038 49.6053 45.963 49.8741 45.7317 50.0241C45.7254 50.0304 45.6629 50.0616 45.6066 50.0804Z" fill="#134A6E"/>
<path d="M45.0055 47.7725C44.893 47.7287 44.9492 47.7537 43.2113 46.7535C43.0612 45.2968 42.9112 43.834 42.7612 42.3711L43.9427 43.0525C44.5429 43.3964 45.0242 44.2341 45.0242 44.9217C45.0242 47.7912 45.0305 47.6412 45.0055 47.7725Z" fill="#C5D1DD"/>
<path d="M44.7051 48.2734C44.455 48.4047 44.1862 48.3422 43.9424 48.1984L43.3235 47.8358C43.286 47.4732 43.2485 47.1106 43.2172 46.748C44.9427 47.742 44.8989 47.7295 45.0114 47.767C44.9802 47.9671 44.9052 48.1609 44.7301 48.2609C44.7176 48.2672 44.7114 48.2734 44.7051 48.2734Z" fill="#006B89"/>
<path d="M43.4492 49.0795C43.5055 49.6359 43.5617 50.1923 43.618 50.7487C43.643 50.98 43.5242 51.2801 43.1804 51.5301L38.8918 54.5622C38.2854 54.9873 37.3227 55.031 36.735 54.6934L33.9218 27.1302C33.9218 26.3925 33.9218 25.6486 33.9218 24.9109C33.9343 24.7108 33.7905 24.5296 33.6342 24.3983L33.6405 24.3858C34.2281 24.7234 35.1846 24.6796 35.7973 24.2545L40.0859 21.2225C40.4172 20.9849 40.5547 20.7036 40.5235 20.4473C40.5485 20.4473 41.7113 32.3815 43.4492 49.0795Z" fill="#EF926D"/>
<path d="M38.3534 21.0788C38.2972 21.0225 38.2284 20.9725 38.1596 20.935L38.0659 19.9785C38.5035 20.2286 38.6535 20.6787 38.3534 21.0788Z" fill="#F2AF3F"/>
<path d="M38.3533 21.0774C38.2032 21.2837 38.1907 21.2649 35.7839 22.9654C35.1837 23.3905 34.221 23.4405 33.6333 23.0967L15.56 12.6628C19.2422 10.0621 18.5545 10.5497 19.2797 10.0371C39.5973 21.7588 38.2595 20.9836 38.3533 21.0774Z" fill="#EDE4ED"/>
<path d="M38.1601 20.9347L19.2803 10.0382L18.7302 10.4258L18.5551 8.71289L38.0601 19.972L38.1601 20.9347Z" fill="#F2AF3F"/>
<path d="M33.9213 27.1309L36.7345 54.6941L33.9213 53.0687C33.9213 44.4227 33.9213 35.7831 33.9213 27.1309Z" fill="#FDB396"/>
<path d="M33.9219 57.2011C33.9219 57.3949 33.8031 57.6325 33.4718 57.8263L29.1582 60.3207C28.7331 60.5645 28.0579 60.6583 27.4453 60.4957C27.4453 49.8868 27.4453 39.2779 27.4453 28.6689C27.4453 28.5314 27.389 28.3876 27.3077 28.2813C27.2265 28.175 27.1139 28.0938 27.0014 28.0313C27.5953 28.3751 28.558 28.3751 29.1582 28.0313C33.8469 25.3243 33.6281 25.4806 33.7844 25.2868C33.8656 25.1805 33.9157 25.0493 33.9219 24.918C33.9219 34.3954 33.9219 40.5594 33.9219 57.2011Z" fill="#A52550"/>
<path d="M31.8902 24.7924C31.934 24.9675 31.8652 25.23 31.6152 25.4301C31.5152 25.3488 32.8217 26.1053 12.5729 14.4211L11.9477 14.7836V13.0332L31.4526 24.2923C31.6339 24.3986 31.834 24.5799 31.8902 24.7924Z" fill="#A52550"/>
<path d="M29.1577 26.861C28.5575 27.2048 27.5948 27.2048 27.0009 26.861L9.01508 16.4771C12.3659 14.5391 11.7533 14.8954 12.5785 14.4141C32.8149 26.0983 31.5208 25.3418 31.6208 25.4231C31.5083 25.5106 31.5645 25.4731 29.1577 26.861Z" fill="#EDE4ED"/>
<path d="M27.4385 28.6738C27.4385 38.095 27.4385 49.2603 27.4385 60.9445C27.4385 61.132 27.3197 61.3759 26.9946 61.5697L22.6748 64.064C22.0809 64.4079 21.1182 64.4141 20.518 64.064V31.7746C21.1182 32.1247 22.0809 32.1184 22.6748 31.7746L26.9946 29.2802C27.2135 29.1489 27.4385 28.9301 27.4385 28.6738Z" fill="#499E9E"/>
<path d="M25.4069 28.5307C25.4506 28.712 25.3693 28.9871 25.1318 29.1684C25.0318 29.0871 26.3383 29.8435 6.08945 18.1593L5.46429 18.5219V16.7715L24.9692 28.0306C25.1568 28.1369 25.3568 28.3244 25.4069 28.5307Z" fill="#499E9E"/>
<path d="M25.1388 29.1696C25.0387 29.2571 25.1138 29.2008 22.6819 30.6075C22.088 30.9513 21.1253 30.9513 20.5251 30.6075L2.52679 20.2173C5.87764 18.2793 5.27124 18.6357 6.09645 18.1543C26.3328 29.8385 25.0387 29.0821 25.1388 29.1696Z" fill="#EDE4ED"/>
<path d="M20.5181 31.7686V64.0581L0.000427246 52.2176V19.9219L20.5181 31.7686Z" fill="#6DC2C2"/>
<path d="M38.0598 19.9718L18.5549 8.71268L19.5614 8L40.0728 19.8467C40.623 20.1593 40.7168 20.7782 40.0791 21.2284L35.7905 24.2604C35.1841 24.6855 34.2214 24.7355 33.6337 24.3917L33.6275 24.4042C33.5149 24.3104 34.9465 25.1481 13.1285 12.5449L14.1288 11.8385C16.2043 13.0388 13.2285 11.3196 33.6337 23.0976C34.2214 23.4352 35.1841 23.3851 35.7843 22.9663L38.0661 21.3534C38.6912 20.9095 38.6225 20.2906 38.0598 19.9718Z" fill="#F1D859"/>
<path d="M25.4194 28.6551C25.4381 28.3988 25.1943 28.1612 24.9755 28.03L5.47056 16.7708L6.48332 16.1895C28.4014 28.8427 27.1448 28.08 27.3073 28.2863C27.5949 28.6739 27.4074 29.0427 27.001 29.2803L22.6812 31.7746C22.0873 32.1185 21.1245 32.1247 20.5244 31.7746L0.000427246 19.9216L1.01318 19.3402C2.81989 20.3843 -1.11861 18.1087 20.5181 30.5994C21.1183 30.9432 22.081 30.9432 22.6749 30.5994C25.1005 29.199 25.113 29.2178 25.2756 29.0177C25.3569 28.9177 25.4131 28.7864 25.4194 28.6551Z" fill="#6CC3C8"/>
<path d="M33.6345 24.3968C33.7907 24.5218 33.9345 24.7031 33.922 24.9094C33.9095 25.1907 33.722 25.3908 33.4719 25.5346L29.1583 28.029C28.5582 28.3728 27.5954 28.3728 27.0015 28.029L6.48383 16.1885L7.49658 15.6008C19.9998 22.8339 26.9578 26.8411 27.0015 26.8599C27.5954 27.2037 28.5582 27.2037 29.1583 26.8599C31.4276 25.5471 31.5089 25.5096 31.6152 25.422C31.7777 25.2908 31.8903 25.1157 31.8965 24.9094C31.9153 24.6531 31.6715 24.4155 31.4527 24.2843L11.9477 13.0252L12.9605 12.4375C12.9855 12.4563 33.5094 24.2968 33.6345 24.3968Z" fill="#D7406C"/>
<path d="M49.3261 21.0778L62.2294 28.5297C62.7608 28.836 63.6172 28.836 64.1424 28.5297L64.78 28.1608C65.3114 27.8545 65.3114 27.3606 64.78 27.0543L51.883 19.6087C51.3516 19.3023 50.4952 19.3023 49.97 19.6087L49.3324 19.9775C48.801 20.2776 48.801 20.7714 49.3261 21.0778Z" fill="#1F2855"/>
<path d="M16.7049 36.8234L3.80165 29.3716C3.27026 29.0652 2.84515 29.2465 2.84515 29.7779V30.4156C2.84515 30.947 3.27651 31.6221 3.80165 31.9285L16.7049 39.3803C17.2363 39.6867 17.6614 39.5054 17.6614 38.974V38.3363C17.6614 37.8049 17.2363 37.1298 16.7049 36.8234Z" fill="#51AAAD"/>
<path d="M16.7049 41.3391L3.80165 33.8872C3.27026 33.5809 2.84515 33.7621 2.84515 34.2935V34.9312C2.84515 35.4626 3.27651 36.1378 3.80165 36.4441L16.7049 43.896C17.2363 44.2023 17.6614 44.021 17.6614 43.4896V42.852C17.6614 42.3206 17.2363 41.6391 16.7049 41.3391Z" fill="#51AAAD"/>
</svg>
