<svg width="74" height="98" viewBox="0 0 74 98" fill="none" xmlns="http://www.w3.org/2000/svg">
<circle cx="38.0004" cy="25" r="25" fill="#EBEBF9"/>
<path d="M46.037 49.3234V44.3409C46.037 43.647 45.5557 42.8155 44.9555 42.4717L72.9188 26.3301C73.519 26.6739 74.0004 27.5116 74.0004 28.1993V33.1881C74.0004 33.5694 73.8503 33.7945 73.6815 33.8882C64.3604 39.2709 55.0456 44.6535 45.7244 50.0298C45.962 49.8673 46.037 49.6047 46.037 49.3234Z" fill="#1F2855"/>
<path d="M72.919 26.3214L44.9556 42.463L42.6363 41.1251C41.9549 34.5109 41.2797 27.8968 40.6108 21.2826L52.4013 14.4746L72.919 26.3214Z" fill="#006B89"/>
<path d="M45.6066 50.0804C45.4003 50.1429 45.1378 50.0616 44.9565 49.9554L43.4499 49.0864C43.4061 48.6738 43.3623 48.2612 43.3248 47.8486C43.9625 48.2174 44.0875 48.3112 44.3188 48.3487C44.5126 48.3737 44.6939 48.3049 44.7252 48.2737C44.9002 48.1737 44.9752 47.9799 45.0065 47.7798C45.0315 47.6423 45.0253 47.8548 45.0253 44.9291C45.0253 44.2414 44.5439 43.4037 43.9437 43.0599L42.7622 42.3784C42.7184 41.9658 42.6747 41.5532 42.6371 41.1406L44.9565 42.4785C45.5504 42.8223 46.038 43.6538 46.038 44.3477V49.3302C46.038 49.6053 45.963 49.8741 45.7317 50.0241C45.7254 50.0304 45.6629 50.0616 45.6066 50.0804Z" fill="#134A6E"/>
<path d="M45.0055 47.7725C44.893 47.7287 44.9492 47.7537 43.2113 46.7535C43.0612 45.2968 42.9112 43.834 42.7612 42.3711L43.9427 43.0525C44.5429 43.3964 45.0242 44.2341 45.0242 44.9217C45.0242 47.7912 45.0305 47.6412 45.0055 47.7725Z" fill="#C5D1DD"/>
<path d="M44.7051 48.2734C44.455 48.4047 44.1862 48.3422 43.9424 48.1984L43.3235 47.8358C43.286 47.4732 43.2485 47.1106 43.2172 46.748C44.9427 47.742 44.8989 47.7295 45.0114 47.767C44.9802 47.9671 44.9052 48.1609 44.7301 48.2609C44.7176 48.2672 44.7114 48.2734 44.7051 48.2734Z" fill="#006B89"/>
<path d="M43.4492 49.0795C43.5055 49.6359 43.5617 50.1923 43.618 50.7487C43.643 50.98 43.5242 51.2801 43.1804 51.5301L38.8918 54.5622C38.2854 54.9873 37.3227 55.031 36.735 54.6934L33.9218 27.1302C33.9218 26.3925 33.9218 25.6486 33.9218 24.9109C33.9343 24.7108 33.7905 24.5296 33.6342 24.3983L33.6405 24.3858C34.2281 24.7234 35.1846 24.6796 35.7973 24.2545L40.0859 21.2225C40.4172 20.9849 40.5547 20.7036 40.5235 20.4473C40.5485 20.4473 41.7113 32.3815 43.4492 49.0795Z" fill="#EF926D"/>
<path d="M38.3534 21.0788C38.2972 21.0225 38.2284 20.9725 38.1596 20.935L38.0659 19.9785C38.5035 20.2286 38.6535 20.6787 38.3534 21.0788Z" fill="#F2AF3F"/>
<path d="M38.3533 21.0774C38.2032 21.2837 38.1907 21.2649 35.7839 22.9654C35.1837 23.3905 34.221 23.4405 33.6333 23.0967L15.56 12.6628C19.2422 10.0621 18.5545 10.5497 19.2797 10.0371C39.5973 21.7588 38.2595 20.9836 38.3533 21.0774Z" fill="#EDE4ED"/>
<path d="M38.1601 20.9347L19.2803 10.0382L18.7302 10.4258L18.5551 8.71289L38.0601 19.972L38.1601 20.9347Z" fill="#F2AF3F"/>
<path d="M33.9213 27.1309L36.7345 54.6941L33.9213 53.0687C33.9213 44.4227 33.9213 35.7831 33.9213 27.1309Z" fill="#FDB396"/>
<path d="M33.9219 57.2011C33.9219 57.3949 33.8031 57.6325 33.4718 57.8263L29.1582 60.3207C28.7331 60.5645 28.0579 60.6583 27.4453 60.4957C27.4453 49.8868 27.4453 39.2779 27.4453 28.6689C27.4453 28.5314 27.389 28.3876 27.3077 28.2813C27.2265 28.175 27.1139 28.0938 27.0014 28.0313C27.5953 28.3751 28.558 28.3751 29.1582 28.0313C33.8469 25.3243 33.6281 25.4806 33.7844 25.2868C33.8656 25.1805 33.9157 25.0493 33.9219 24.918C33.9219 34.3954 33.9219 40.5594 33.9219 57.2011Z" fill="#A52550"/>
<path d="M31.8902 24.7924C31.934 24.9675 31.8652 25.23 31.6152 25.4301C31.5152 25.3488 32.8217 26.1053 12.5729 14.4211L11.9477 14.7836V13.0332L31.4526 24.2923C31.6339 24.3986 31.834 24.5799 31.8902 24.7924Z" fill="#A52550"/>
<path d="M29.1577 26.861C28.5575 27.2048 27.5948 27.2048 27.0009 26.861L9.01508 16.4771C12.3659 14.5391 11.7533 14.8954 12.5785 14.4141C32.8149 26.0983 31.5208 25.3418 31.6208 25.4231C31.5083 25.5106 31.5645 25.4731 29.1577 26.861Z" fill="#EDE4ED"/>
<path d="M27.4385 28.6738C27.4385 38.095 27.4385 49.2603 27.4385 60.9445C27.4385 61.132 27.3197 61.3759 26.9946 61.5697L22.6748 64.064C22.0809 64.4079 21.1182 64.4141 20.518 64.064V31.7746C21.1182 32.1247 22.0809 32.1184 22.6748 31.7746L26.9946 29.2802C27.2135 29.1489 27.4385 28.9301 27.4385 28.6738Z" fill="#499E9E"/>
<path d="M25.4069 28.5307C25.4506 28.712 25.3693 28.9871 25.1318 29.1684C25.0318 29.0871 26.3383 29.8435 6.08945 18.1593L5.46429 18.5219V16.7715L24.9692 28.0306C25.1568 28.1369 25.3568 28.3244 25.4069 28.5307Z" fill="#499E9E"/>
<path d="M25.1388 29.1696C25.0387 29.2571 25.1138 29.2008 22.6819 30.6075C22.088 30.9513 21.1253 30.9513 20.5251 30.6075L2.52679 20.2173C5.87764 18.2793 5.27124 18.6357 6.09645 18.1543C26.3328 29.8385 25.0387 29.0821 25.1388 29.1696Z" fill="#EDE4ED"/>
<path d="M20.5181 31.7686V64.0581L0.000427246 52.2176V19.9219L20.5181 31.7686Z" fill="#6DC2C2"/>
<path d="M38.0598 19.9718L18.5549 8.71268L19.5614 8L40.0728 19.8467C40.623 20.1593 40.7168 20.7782 40.0791 21.2284L35.7905 24.2604C35.1841 24.6855 34.2214 24.7355 33.6337 24.3917L33.6275 24.4042C33.5149 24.3104 34.9465 25.1481 13.1285 12.5449L14.1288 11.8385C16.2043 13.0388 13.2285 11.3196 33.6337 23.0976C34.2214 23.4352 35.1841 23.3851 35.7843 22.9663L38.0661 21.3534C38.6912 20.9095 38.6225 20.2906 38.0598 19.9718Z" fill="#F1D859"/>
<path d="M25.4194 28.6551C25.4381 28.3988 25.1943 28.1612 24.9755 28.03L5.47056 16.7708L6.48332 16.1895C28.4014 28.8427 27.1448 28.08 27.3073 28.2863C27.5949 28.6739 27.4074 29.0427 27.001 29.2803L22.6812 31.7746C22.0873 32.1185 21.1245 32.1247 20.5244 31.7746L0.000427246 19.9216L1.01318 19.3402C2.81989 20.3843 -1.11861 18.1087 20.5181 30.5994C21.1183 30.9432 22.081 30.9432 22.6749 30.5994C25.1005 29.199 25.113 29.2178 25.2756 29.0177C25.3569 28.9177 25.4131 28.7864 25.4194 28.6551Z" fill="#6CC3C8"/>
<path d="M33.6345 24.3968C33.7907 24.5218 33.9345 24.7031 33.922 24.9094C33.9095 25.1907 33.722 25.3908 33.4719 25.5346L29.1583 28.029C28.5582 28.3728 27.5954 28.3728 27.0015 28.029L6.48383 16.1885L7.49658 15.6008C19.9998 22.8339 26.9578 26.8411 27.0015 26.8599C27.5954 27.2037 28.5582 27.2037 29.1583 26.8599C31.4276 25.5471 31.5089 25.5096 31.6152 25.422C31.7777 25.2908 31.8903 25.1157 31.8965 24.9094C31.9153 24.6531 31.6715 24.4155 31.4527 24.2843L11.9477 13.0252L12.9605 12.4375C12.9855 12.4563 33.5094 24.2968 33.6345 24.3968Z" fill="#D7406C"/>
<path d="M49.3261 21.0778L62.2294 28.5297C62.7608 28.836 63.6172 28.836 64.1424 28.5297L64.78 28.1608C65.3114 27.8545 65.3114 27.3606 64.78 27.0543L51.883 19.6087C51.3516 19.3023 50.4952 19.3023 49.97 19.6087L49.3324 19.9775C48.801 20.2776 48.801 20.7714 49.3261 21.0778Z" fill="#1F2855"/>
<path d="M16.7049 36.8234L3.80165 29.3716C3.27026 29.0652 2.84515 29.2465 2.84515 29.7779V30.4156C2.84515 30.947 3.27651 31.6221 3.80165 31.9285L16.7049 39.3803C17.2363 39.6867 17.6614 39.5054 17.6614 38.974V38.3363C17.6614 37.8049 17.2363 37.1298 16.7049 36.8234Z" fill="#51AAAD"/>
<path d="M16.7049 41.3391L3.80165 33.8872C3.27026 33.5809 2.84515 33.7621 2.84515 34.2935V34.9312C2.84515 35.4626 3.27651 36.1378 3.80165 36.4441L16.7049 43.896C17.2363 44.2023 17.6614 44.021 17.6614 43.4896V42.852C17.6614 42.3206 17.2363 41.6391 16.7049 41.3391Z" fill="#51AAAD"/>
<path d="M19.6361 85.384V94H18.5201V87.868C18.5201 87.776 18.5221 87.678 18.5261 87.574C18.5341 87.47 18.5421 87.364 18.5501 87.256L15.6821 92.518C15.5821 92.714 15.4281 92.812 15.2201 92.812H15.0401C14.8321 92.812 14.6801 92.714 14.5841 92.518L11.6621 87.238C11.6861 87.462 11.6981 87.672 11.6981 87.868V94H10.5761V85.384H11.5241C11.6361 85.384 11.7221 85.396 11.7821 85.42C11.8461 85.44 11.9061 85.5 11.9621 85.6L14.8421 90.76C14.8981 90.864 14.9501 90.974 14.9981 91.09C15.0461 91.206 15.0921 91.322 15.1361 91.438C15.2201 91.202 15.3181 90.974 15.4301 90.754L18.2561 85.6C18.3081 85.5 18.3641 85.44 18.4241 85.42C18.4881 85.396 18.5761 85.384 18.6881 85.384H19.6361ZM23.938 87.808C24.386 87.808 24.79 87.882 25.15 88.03C25.514 88.174 25.822 88.384 26.074 88.66C26.33 88.932 26.526 89.262 26.662 89.65C26.798 90.034 26.866 90.466 26.866 90.946C26.866 91.426 26.798 91.86 26.662 92.248C26.526 92.636 26.33 92.966 26.074 93.238C25.822 93.51 25.514 93.72 25.15 93.868C24.79 94.012 24.386 94.084 23.938 94.084C23.486 94.084 23.078 94.012 22.714 93.868C22.354 93.72 22.046 93.51 21.79 93.238C21.534 92.966 21.336 92.636 21.196 92.248C21.06 91.86 20.992 91.426 20.992 90.946C20.992 90.466 21.06 90.034 21.196 89.65C21.336 89.262 21.534 88.932 21.79 88.66C22.046 88.384 22.354 88.174 22.714 88.03C23.078 87.882 23.486 87.808 23.938 87.808ZM23.938 93.172C24.514 93.172 24.944 92.978 25.228 92.59C25.512 92.202 25.654 91.656 25.654 90.952C25.654 90.248 25.512 89.702 25.228 89.314C24.944 88.922 24.514 88.726 23.938 88.726C23.354 88.726 22.918 88.922 22.63 89.314C22.346 89.702 22.204 90.248 22.204 90.952C22.204 91.656 22.346 92.202 22.63 92.59C22.918 92.978 23.354 93.172 23.938 93.172ZM29.27 88.75C29.402 88.61 29.54 88.482 29.684 88.366C29.828 88.25 29.98 88.152 30.14 88.072C30.304 87.988 30.478 87.924 30.662 87.88C30.85 87.832 31.05 87.808 31.262 87.808C31.598 87.808 31.892 87.864 32.144 87.976C32.4 88.088 32.614 88.246 32.786 88.45C32.958 88.65 33.088 88.892 33.176 89.176C33.264 89.46 33.308 89.774 33.308 90.118V94H32.132V90.118C32.132 89.682 32.032 89.344 31.832 89.104C31.632 88.86 31.326 88.738 30.914 88.738C30.614 88.738 30.332 88.81 30.068 88.954C29.808 89.094 29.566 89.286 29.342 89.53V94H28.172V87.904H28.874C29.038 87.904 29.14 87.982 29.18 88.138L29.27 88.75ZM37.4849 87.808C37.9329 87.808 38.3369 87.882 38.6969 88.03C39.0609 88.174 39.3689 88.384 39.6209 88.66C39.8769 88.932 40.0729 89.262 40.2089 89.65C40.3449 90.034 40.4129 90.466 40.4129 90.946C40.4129 91.426 40.3449 91.86 40.2089 92.248C40.0729 92.636 39.8769 92.966 39.6209 93.238C39.3689 93.51 39.0609 93.72 38.6969 93.868C38.3369 94.012 37.9329 94.084 37.4849 94.084C37.0329 94.084 36.6249 94.012 36.2609 93.868C35.9009 93.72 35.5929 93.51 35.3369 93.238C35.0809 92.966 34.8829 92.636 34.7429 92.248C34.6069 91.86 34.5389 91.426 34.5389 90.946C34.5389 90.466 34.6069 90.034 34.7429 89.65C34.8829 89.262 35.0809 88.932 35.3369 88.66C35.5929 88.384 35.9009 88.174 36.2609 88.03C36.6249 87.882 37.0329 87.808 37.4849 87.808ZM37.4849 93.172C38.0609 93.172 38.4909 92.978 38.7749 92.59C39.0589 92.202 39.2009 91.656 39.2009 90.952C39.2009 90.248 39.0589 89.702 38.7749 89.314C38.4909 88.922 38.0609 88.726 37.4849 88.726C36.9009 88.726 36.4649 88.922 36.1769 89.314C35.8929 89.702 35.7509 90.248 35.7509 90.952C35.7509 91.656 35.8929 92.202 36.1769 92.59C36.4649 92.978 36.9009 93.172 37.4849 93.172ZM43.8258 90.958C44.0338 90.958 44.2158 90.93 44.3718 90.874C44.5318 90.818 44.6638 90.74 44.7678 90.64C44.8758 90.536 44.9558 90.412 45.0078 90.268C45.0638 90.124 45.0918 89.966 45.0918 89.794C45.0918 89.442 44.9838 89.162 44.7678 88.954C44.5558 88.742 44.2418 88.636 43.8258 88.636C43.4138 88.636 43.0998 88.742 42.8838 88.954C42.6718 89.162 42.5658 89.442 42.5658 89.794C42.5658 89.966 42.5918 90.124 42.6438 90.268C42.6998 90.408 42.7798 90.53 42.8838 90.634C42.9918 90.734 43.1238 90.814 43.2798 90.874C43.4398 90.93 43.6218 90.958 43.8258 90.958ZM45.6918 94.318C45.6918 94.174 45.6518 94.06 45.5718 93.976C45.4918 93.888 45.3818 93.82 45.2418 93.772C45.1058 93.72 44.9458 93.684 44.7618 93.664C44.5778 93.64 44.3838 93.622 44.1798 93.61C43.9798 93.598 43.7738 93.588 43.5618 93.58C43.3498 93.568 43.1458 93.548 42.9498 93.52C42.7418 93.624 42.5698 93.75 42.4338 93.898C42.3018 94.046 42.2358 94.22 42.2358 94.42C42.2358 94.548 42.2678 94.668 42.3318 94.78C42.3998 94.892 42.5018 94.988 42.6378 95.068C42.7778 95.152 42.9518 95.216 43.1598 95.26C43.3718 95.308 43.6238 95.332 43.9158 95.332C44.2038 95.332 44.4578 95.306 44.6778 95.254C44.8978 95.206 45.0818 95.136 45.2298 95.044C45.3818 94.956 45.4958 94.85 45.5718 94.726C45.6518 94.602 45.6918 94.466 45.6918 94.318ZM46.8798 88.132V88.57C46.8798 88.714 46.7898 88.804 46.6098 88.84L45.9558 88.936C46.0118 89.06 46.0558 89.192 46.0878 89.332C46.1198 89.468 46.1358 89.612 46.1358 89.764C46.1358 90.064 46.0778 90.336 45.9618 90.58C45.8458 90.82 45.6858 91.026 45.4818 91.198C45.2778 91.37 45.0338 91.502 44.7498 91.594C44.4698 91.686 44.1618 91.732 43.8258 91.732C43.5498 91.732 43.2918 91.702 43.0518 91.642C42.9318 91.714 42.8398 91.794 42.7758 91.882C42.7158 91.966 42.6858 92.05 42.6858 92.134C42.6858 92.274 42.7438 92.378 42.8598 92.446C42.9798 92.514 43.1338 92.564 43.3218 92.596C43.5138 92.624 43.7318 92.642 43.9758 92.65C44.2238 92.658 44.4738 92.672 44.7258 92.692C44.9818 92.708 45.2318 92.74 45.4758 92.788C45.7238 92.832 45.9418 92.906 46.1298 93.01C46.3218 93.11 46.4758 93.25 46.5918 93.43C46.7118 93.606 46.7718 93.836 46.7718 94.12C46.7718 94.384 46.7058 94.64 46.5738 94.888C46.4458 95.136 46.2578 95.356 46.0098 95.548C45.7618 95.74 45.4598 95.894 45.1038 96.01C44.7478 96.126 44.3438 96.184 43.8918 96.184C43.4398 96.184 43.0458 96.14 42.7098 96.052C42.3778 95.964 42.0998 95.846 41.8758 95.698C41.6558 95.55 41.4898 95.378 41.3778 95.182C41.2698 94.986 41.2158 94.782 41.2158 94.57C41.2158 94.274 41.3078 94.024 41.4918 93.82C41.6758 93.612 41.9298 93.45 42.2538 93.334C42.0778 93.254 41.9378 93.146 41.8338 93.01C41.7298 92.87 41.6778 92.686 41.6778 92.458C41.6778 92.37 41.6938 92.28 41.7258 92.188C41.7578 92.092 41.8058 91.998 41.8698 91.906C41.9378 91.81 42.0198 91.72 42.1158 91.636C42.2158 91.552 42.3298 91.476 42.4578 91.408C42.1578 91.24 41.9218 91.018 41.7498 90.742C41.5778 90.462 41.4918 90.136 41.4918 89.764C41.4918 89.464 41.5498 89.194 41.6658 88.954C41.7818 88.714 41.9418 88.508 42.1458 88.336C42.3538 88.164 42.5998 88.032 42.8838 87.94C43.1718 87.848 43.4858 87.802 43.8258 87.802C44.3538 87.802 44.8078 87.912 45.1878 88.132H46.8798ZM49.0573 89.074C49.2533 88.674 49.4893 88.36 49.7653 88.132C50.0413 87.904 50.3733 87.79 50.7613 87.79C50.8933 87.79 51.0173 87.806 51.1333 87.838C51.2533 87.866 51.3573 87.91 51.4453 87.97L51.3673 88.852C51.3393 88.96 51.2733 89.014 51.1693 89.014C51.1133 89.014 51.0293 89.004 50.9173 88.984C50.8053 88.96 50.6853 88.948 50.5573 88.948C50.3693 88.948 50.2033 88.976 50.0593 89.032C49.9153 89.084 49.7853 89.164 49.6693 89.272C49.5573 89.376 49.4573 89.506 49.3693 89.662C49.2813 89.814 49.1993 89.988 49.1233 90.184V94H47.9533V87.904H48.6253C48.7533 87.904 48.8393 87.928 48.8833 87.976C48.9313 88.02 48.9653 88.1 48.9853 88.216L49.0573 89.074ZM55.5301 91.294C55.0541 91.31 54.6501 91.348 54.3181 91.408C53.9861 91.464 53.7161 91.54 53.5081 91.636C53.3001 91.732 53.1501 91.846 53.0581 91.978C52.9661 92.106 52.9201 92.25 52.9201 92.41C52.9201 92.562 52.9441 92.694 52.9921 92.806C53.0441 92.914 53.1121 93.004 53.1961 93.076C53.2841 93.144 53.3861 93.194 53.5021 93.226C53.6181 93.258 53.7441 93.274 53.8801 93.274C54.0601 93.274 54.2241 93.256 54.3721 93.22C54.5241 93.184 54.6661 93.134 54.7981 93.07C54.9301 93.002 55.0561 92.92 55.1761 92.824C55.2961 92.728 55.4141 92.618 55.5301 92.494V91.294ZM52.0981 88.756C52.4381 88.432 52.8061 88.19 53.2021 88.03C53.6021 87.87 54.0401 87.79 54.5161 87.79C54.8641 87.79 55.1721 87.848 55.4401 87.964C55.7081 88.076 55.9341 88.234 56.1181 88.438C56.3021 88.642 56.4401 88.886 56.5321 89.17C56.6281 89.454 56.6761 89.768 56.6761 90.112V94H56.1541C56.0381 94 55.9501 93.982 55.8901 93.946C55.8301 93.906 55.7821 93.834 55.7461 93.73L55.6201 93.196C55.4641 93.34 55.3101 93.468 55.1581 93.58C55.0061 93.688 54.8461 93.782 54.6781 93.862C54.5141 93.938 54.3381 93.996 54.1501 94.036C53.9621 94.076 53.7541 94.096 53.5261 94.096C53.2861 94.096 53.0601 94.064 52.8481 94C52.6401 93.932 52.4581 93.83 52.3021 93.694C52.1461 93.558 52.0221 93.388 51.9301 93.184C51.8421 92.98 51.7981 92.742 51.7981 92.47C51.7981 92.23 51.8621 92 51.9901 91.78C52.1221 91.556 52.3341 91.356 52.6261 91.18C52.9221 91.004 53.3061 90.86 53.7781 90.748C54.2541 90.636 54.8381 90.572 55.5301 90.556V90.112C55.5301 89.652 55.4321 89.308 55.2361 89.08C55.0401 88.852 54.7521 88.738 54.3721 88.738C54.1161 88.738 53.9001 88.77 53.7241 88.834C53.5521 88.898 53.4021 88.97 53.2741 89.05C53.1501 89.126 53.0401 89.196 52.9441 89.26C52.8521 89.324 52.7561 89.356 52.6561 89.356C52.5761 89.356 52.5061 89.334 52.4461 89.29C52.3901 89.246 52.3441 89.194 52.3081 89.134L52.0981 88.756ZM58.5566 94V88.864L57.9206 88.786C57.8286 88.766 57.7526 88.734 57.6926 88.69C57.6366 88.642 57.6086 88.574 57.6086 88.486V88H58.5566V87.706C58.5566 87.334 58.6146 86.992 58.7306 86.68C58.8506 86.364 59.0286 86.092 59.2646 85.864C59.5046 85.636 59.8006 85.46 60.1526 85.336C60.5086 85.208 60.9246 85.144 61.4006 85.144C61.5526 85.144 61.7126 85.154 61.8806 85.174C62.0486 85.194 62.1906 85.224 62.3066 85.264L62.2646 85.876C62.2566 85.956 62.2066 85.998 62.1146 86.002C62.0226 86.006 61.8946 86.008 61.7306 86.008C61.3666 86.008 61.0566 86.044 60.8006 86.116C60.5446 86.188 60.3346 86.296 60.1706 86.44C60.0066 86.584 59.8866 86.766 59.8106 86.986C59.7346 87.202 59.6966 87.454 59.6966 87.742V88H63.4046V94H62.2286V88.852H59.7326V94H58.5566Z" fill="black"/>
</svg>
