<svg width="75" height="72" viewBox="0 0 75 72" fill="none" xmlns="http://www.w3.org/2000/svg">
<circle cx="37" cy="25" r="25" fill="#EBEBF9"/>
<path d="M74.5 39.9032L70.8404 36.9326L22.3181 42.6629V17.0864L11.5151 10.8506C9.78255 9.85189 6.97523 9.85189 5.2549 10.8506L4.43889 11.3256C3.58025 11.8249 3.15397 12.4765 3.15397 13.1312C3.15397 13.1281 3.15397 13.1281 3.15397 13.1251C3.05654 49.3585 2.49629 48.9231 4.36581 50.0009L27.3086 63.2459C27.8262 62.9445 32.6066 60.1676 33.2247 59.8083L37.4356 57.3633L44 60.5C44.8982 61.045 46.3404 60.6804 69.003 47.5968L69 47L68 45.5L74.5 40.5V39.9032Z" fill="#BBC0C9"/>
<path d="M45.2184 58.2675L14.7518 40.5619L35.7916 28.4161L66.2581 46.1187L45.2184 58.2675Z" fill="#283032"/>
<mask id="mask0_76_6213" style="mask-type:luminance" maskUnits="userSpaceOnUse" x="13" y="40" width="33" height="19">
<path d="M44.0455 58.3808L13.579 40.6752C13.8774 40.8487 14.2945 40.8244 14.7482 40.5625L45.2178 58.2682C44.761 58.53 44.3439 58.5544 44.0455 58.3808Z" fill="white"/>
</mask>
<g mask="url(#mask0_76_6213)">
<path d="M44.0455 58.3808L13.579 40.6752C13.8774 40.8487 14.2945 40.8244 14.7482 40.5625L45.2178 58.2682C44.761 58.53 44.3439 58.5544 44.0455 58.3808Z" fill="#283032"/>
</g>
<path d="M45.2196 58.268L66.2594 46.1192V46.719L45.2196 58.8648V58.268Z" fill="#071113"/>
<path d="M64.0309 40.7227L64.0248 42.985L64.0218 43.259L64.0187 44.3186V44.5926L64.0157 45.6096V45.8836L64.0126 46.3404L43.3535 58.3674L43.3687 52.7497L64.0309 40.7227Z" fill="#EFD2B8"/>
<path d="M43.3684 52.7509L43.3531 58.3686L17.4082 43.3911L17.4265 37.7734L43.3684 52.7509Z" fill="#867567"/>
<path d="M64.0309 40.7216L43.3687 52.7487L17.4268 37.7712L38.086 25.7441L64.0309 40.7216Z" fill="#AA9683"/>
<path d="M43.5658 57.3291L43.5597 55.6118C43.5567 54.5675 44.2935 53.2947 45.2009 52.768L66.2406 40.6222L66.2376 40.0254L45.1979 52.1712C44.0043 52.8593 43.036 54.537 43.0391 55.9102L43.0452 57.6275C43.0482 59.0007 44.0225 59.5549 45.2192 58.8668L45.2161 58.27C44.3118 58.7937 43.5689 58.3705 43.5658 57.3291Z" fill="#071113"/>
<path d="M45.1989 52.1737L14.7324 34.4681L35.7721 22.3223L66.2386 40.0249L45.1989 52.1737Z" fill="#283032"/>
<path d="M66.2386 40.0291L63.3613 41.6916L46.0484 51.6877L45.1989 52.1779L35.1114 46.3167L32.3924 44.7364L14.7324 34.4723L32.2036 24.3848C34.3959 24.5827 36.5912 24.1625 38.7835 24.0742L53.901 32.8585L57.8775 35.1696L66.2386 40.0291Z" fill="#283032"/>
<path d="M43.0408 55.9106L43.0469 57.6279C43.05 58.3099 43.2905 58.791 43.6803 59.0163L18.2956 44.2642L17.3304 43.7009L17.1994 43.6248L16.3438 43.1285L15.7166 42.7631L15.202 42.4647L13.2107 41.3077C12.821 41.0823 12.5804 40.6013 12.5774 39.9192L12.5713 38.2019C12.5683 36.8287 13.5365 35.151 14.7301 34.4629L17.3486 35.9853L17.9332 36.3263L18.2316 36.4999L18.8619 36.8653L19.4374 37.2002L20.3265 37.7178L45.1966 52.1716C44.0061 52.8597 43.0348 54.5374 43.0408 55.9106Z" fill="#071113"/>
<path d="M12.5742 38.2058C12.5712 36.8326 13.5394 35.1549 14.733 34.4668L17.3516 35.9892L18.2346 36.5038L19.4403 37.2041L20.3294 37.7217L45.1995 52.1755C44.0059 52.8636 43.0377 54.5413 43.0407 55.9145L12.5742 38.2058Z" fill="#1B2224"/>
<path d="M24.4814 35.5057L24.859 35.2895L25.7024 35.7767L26.3784 35.387L25.535 34.8998L25.9125 34.6836L27.8825 35.8224L27.505 36.0386L26.7255 35.5879L26.0495 35.9777L26.829 36.4283L26.4514 36.6445L24.4814 35.5057Z" fill="#FFC641"/>
<path d="M26.9417 34.0684C27.4076 33.8005 27.8217 33.6634 28.7442 34.1963C29.6151 34.6987 29.4202 34.9392 28.9361 35.2193C28.4519 35.4995 28.0561 35.6273 27.1609 35.1097C26.2383 34.5769 26.488 34.3303 26.9417 34.0684ZM28.589 35.0184C28.9056 34.8357 28.8965 34.72 28.3667 34.4125C27.7516 34.0593 27.5872 34.0928 27.2888 34.2663C26.9965 34.4338 26.9113 34.5282 27.5385 34.8905C28.0744 35.2041 28.251 35.2132 28.589 35.0184Z" fill="#FFC641"/>
<path d="M27.998 33.474L28.3756 33.2578L29.8584 34.1134C30.0015 34.1956 30.0868 34.1439 30.166 34.0982L30.8419 33.7084L31.189 33.9094L30.3791 34.3753C30.1629 34.5001 29.8889 34.5671 29.5844 34.3905L27.998 33.474Z" fill="#FFC641"/>
<path d="M29.5448 32.5784L30.8754 32.9011L30.3517 32.1125L30.7628 31.875L31.4722 33.0351L32.0842 33.3883L31.7067 33.6045L31.0947 33.2513L29.1338 32.8128L29.5448 32.5784Z" fill="#FFC641"/>
<path d="M31.6465 31.367L32.4595 30.8981C32.8675 30.6637 33.2572 30.7185 33.5404 30.8798C33.7231 30.9834 33.8479 31.1478 33.6926 31.2787C33.8875 31.2026 34.1889 31.2178 34.4386 31.3609C34.804 31.571 34.8527 31.7903 34.4386 32.0308L33.6195 32.5027L31.6465 31.367ZM33.2146 31.3609C33.3485 31.2818 33.3394 31.1935 33.1993 31.1113C33.0167 31.0047 32.8644 31.0473 32.767 31.1021L32.3559 31.3396L32.8035 31.5984L33.2146 31.3609ZM34.0884 31.8481C34.2041 31.7811 34.2529 31.6898 34.0428 31.571C33.8997 31.4888 33.7078 31.4462 33.5495 31.5375L33.1232 31.7842L33.6622 32.0947L34.0884 31.8481Z" fill="#FFC641"/>
<path d="M33.2695 30.4291L33.6471 30.2129L35.6171 31.3517L35.2395 31.5678L33.2695 30.4291Z" fill="#FFC641"/>
<path d="M33.9297 30.0506L34.7427 29.5817C35.1507 29.3473 35.5404 29.4021 35.8236 29.5634C36.0063 29.667 36.1311 29.8314 35.9758 29.9623C36.1707 29.8831 36.4721 29.9014 36.7218 30.0445C37.0872 30.2546 37.1359 30.4738 36.7218 30.7144L35.9027 31.1863L33.9297 30.0506ZM35.5008 30.0445C35.6348 29.9654 35.6257 29.8771 35.4856 29.7949C35.3029 29.6883 35.1507 29.7309 35.0532 29.7857L34.6422 30.0232L35.0898 30.282L35.5008 30.0445ZM36.3716 30.5317C36.4873 30.4647 36.5361 30.3734 36.326 30.2546C36.1829 30.1724 35.991 30.1298 35.8327 30.2211L35.4064 30.4678L35.9454 30.7783L36.3716 30.5317Z" fill="#FFC641"/>
<path d="M35.5557 29.1107L35.9332 28.8945L37.4161 29.7501C37.5592 29.8323 37.6444 29.7806 37.7236 29.7349L38.3995 29.3452L38.7466 29.5461L37.9367 30.012C37.7236 30.1368 37.4465 30.2038 37.142 30.0272L35.5557 29.1107Z" fill="#FFC641"/>
<path d="M37.4067 28.5119C37.0657 28.3139 37.2362 28.1343 37.425 28.0277C37.425 28.0277 38.1374 27.638 38.3354 27.5527L38.6459 27.7324L37.8695 28.183C37.7294 28.2652 37.8086 28.3078 37.8817 28.3505L38.1892 28.5271L39.0144 28.0856L39.3249 28.2652L38.5546 28.7402L38.8621 28.9168C39.0052 28.999 39.0905 28.9473 39.1696 28.9016L39.9217 28.4692L40.2292 28.6489C40.0983 28.7493 39.4345 29.1604 39.4345 29.1604C39.2671 29.267 38.9474 29.404 38.585 29.1939L37.4067 28.5119Z" fill="#FFC641"/>
<path d="M18.8666 36.8682L18.7448 36.9382C17.5786 37.6111 16.6286 39.2522 16.6347 40.595L16.6408 42.3123C16.6438 42.9365 16.8509 43.3993 17.2254 43.6185C17.265 43.6429 17.3015 43.6703 17.332 43.7038L17.201 43.6277L16.3454 43.1314L15.7182 42.766C15.6969 42.6229 15.6878 42.4706 15.6878 42.3123L15.6817 40.595C15.6756 39.0208 16.6256 37.2579 17.9379 36.3262L18.2363 36.4997L18.8666 36.8682Z" fill="#F7AF2A"/>
<path d="M22.7914 39.1474L22.6696 39.2175C21.5034 39.8904 20.5534 41.5315 20.5595 42.8743L20.5656 44.5916C20.5686 45.2158 20.7757 45.6786 21.1502 45.8978C21.1898 45.9222 21.2263 45.9496 21.2568 45.9831L21.1258 45.907L20.2702 45.4107L19.643 45.0453C19.6217 44.9022 19.6126 44.7499 19.6126 44.5916L19.6065 42.8743C19.6004 41.3001 20.5504 39.5372 21.8627 38.6055L22.1611 38.779L22.7914 39.1474Z" fill="#F7AF2A"/>
<path d="M40.7777 49.6045L40.6559 49.6745C39.4897 50.3474 38.5397 51.9886 38.5458 53.3313L38.5519 55.0486C38.555 55.6728 38.762 56.1356 39.1365 56.3549C39.1761 56.3792 39.2126 56.4066 39.2431 56.4401L39.1122 56.364L38.2566 55.8677L37.6293 55.5023C37.608 55.3592 37.5989 55.207 37.5989 55.0486L37.5928 53.3313C37.5867 51.7572 38.5367 49.9942 39.849 49.0625L40.1474 49.2361L40.7777 49.6045Z" fill="#F7AF2A"/>
<path d="M64.0275 42.9881L64.0245 43.2622L47.0313 53.0726V52.8016L64.0275 42.9881Z" fill="#E7C3A4"/>
<path d="M64.0183 45.6133V45.8873L55.3223 50.9082V50.6342L64.0183 45.6133Z" fill="#E7C3A4"/>
<path d="M64.0206 44.3203V44.5943L44.5977 55.8084V55.5344L64.0206 44.3203Z" fill="#E7C3A4"/>
<path d="M51.7653 51.3573L21.2988 33.6517L42.3386 21.5059L72.8051 39.2115L51.7653 51.3573Z" fill="#283032"/>
<mask id="mask1_76_6213" style="mask-type:luminance" maskUnits="userSpaceOnUse" x="20" y="33" width="32" height="19">
<path d="M50.5925 51.4715L20.126 33.7689C20.4244 33.9425 20.8415 33.9181 21.2952 33.6562L51.7617 51.3619C51.308 51.6238 50.8939 51.6451 50.5925 51.4715Z" fill="white"/>
</mask>
<g mask="url(#mask1_76_6213)">
<path d="M50.5925 51.4715L20.126 33.7689C20.4244 33.9425 20.8415 33.9181 21.2952 33.6562L51.7617 51.3619C51.308 51.6238 50.8939 51.6451 50.5925 51.4715Z" fill="#283032"/>
</g>
<path d="M51.7646 51.3606L72.8044 39.2148V39.8116L51.7646 51.9574V51.3606Z" fill="#071113"/>
<path d="M70.5817 33.8125L70.5756 35.5724V35.8464L70.5695 37.9047V38.1788L70.5634 39.4302L49.9043 51.4573L49.9195 45.8396L70.5817 33.8125Z" fill="#EFD2B8"/>
<path d="M70.5752 35.5722V35.8463L51.4689 46.8746V46.6036L70.5752 35.5722Z" fill="#E7C3A4"/>
<path d="M64.9326 40.2305L53.1309 47.0417V47.3158L64.9326 40.5015V40.2305Z" fill="#E7C3A4"/>
<path d="M69.8595 38.3164L60.4297 43.7606V44.0346L69.8595 38.5904V38.3164Z" fill="#E7C3A4"/>
<path d="M69.5765 39.3066L50.9482 50.061V50.335L69.5765 39.5776V39.3066Z" fill="#E7C3A4"/>
<path d="M49.92 45.8408L49.9048 51.4585L23.9629 36.481L23.9781 30.8633L49.92 45.8408Z" fill="#867567"/>
<path d="M70.5816 33.8115L49.9195 45.8385L23.9776 30.861L44.6367 18.834L70.5816 33.8115Z" fill="#AA9683"/>
<path d="M50.1127 50.419L50.1066 48.7017C50.1036 47.6573 50.8404 46.3846 51.7478 45.8578L72.7875 33.712L72.7845 33.1152L51.7447 45.2641C50.5512 45.9522 49.5829 47.6299 49.5859 49.0031L49.592 50.7204C49.5951 52.0936 50.5694 52.6478 51.766 51.9596L51.763 51.3629C50.8587 51.8835 50.1157 51.4603 50.1127 50.419Z" fill="#071113"/>
<path d="M51.7458 45.2577L21.2793 27.5521L42.319 15.4062L72.7855 33.1119L51.7458 45.2577Z" fill="#283032"/>
<path d="M51.7486 43.4164L51.6299 43.3463L24.4609 27.5559L42.3188 17.2461L42.4376 17.3161L69.6065 33.1066L51.7486 43.4164ZM25.4079 27.5589L51.7486 42.8652L68.6566 33.1035L42.3158 17.7972L25.4079 27.5589Z" fill="#FFC641"/>
<path d="M49.5887 48.9974L49.5948 50.7147C49.5978 51.3967 49.8384 51.8778 50.2281 52.1031L24.8434 37.351L23.8782 36.7907L23.7473 36.7146L22.8917 36.2183L22.2645 35.8529L21.7499 35.5545L19.7586 34.3975C19.3688 34.1722 19.1283 33.6911 19.1252 33.0091L19.1191 31.2918C19.1161 29.9186 20.0844 28.2409 21.2779 27.5527L23.8965 29.0751L24.4811 29.4162L24.7795 29.5897L25.4098 29.9581L25.9852 30.2931L26.8743 30.8107L51.7444 45.2645C50.5539 45.9496 49.5857 47.6273 49.5887 48.9974Z" fill="#071113"/>
<path d="M19.1221 31.2918C19.119 29.9186 20.0873 28.2409 21.2809 27.5527L23.8994 29.0751L24.7824 29.5897L25.9882 30.29L26.8772 30.8077L51.7474 45.2614C50.5538 45.9496 49.5855 47.6273 49.5886 49.0005L19.1221 31.2918Z" fill="#1B2224"/>
<path d="M25.4115 29.956L25.2897 30.0261C24.1235 30.699 23.1735 32.3401 23.1796 33.6829L23.1857 35.4002C23.1888 36.0244 23.3958 36.4872 23.7703 36.7064C23.8099 36.7308 23.8464 36.7582 23.8769 36.7917L23.746 36.7156L22.8904 36.2192L22.2631 35.8539C22.2418 35.7108 22.2327 35.5585 22.2327 35.4002L22.2266 33.6829C22.2205 32.1087 23.1705 30.3458 24.4828 29.4141L24.7812 29.5876L25.4115 29.956Z" fill="#F7AF2A"/>
<path d="M29.3373 32.2373L29.2155 32.3073C28.0493 32.9802 27.0993 34.6214 27.1054 35.9642L27.1115 37.6814C27.1145 38.3056 27.3216 38.7684 27.6961 38.9877C27.7357 39.012 27.7722 39.0394 27.8027 39.0729L27.6717 38.9968L26.8161 38.5005L26.1889 38.1351C26.1676 37.992 26.1585 37.8398 26.1585 37.6814L26.1524 35.9642C26.1463 34.39 27.0963 32.627 28.4086 31.6953L28.707 31.8689L29.3373 32.2373Z" fill="#F7AF2A"/>
<path d="M47.3226 42.6943L47.2008 42.7644C46.0346 43.4373 45.0847 45.0784 45.0908 46.4212L45.0968 48.1385C45.0999 48.7627 45.3069 49.2255 45.6814 49.4447C45.721 49.4691 45.7576 49.4965 45.788 49.53L45.6571 49.4538L44.8015 48.9575L44.1743 48.5921C44.1529 48.449 44.1438 48.2968 44.1438 48.1385L44.1377 46.4212C44.1316 44.847 45.0816 43.0841 46.3939 42.1523L46.6923 42.3259L47.3226 42.6943Z" fill="#F7AF2A"/>
<path d="M31.9707 27.9552L33.0942 27.3066L36.0234 28.9965C36.3309 29.1731 36.5166 29.0605 36.6841 28.963L37.8746 28.2749L38.8825 28.8565L37.1682 29.846C36.6415 30.1505 35.9594 30.2571 35.3048 29.8795L31.9707 27.9552Z" fill="#FFC641"/>
<path d="M36.2236 25.5006L37.5481 24.7363L43.0684 26.4414L41.9175 27.1052L40.9279 26.822L39.7891 27.4797L40.2854 28.0491L39.1345 28.7129L36.2236 25.5006ZM39.7465 26.3988L38.3063 25.9208L39.0888 26.7794L39.7465 26.3988Z" fill="#FFC641"/>
<path d="M39.4702 23.6246L43.0296 24.8699L40.6972 22.9151L41.8786 22.2331L42.5454 22.8634L45.1153 23.6642L42.7829 21.7094L43.9643 21.0273L47.1644 24.0722L45.8095 24.8547L44.0374 24.2792L45.0787 25.2749L43.7238 26.0574L38.2918 24.3036L39.4702 23.6246Z" fill="#FFC641"/>
<path d="M35.4607 22.9902L35.3663 58.0392L34.2275 58.703L34.3189 23.651L35.4607 22.9902Z" fill="#071113"/>
<path d="M11.3766 10.407C10.8407 10.0964 10.1404 9.9381 9.44004 9.93201C8.7032 9.92287 7.96331 10.0842 7.40306 10.407L6.58705 10.882C6.21253 11.0982 5.96895 11.3631 5.85324 11.6402C5.80148 11.765 5.77408 11.8959 5.77408 12.0238L5.67969 47.0758C5.67969 46.9479 5.70709 46.817 5.75885 46.6922C5.87456 46.4151 6.12119 46.1502 6.49265 45.934L7.30867 45.459C7.86892 45.1332 8.60881 44.9749 9.34566 44.984C10.049 44.9901 10.7463 45.1484 11.2822 45.459L34.2249 58.704L34.3193 23.652L11.3766 10.407Z" fill="#1B2224"/>
<mask id="mask2_76_6213" style="mask-type:luminance" maskUnits="userSpaceOnUse" x="5" y="13" width="2" height="37">
<path d="M5.74904 47.6672L5.8343 13.7539C5.8343 14.2502 6.1601 14.7496 6.81473 15.1271L6.72644 49.0434C6.0718 48.6659 5.746 48.1665 5.74904 47.6672Z" fill="white"/>
</mask>
<g mask="url(#mask2_76_6213)">
<path d="M6.81483 15.131L6.72653 49.0443C6.07189 48.6667 5.74609 48.1674 5.74609 47.6711L5.83135 13.7578C5.83135 14.2541 6.16019 14.7535 6.81483 15.131Z" fill="#958373"/>
</g>
<path d="M27.9286 27.3223L27.8434 61.2325L6.72754 49.0441L6.81584 15.1309L27.9286 27.3223Z" fill="#807163"/>
<path d="M33.3742 24.1581L33.2889 58.0683L27.8448 61.2319L27.93 27.3217L33.3742 24.1581Z" fill="#E7C3A4"/>
<path d="M33.3741 24.1575L27.93 27.3211L6.81717 15.1296C5.51703 14.3806 5.51094 13.1505 6.80194 12.4015L7.55402 11.9661C8.84502 11.217 10.9642 11.217 12.2644 11.9661L33.3741 24.1575Z" fill="#EFD2B8"/>
<path d="M5.4602 13.8445C4.58939 13.3421 4.15397 12.6783 4.15397 12.0176L4.05959 47.0696C4.05654 47.7303 4.49195 48.391 5.36582 48.8965L28.3086 62.1415L28.403 27.0895L5.4602 13.8445Z" fill="#1B2224"/>
<path d="M35.4612 22.9909L34.3225 23.6546L11.3797 10.4097C10.2805 9.77634 8.49931 9.77634 7.40622 10.4097L6.5902 10.8847C5.49711 11.518 5.5032 12.5532 6.60238 13.1865L29.5451 26.4315L28.4064 27.0953L5.46362 13.8503C3.73112 12.8516 3.72198 11.2226 5.44231 10.2239L6.25832 9.74894C7.97864 8.75023 10.786 8.75023 12.5185 9.74894L35.4612 22.9909Z" fill="#283032"/>
<path d="M29.5457 26.4277L29.4513 61.4767L28.3125 62.1405L28.4038 27.0885L29.5457 26.4277Z" fill="#071113"/>
<path d="M9.62207 24.2422L10.8309 24.9395V28.5841C10.8309 28.9647 11.0379 29.0774 11.2176 29.1809L12.5025 29.9238V31.1783L10.6573 30.1126C10.091 29.7838 9.62207 29.2052 9.62207 28.3923V24.2422Z" fill="#FFC641"/>
<path d="M14.2074 26.8887L15.6355 27.7138L17.0209 33.7852L15.7786 33.0697L15.5106 31.9918L14.2805 31.2824L14.0187 32.0527L12.7764 31.3372L14.2074 26.8887ZM15.267 30.6643L14.9351 29.0627L14.5545 30.2562L15.267 30.6643Z" fill="#FFC641"/>
<path d="M17.7063 28.9096L18.4614 32.9044L19.0278 29.6738L20.3005 30.4076L20.0691 31.3698L20.7055 34.2015L21.2718 30.9709L22.5446 31.7047L21.4271 36.3329L19.9686 35.4894L19.5515 33.5255L19.1831 35.0358L17.7246 34.1924L16.4336 28.1758L17.7063 28.9096Z" fill="#FFC641"/>
<path d="M27.4654 60.6701L6.22168 48.4056L6.30998 15.3145L27.5537 27.579L27.4654 60.6701ZM6.52007 48.232L27.164 60.1525L27.2492 27.7556L6.60533 15.8351L6.52007 48.232Z" fill="#FFC641"/>
</svg>
