<svg width="22" height="22" viewBox="0 0 22 22" fill="none" xmlns="http://www.w3.org/2000/svg">
<path d="M19.005 8.38213C18.2019 9.38213 17.37 10.4134 16.5319 11.4665C16.3649 11.6745 16.2733 11.9329 16.2719 12.1996C16.2694 13.5084 16.2404 14.8159 16.185 16.1221C16.1456 16.9209 15.3362 17.5596 14.6225 17.3284C13.4525 16.9534 12.2581 16.534 11.0431 16.0903C10.7996 16.0009 10.5323 16.0009 10.2887 16.0903C9.07374 16.534 7.87874 16.9515 6.70936 17.3284C5.99624 17.5584 5.18686 16.9209 5.14686 16.1221C5.09061 14.8159 5.06166 13.5084 5.05999 12.1996C5.05809 11.933 4.96651 11.6748 4.79999 11.4665C3.96186 10.4134 3.12999 9.38025 2.32686 8.38213C1.83186 7.7715 2.17499 6.8715 2.96874 6.619C4.26249 6.21338 5.55186 5.80025 6.83249 5.394C7.09131 5.31184 7.31553 5.14609 7.46999 4.92275C8.24436 3.80775 9.00999 2.68588 9.74561 1.57088C10.1981 0.883377 11.1325 0.883377 11.585 1.57088C12.3206 2.68588 13.085 3.80775 13.8606 4.92275C14.0151 5.14609 14.2393 5.31184 14.4981 5.394C15.7787 5.80025 17.0681 6.21338 18.3612 6.619C19.1569 6.8715 19.5 7.7715 19.005 8.38213Z" fill="#00ADAD"/>
<path d="M0.911246 14.0634C0.703827 14.0636 0.503161 13.9897 0.345429 13.855C0.187698 13.7203 0.0832809 13.5336 0.0510048 13.3288C0.0187288 13.1239 0.0607178 12.9142 0.169401 12.7375C0.278084 12.5608 0.44631 12.4288 0.643746 12.3652L1.795 11.9902C2.01455 11.9191 2.25335 11.9382 2.45888 12.0431C2.66441 12.1481 2.81982 12.3304 2.89093 12.5499C2.96204 12.7695 2.94303 13.0083 2.83807 13.2138C2.7331 13.4193 2.5508 13.5748 2.33125 13.6459L1.18 14.0209C1.09318 14.049 1.0025 14.0633 0.911246 14.0634Z" fill="#00ADAD"/>
<path d="M20.4219 14.0634C20.3306 14.0636 20.2398 14.0493 20.1531 14.0209L19.0025 13.6459C18.783 13.5744 18.6009 13.4187 18.4962 13.213C18.3916 13.0073 18.3729 12.7685 18.4444 12.549C18.5158 12.3295 18.6715 12.1474 18.8772 12.0428C19.0829 11.9381 19.3218 11.9194 19.5412 11.9909L20.6919 12.3659C20.889 12.4299 21.0569 12.5622 21.1651 12.7389C21.2734 12.9157 21.315 13.1253 21.2825 13.33C21.2499 13.5348 21.1453 13.7211 20.9875 13.8556C20.8297 13.99 20.6291 14.0637 20.4219 14.0634Z" fill="#00ADAD"/>
<path d="M5.34626 3.569C5.20874 3.56927 5.07312 3.53689 4.95056 3.47453C4.828 3.41216 4.72199 3.32158 4.64126 3.21026L3.93314 2.23463C3.79763 2.04782 3.74188 1.81483 3.77816 1.58691C3.81443 1.359 3.93976 1.15483 4.12657 1.01932C4.31339 0.883808 4.54638 0.82806 4.77429 0.864337C5.00221 0.900613 5.20638 1.02594 5.34189 1.21275L6.04939 2.18838C6.14362 2.31814 6.20016 2.47141 6.21276 2.63128C6.22536 2.79115 6.19353 2.9514 6.12078 3.09431C6.04803 3.23722 5.93719 3.35725 5.80051 3.44113C5.66383 3.52501 5.50663 3.56948 5.34626 3.56963V3.569Z" fill="#00ADAD"/>
<path d="M15.9875 3.56838C15.8273 3.56818 15.6702 3.52374 15.5337 3.43997C15.3971 3.3562 15.2863 3.23635 15.2136 3.09362C15.1408 2.9509 15.1088 2.79085 15.1212 2.63112C15.1336 2.47139 15.1898 2.31818 15.2838 2.18838L15.9913 1.21275C16.1268 1.02594 16.3309 0.900613 16.5588 0.864337C16.7868 0.82806 17.0198 0.883808 17.2066 1.01932C17.3934 1.15483 17.5187 1.359 17.555 1.58691C17.5913 1.81483 17.5355 2.04782 17.4 2.23463L16.6925 3.20901C16.6119 3.32052 16.5059 3.41127 16.3834 3.47376C16.2608 3.53625 16.1251 3.56868 15.9875 3.56838Z" fill="#00ADAD"/>
<path d="M10.6663 21.149C10.4355 21.149 10.2142 21.0573 10.0511 20.8942C9.88793 20.731 9.79626 20.5097 9.79626 20.279V19.1321C9.80234 18.9053 9.8967 18.6899 10.0593 18.5316C10.2218 18.3734 10.4397 18.2848 10.6666 18.2848C10.8934 18.2848 11.1113 18.3734 11.2739 18.5316C11.4365 18.6899 11.5308 18.9053 11.5369 19.1321V20.279C11.5367 20.5098 11.4449 20.7311 11.2817 20.8942C11.1184 21.0574 10.8971 21.149 10.6663 21.149Z" fill="#00ADAD"/>
</svg>
