<svg width="21" height="21" viewBox="0 0 21 21" fill="none" xmlns="http://www.w3.org/2000/svg">
<path d="M18.1159 7.46658L18.1172 7.46479C18.341 7.17574 18.2204 6.66502 17.7499 6.50817C16.9216 6.23611 16.0942 5.96038 15.2712 5.68608C14.8843 5.55716 14.4984 5.42855 14.1138 5.3008L14.1137 5.30076C13.7609 5.18347 13.46 4.94855 13.2547 4.63802C12.5232 3.53688 11.8018 2.4281 11.107 1.32542L11.1067 1.32497C10.9804 1.12392 10.8098 1.05078 10.6646 1.05078C10.5194 1.05078 10.3488 1.12392 10.2225 1.32497L10.2222 1.32542C9.52723 2.42845 8.80449 3.5374 8.07436 4.63827C7.8691 4.94867 7.56822 5.1835 7.21549 5.30076L7.21538 5.3008C6.83665 5.42661 6.45664 5.55324 6.07569 5.68019C5.24681 5.95641 4.41345 6.23412 3.57888 6.50812C3.1104 6.6648 2.98913 7.17542 3.21314 7.46479L3.21424 7.46622C3.25678 7.52159 3.29942 7.57707 3.34213 7.63266C4.05807 8.56435 4.79796 9.52721 5.54317 10.5077C5.76651 10.8007 5.88724 11.1605 5.88975 11.5293L5.88977 11.5321C5.89132 12.8145 5.9184 14.0957 5.97101 15.3756C5.98294 15.6154 6.10722 15.8402 6.28481 15.9848C6.46357 16.1303 6.64575 16.159 6.7819 16.113L6.78201 16.113C7.87434 15.7443 8.99229 15.3354 10.1313 14.8998C10.4757 14.7676 10.8547 14.7676 11.1991 14.8998M18.1159 7.46658L11.0201 15.3666M18.1159 7.46658C17.9332 7.70481 17.7487 7.945 17.5629 8.18699C16.9812 8.94462 16.3861 9.7198 15.7877 10.5071M18.1159 7.46658L15.7877 10.5071M11.1991 14.8998C11.1992 14.8998 11.1994 14.8999 11.1995 14.8999L11.0201 15.3666M11.1991 14.8998C11.199 14.8997 11.1989 14.8997 11.1988 14.8996L11.0201 15.3666M11.1991 14.8998C12.3388 15.3356 13.4556 15.7462 14.5476 16.1127L14.5491 16.1132C14.6853 16.1594 14.8673 16.1308 15.0459 15.9853C15.2234 15.8407 15.3476 15.6157 15.3594 15.3759M11.0201 15.3666C12.1635 15.8039 13.2875 16.2172 14.3885 16.5867C15.0602 16.8146 15.8218 16.1852 15.8589 15.3981M15.3594 15.3759C15.3593 15.3766 15.3593 15.3772 15.3593 15.3778L15.8589 15.3981M15.3594 15.3759C15.4112 14.0958 15.4383 12.8144 15.4406 11.5318L15.4406 11.5302C15.4425 11.1607 15.5635 10.8001 15.7877 10.5071M15.3594 15.3759C15.3594 15.3755 15.3594 15.375 15.3594 15.3745L15.8589 15.3981M15.8589 15.3981L15.7877 10.5071" stroke="#878787"/>
<path d="M1.48547 12.8698L1.48535 12.8698C1.41601 12.8699 1.34536 12.8442 1.28669 12.7917C1.22745 12.7387 1.18429 12.6614 1.17076 12.5715C1.15722 12.4814 1.17529 12.3907 1.21885 12.3165C1.26215 12.2428 1.32579 12.1932 1.39388 12.1702L1.39388 12.1702L1.39554 12.1696L2.4781 11.8004C2.4782 11.8003 2.47831 11.8003 2.47842 11.8003C2.55319 11.775 2.63434 11.7813 2.70645 11.8199C2.77965 11.859 2.84172 11.931 2.87115 12.0262C2.90072 12.1217 2.89241 12.2258 2.84967 12.3134C2.80723 12.4005 2.73722 12.4592 2.66153 12.4849L2.66072 12.4851L1.57829 12.8544C1.57817 12.8544 1.57804 12.8544 1.57791 12.8545C1.54766 12.8647 1.51652 12.8698 1.48547 12.8698Z" stroke="#878787"/>
<path d="M19.8453 12.8696L19.8476 12.8696C19.9169 12.8697 19.9875 12.8441 20.0462 12.7917C20.1055 12.7389 20.1487 12.6617 20.1623 12.5718C20.176 12.4819 20.1581 12.3911 20.1147 12.3169C20.0715 12.2431 20.008 12.1933 19.94 12.1702L19.9394 12.17L18.8568 11.8005L19.8453 12.8696ZM19.8453 12.8696C19.8154 12.8697 19.7853 12.8647 19.7561 12.8547L19.7554 12.8545M19.8453 12.8696L19.7554 12.8545M19.7554 12.8545L18.6726 12.485L18.6724 12.4849M19.7554 12.8545L18.6724 12.4849M18.6724 12.4849C18.5967 12.4591 18.5268 12.4002 18.4844 12.3131M18.6724 12.4849L18.4844 12.3131M18.4844 12.3131C18.4418 12.2254 18.4336 12.1212 18.4633 12.0257M18.4844 12.3131L18.4633 12.0257M18.4633 12.0257C18.4929 11.9306 18.5551 11.8587 18.6283 11.8197M18.4633 12.0257L18.6283 11.8197M18.6283 11.8197C18.7005 11.7812 18.7818 11.775 18.8566 11.8005L18.6283 11.8197ZM19.8468 13.3696C19.7609 13.3698 19.6755 13.3557 19.5939 13.3277L20.5462 12.0644C20.6481 12.2386 20.6873 12.4452 20.6567 12.6469C20.626 12.8487 20.5276 13.0323 20.3791 13.1648C20.2306 13.2973 20.0419 13.3699 19.8468 13.3696Z" stroke="#878787"/>
<path d="M5.81618 2.48278C5.7727 2.51073 5.72512 2.52613 5.67747 2.52939L5.658 2.52943C5.61179 2.52952 5.56519 2.51819 5.52179 2.49506C5.47825 2.47186 5.43828 2.43692 5.40665 2.39125L5.40653 2.39107L4.74023 1.42978C4.74021 1.42974 4.74018 1.42971 4.74015 1.42967C4.68653 1.35219 4.66243 1.25174 4.67769 1.15136C4.69293 1.05114 4.74471 0.967454 4.81368 0.915061C4.88173 0.863377 4.96226 0.844656 5.03858 0.857375C5.11535 0.870172 5.19069 0.915457 5.24385 0.992182C5.24387 0.9922 5.24388 0.992218 5.24389 0.992235L5.90964 1.95359L5.90985 1.95388C5.94696 2.00738 5.97058 2.07275 5.97585 2.14289C5.98113 2.21306 5.96763 2.2825 5.9382 2.34305L6.38788 2.56165L5.9382 2.34305C5.90883 2.40346 5.86567 2.45098 5.81618 2.48278Z" stroke="#878787"/>
<path d="M15.6746 2.52881L15.6741 2.52881C15.6203 2.52874 15.5659 2.51319 15.5167 2.48159C15.4672 2.44983 15.4241 2.40237 15.3947 2.34205C15.3653 2.2816 15.3517 2.21224 15.3569 2.14213C15.3621 2.07212 15.3855 2.00683 15.4225 1.95332C15.4225 1.95327 15.4225 1.95321 15.4226 1.95316L16.088 0.992235C16.088 0.992218 16.0881 0.9922 16.0881 0.992182C16.1412 0.915456 16.2166 0.870171 16.2933 0.857375C16.3697 0.844656 16.4502 0.863377 16.5182 0.915061C16.5872 0.967455 16.639 1.05114 16.6542 1.15136C16.6695 1.25179 16.6454 1.35229 16.5917 1.42978L15.926 2.38976L15.9254 2.39067C15.8939 2.43635 15.854 2.47128 15.8106 2.49448C15.7672 2.5176 15.7207 2.52892 15.6746 2.52881Z" stroke="#878787"/>
<path d="M10.6657 19.8537C10.5888 19.8537 10.5101 19.8219 10.4484 19.7573C10.3859 19.6918 10.347 19.5984 10.347 19.4964V18.3739C10.3508 18.2756 10.3904 18.1868 10.4514 18.1246C10.5128 18.062 10.5903 18.0312 10.666 18.0312C10.7418 18.0312 10.8192 18.062 10.8806 18.1246C10.9416 18.1868 10.9813 18.2756 10.985 18.3739L10.985 19.496C10.985 19.4961 10.985 19.4961 10.985 19.4962C10.9849 19.5982 10.9459 19.6917 10.8834 19.7572C10.8215 19.8219 10.7427 19.8537 10.6657 19.8537Z" stroke="#878787"/>
</svg>
