<svg width="22" height="20" viewBox="0 0 22 20" fill="none" xmlns="http://www.w3.org/2000/svg">
<g clip-path="url(#clip0_1_7628)">
<path d="M1.4293 5.21429H0.500732V4.62423L10.715 0.538517L20.9293 4.62423V5.21429H20.0007H19.5007V5.71429C19.5007 5.75727 19.4911 5.79511 19.4321 5.8498C19.3722 5.90532 19.3132 5.92857 19.2306 5.92857H2.19939C2.11686 5.92857 2.05789 5.90532 1.99798 5.8498C1.93897 5.79511 1.9293 5.75727 1.9293 5.71429V5.21429H1.4293ZM19.5007 16.4286V16.6429H1.9293V16.4286C1.9293 16.3856 1.93897 16.3477 1.99798 16.2931C2.05789 16.2375 2.11686 16.2143 2.19939 16.2143H2.85788H3.35788V15.7143V7.64286H5.21502V15.7143V16.2143H5.71502H7.14359H7.64359V15.7143V7.64286H9.50073V15.7143V16.2143H10.0007H11.4293H11.9293V15.7143V7.64286H13.7864V15.7143V16.2143H14.2864H15.715H16.215V15.7143V7.64286H18.0722V15.7143V16.2143H18.5722H19.2306C19.3132 16.2143 19.3721 16.2375 19.4321 16.2931C19.4911 16.3477 19.5007 16.3856 19.5007 16.4286ZM20.6592 18.3571C20.7418 18.3571 20.8007 18.3804 20.8606 18.4359C20.9196 18.4906 20.9293 18.5284 20.9293 18.5714V19.5H0.500732V18.5714C0.500732 18.5285 0.510396 18.4906 0.569409 18.4359C0.629313 18.3804 0.688285 18.3571 0.770822 18.3571H20.6592Z" stroke="#878787"/>
</g>
<defs>
<clipPath id="clip0_1_7628">
<rect width="21.43" height="20" fill="white"/>
</clipPath>
</defs>
</svg>
