<svg width="22" height="20" viewBox="0 0 22 20" fill="none" xmlns="http://www.w3.org/2000/svg">
<g clip-path="url(#clip0_3_150)">
<path d="M10.7143 0L21.4286 4.28571V5.71429H20C20 5.90774 19.9237 6.07515 19.7712 6.21652C19.6187 6.35789 19.4382 6.42857 19.2299 6.42857H2.19866C1.99033 6.42857 1.8099 6.35789 1.65737 6.21652C1.50484 6.07515 1.42857 5.90774 1.42857 5.71429H0V4.28571L10.7143 0ZM2.85714 7.14286H5.71429V15.7143H7.14286V7.14286H10V15.7143H11.4286V7.14286H14.2857V15.7143H15.7143V7.14286H18.5714V15.7143H19.2299C19.4382 15.7143 19.6187 15.785 19.7712 15.9263C19.9237 16.0677 20 16.2351 20 16.4286V17.1429H1.42857V16.4286C1.42857 16.2351 1.50484 16.0677 1.65737 15.9263C1.8099 15.785 1.99033 15.7143 2.19866 15.7143H2.85714V7.14286ZM20.6585 17.8571C20.8668 17.8571 21.0472 17.9278 21.1998 18.0692C21.3523 18.2106 21.4286 18.378 21.4286 18.5714V20H0V18.5714C0 18.378 0.0762649 18.2106 0.228795 18.0692C0.381324 17.9278 0.561756 17.8571 0.770089 17.8571H20.6585Z" fill="#00ADAD"/>
</g>
<defs>
<clipPath id="clip0_3_150">
<rect width="21.43" height="20" fill="white"/>
</clipPath>
</defs>
</svg>
