<svg width="75" height="72" viewBox="0 0 75 72" fill="none" xmlns="http://www.w3.org/2000/svg">
<circle cx="38" cy="25" r="25" fill="#EBEBF9"/>
<path d="M74.8385 44.7412L43.5761 63.0013L14.4082 39.7525L37.9065 23.6699L74.8385 44.7412Z" fill="#E1E1E1"/>
<path d="M74.4386 48.4862L50.7542 62.1615L10.4014 43.4817L38.0846 27.4941L74.4386 48.4862Z" fill="#F2F2F2"/>
<path d="M74.4386 45.8807L46.7554 61.8642L10.4014 40.8761L38.0846 24.8926L74.4386 45.8807Z" fill="white"/>
<path d="M46.7549 60.2447L46.7074 60.217L13.208 40.8759L38.0881 26.5117L38.1356 26.5394L71.6349 45.8805L46.7549 60.2447ZM13.5921 40.8759L46.7549 60.023L71.2509 45.8805L38.0881 26.7334L13.5921 40.8759Z" fill="#3A4648"/>
<path d="M33.6235 34.8754L30.0364 36.95L26.4453 34.8754L30.0364 32.8047L33.6235 34.8754Z" fill="#FBBF34"/>
<path d="M39.625 34.5546L28.9904 40.6955L27.4463 39.8046L38.0809 33.6638L39.625 34.5546Z" fill="#5E6060"/>
<path d="M46.7835 33.7072L27.5177 44.8288L25.9736 43.9379L45.2394 32.8163L46.7835 33.7072Z" fill="#5E6060"/>
<path d="M49.6262 35.3498L30.3644 46.4713L28.8203 45.5805L48.0861 34.4589L49.6262 35.3498Z" fill="#5E6060"/>
<path d="M52.473 36.9884L33.2072 48.114L31.6631 47.2231L50.9289 36.0976L52.473 36.9884Z" fill="#5E6060"/>
<path d="M44.9978 44.5919L36.0499 49.7588L34.5097 48.864L43.4537 43.7011L44.9978 44.5919Z" fill="#5E6060"/>
<path d="M58.1625 40.2755L38.8967 51.3971L37.3526 50.5062L56.6184 39.3846L58.1625 40.2755Z" fill="#5E6060"/>
<path d="M61.0052 41.9181L41.7394 53.0397L40.1953 52.1489L59.4611 41.0273L61.0052 41.9181Z" fill="#5E6060"/>
<path d="M60.4113 45.5451L44.5861 54.6831L43.042 53.7922L58.8672 44.6542L60.4113 45.5451Z" fill="#5E6060"/>
<path d="M65.9107 44.2074L65.3604 43.5264L64.0657 43.5897L63.0006 43.1621L61.9356 43.5897L60.6409 43.5264L60.0906 44.2074L58.9147 44.5241L59.0255 45.2724L58.2852 45.8861L59.0255 46.4998L58.9147 47.2481L60.0906 47.5648L60.6409 48.2458L61.9356 48.1785L63.0006 48.6101L64.0657 48.1785L65.3604 48.2458L65.9107 47.5648L67.0866 47.2481L66.9757 46.4998L67.7161 45.8861L66.9757 45.2724L67.0866 44.5241L65.9107 44.2074Z" fill="#F4A717"/>
<path d="M65.7287 44.3095C64.2242 43.4385 61.7814 43.4385 60.2768 44.3095C58.7723 45.1806 58.7723 46.5901 60.2768 47.4571C61.7814 48.3282 64.2242 48.3282 65.7287 47.4571C67.2333 46.5901 67.2333 45.1806 65.7287 44.3095Z" fill="#FBBF34"/>
<path d="M52.655 50.78C52.1126 50.8156 51.6138 50.9898 51.1901 51.1917C50.8813 50.7324 50.5764 50.2692 50.1963 49.8297C50.0221 49.6238 49.8242 49.4259 49.5866 49.2438C49.448 49.1369 49.2263 48.9468 48.9492 49.0339C48.7512 49.0973 48.7433 49.2477 48.7631 49.3586C48.8027 49.5763 48.9294 49.7941 49.0719 49.996C49.448 50.5345 50.0419 51.0096 50.6517 51.4807C50.0142 51.8648 49.547 52.328 49.159 52.8111C48.6997 52.3597 48.2405 51.9044 47.8683 51.4293C47.7376 51.1996 47.5832 50.97 47.409 50.7483C47.3655 50.6928 47.2031 50.7285 47.2348 50.7879C47.3655 51.0215 47.5238 51.2511 47.702 51.4768C47.9277 51.8688 48.09 52.2766 48.189 52.6844C48.2682 53.013 48.3038 53.3416 48.2959 53.6742C48.2959 53.7811 48.2998 53.8999 48.288 54.0186C48.0781 54.3195 47.8564 54.6165 47.607 54.9095C47.5199 54.7273 47.4842 54.5452 47.508 54.3789C47.5159 54.3195 47.3615 54.3235 47.3536 54.3789C47.314 54.6046 47.3615 54.8342 47.4882 55.0441C47.4328 55.1074 47.3773 55.1668 47.318 55.2302C46.8468 55.7211 46.2806 56.1685 45.6946 56.612C45.6313 56.6832 45.7976 56.7703 45.9045 56.703C46.5894 56.2715 47.1635 55.7766 47.6466 55.2539C47.7416 55.3569 47.8564 55.4559 47.9871 55.543C48.3513 55.7884 49.0957 56.0854 49.6539 55.8597C50.2201 55.6301 49.9588 55.0758 49.5985 54.8224C49.2738 54.5927 48.7512 54.4898 48.284 54.569C48.3513 54.4819 48.3949 54.3908 48.4226 54.2958C48.6997 53.9078 48.9531 53.5118 49.2461 53.1238C49.3015 53.1793 49.357 53.2347 49.4124 53.2901C49.6856 53.5633 49.9588 53.8405 50.232 54.1137C50.3072 54.3156 50.4062 54.5135 50.521 54.7115C50.814 55.1985 51.2653 55.634 52.0493 55.8993C52.1522 55.9349 52.2789 55.8637 52.2195 55.8003C51.6573 55.2618 51.0951 54.7234 50.5368 54.181C50.4062 53.8761 50.3151 53.5673 50.2518 53.2545C50.6833 53.5475 50.8377 53.9632 51.4118 54.1968C51.4752 54.2245 51.5702 54.1889 51.5662 54.1453C51.5583 53.983 51.5227 53.8246 51.4593 53.6702C51.689 53.8246 51.9582 53.9157 52.172 53.7494C52.3462 53.6148 52.3066 53.4168 52.2789 53.2624C52.2433 53.0486 52.1562 52.8348 52.0532 52.6289V52.625C52.3264 52.8665 52.5877 53.108 52.8411 53.3574C52.3581 54.1572 53.3836 55.0164 54.5515 55.4004C54.6386 55.4281 54.7218 55.3965 54.7535 55.3489C54.8326 55.2302 54.7653 55.1233 54.6782 55.0124C54.5238 54.8184 54.3536 54.6244 54.1833 54.4344C53.8468 54.0582 53.4944 53.69 53.1183 53.3258C53.1935 53.2228 53.3044 53.1318 53.4509 53.0486C53.9418 52.7873 54.5951 52.6962 54.702 52.2607C54.7851 51.9123 54.5397 51.5283 54.2031 51.2472C53.8507 50.9383 53.3123 50.7324 52.655 50.78ZM49.5787 50.2652C49.4282 50.099 49.2976 49.9287 49.1986 49.7505C49.1511 49.6634 49.1075 49.5724 49.0759 49.4853C49.0442 49.4021 48.9254 49.1131 49.2263 49.22C49.3609 49.2675 49.4639 49.3942 49.5549 49.4734C49.6539 49.5605 49.7489 49.6476 49.836 49.7387C50.0221 49.9287 50.1805 50.1267 50.3349 50.3286C50.5764 50.6414 50.8021 50.9621 51.0238 51.2788C50.9922 51.2947 50.9644 51.3105 50.9328 51.3263C50.9051 51.3422 50.8773 51.358 50.8496 51.3699C50.7823 51.3184 50.715 51.263 50.6477 51.2115C50.2557 50.9027 49.8796 50.5978 49.5787 50.2652ZM51.0317 51.5085C51.0674 51.4887 51.103 51.4689 51.1386 51.4491C51.1703 51.4966 51.202 51.5441 51.2337 51.5916C51.2733 51.651 51.3129 51.7104 51.3524 51.7658C51.2455 51.6787 51.1386 51.5956 51.0317 51.5085ZM49.5391 55.0203C49.8202 55.3014 49.8994 55.8874 49.06 55.8043C48.4543 55.7449 48.0108 55.4677 47.7535 55.1431C47.8643 55.0203 47.9712 54.8936 48.0702 54.7709C48.581 54.5452 49.2461 54.7273 49.5391 55.0203ZM48.4899 53.7296C48.4978 53.4129 48.4661 53.0961 48.3988 52.7833C48.3434 52.522 48.2603 52.2647 48.1534 52.0073C48.4424 52.3201 48.7552 52.6289 49.06 52.9338C48.8581 53.1951 48.672 53.4643 48.4899 53.7296ZM50.7942 54.664C51.0872 54.957 51.3841 55.25 51.6811 55.539C51.2693 55.3014 50.9922 54.9847 50.7942 54.664ZM51.9899 52.8705C52.077 53.0843 52.1958 53.3456 52.1205 53.5673C52.0136 53.8721 51.6058 53.6108 51.4514 53.4841C51.3722 53.4208 51.3049 53.3535 51.2455 53.2822C51.2139 53.2387 51.1782 53.1951 51.1386 53.1516C51.0832 53.0882 50.9248 53.1436 50.9724 53.207C50.9763 53.211 50.9803 53.2189 50.9882 53.2268C51.1941 53.4762 51.3168 53.7415 51.3564 54.0147C50.8575 53.7415 50.7388 53.2901 50.1924 53.0288C50.1211 52.9932 49.9825 53.013 49.9905 53.0763C50.0182 53.3099 50.0617 53.5396 50.1251 53.7732C49.9627 53.6148 49.8044 53.4525 49.642 53.2941C49.5431 53.1951 49.4441 53.0961 49.3451 52.9971C49.6579 52.5973 50.0142 52.2132 50.4854 51.8648C50.5962 51.7817 50.715 51.7025 50.8377 51.6233C51.1268 51.845 51.4198 52.0667 51.685 52.2924L51.689 52.2964C51.8078 52.4864 51.9107 52.6764 51.9899 52.8705ZM53.2727 53.7692C53.5102 54.0107 53.7359 54.2562 53.9576 54.5056C54.0764 54.6402 54.1912 54.7749 54.3061 54.9095C54.3734 54.9887 54.4842 55.0876 54.5159 55.1827C53.8864 54.9451 53.3638 54.5967 53.1262 54.181C53.0074 53.9751 52.9599 53.7375 53.0312 53.5198C53.1104 53.6029 53.1935 53.6861 53.2727 53.7692ZM54.1437 51.453C54.4724 51.7896 54.7218 52.3043 54.1516 52.6012C53.8943 52.7358 53.5617 52.8111 53.3004 52.9457C53.1737 53.013 53.0668 53.0882 52.9837 53.1753C52.6036 52.815 52.2037 52.4666 51.7919 52.1221C51.6415 51.8688 51.4752 51.6154 51.3089 51.3659C51.586 51.2313 51.8869 51.1165 52.2116 51.0294C53.0114 50.8196 53.732 51.0254 54.1437 51.453Z" fill="#45569A"/>
<path d="M24.374 37.4874L24.3819 40.4054C24.3859 42.4365 25.7202 44.4636 28.3848 46.0117C33.7496 49.1276 42.4758 49.1276 47.8762 46.0117C50.5923 44.4438 51.9503 42.385 51.9464 40.3262L51.9384 37.4082C51.9424 39.4631 50.5883 41.5219 47.8683 43.0937C42.4679 46.2097 33.7417 46.2097 28.3768 43.0937C25.7123 41.5417 24.378 39.5145 24.374 37.4874Z" fill="#48210E"/>
<mask id="mask0_76_6356" style="mask-type:luminance" maskUnits="userSpaceOnUse" x="24" y="37" width="28" height="12">
<path d="M24.3741 37.4874L24.382 40.4054C24.386 42.4365 25.7202 44.4636 28.3848 46.0117C33.7496 49.1276 42.4759 49.1276 47.8763 46.0117C50.5924 44.4438 51.9504 42.385 51.9464 40.3262L51.9385 37.4082C51.9425 39.4631 50.5884 41.5219 47.8684 43.0937C42.4679 46.2097 33.7417 46.2097 28.3769 43.0937C25.7123 41.5417 24.378 39.5145 24.3741 37.4874Z" fill="white"/>
</mask>
<g mask="url(#mask0_76_6356)">
<path d="M24.3741 37.4884L24.382 40.4064C24.382 40.8894 24.4612 41.3724 24.6116 41.8475L24.6037 38.9295C24.4533 38.4544 24.3741 37.9714 24.3741 37.4884Z" fill="#48210E"/>
<path d="M24.6036 38.9278L24.6115 41.8458C24.9678 42.9623 25.7399 44.0432 26.9237 45.0053L26.9158 42.0873C25.728 41.1252 24.9599 40.0443 24.6036 38.9278Z" fill="#48210E"/>
<path d="M26.9161 42.088L26.924 45.006C27.3555 45.3583 27.8425 45.6909 28.3889 46.0077C29.2322 46.4986 30.1627 46.9104 31.1485 47.2469L31.1406 44.3289C30.1547 43.9924 29.2283 43.5806 28.381 43.0897C27.8346 42.7769 27.3476 42.4404 26.9161 42.088Z" fill="#48210E"/>
<path d="M31.1368 44.3341L31.1447 47.2521C32.9026 47.8539 34.8426 48.2062 36.8144 48.3131L36.8064 45.3952C34.8347 45.2883 32.8947 44.9319 31.1368 44.3341Z" fill="#48210E"/>
<path d="M36.8067 45.3951L36.8146 48.313C38.3073 48.3962 39.8197 48.3368 41.2886 48.1349L41.2807 45.2169C39.8157 45.4188 38.3033 45.4782 36.8067 45.3951Z" fill="#48210E"/>
<path d="M41.2802 45.216L41.2881 48.134C43.6993 47.8054 45.9918 47.0967 47.8764 46.0079C50.5924 44.44 51.9505 42.3812 51.9465 40.3224L51.9386 37.4044C51.9425 39.4592 50.5885 41.5181 47.8684 43.0899C45.9838 44.1787 43.6954 44.8874 41.2802 45.216Z" fill="#48210E"/>
</g>
<path d="M28.4398 31.8042C23.0394 34.9202 23.0117 39.9762 28.3765 43.0921C33.7413 46.2081 42.4675 46.2081 47.8679 43.0921C53.2684 39.9762 53.2961 34.9202 47.9313 31.8003C42.5665 28.6883 33.8403 28.6883 28.4398 31.8042Z" fill="#682F14"/>
<path d="M25.6123 35.9465L25.6202 37.2728C25.6241 39.1218 26.8396 40.9668 29.2667 42.3763C34.1484 45.2151 42.0907 45.2151 47.0081 42.3763C49.4827 40.947 50.718 39.0743 50.7101 37.2015L50.7021 35.8752C50.7061 37.7479 49.4708 39.6207 47.0002 41.0499C42.0868 43.8887 34.1445 43.8887 29.2587 41.0499C26.8317 39.6365 25.6162 37.7954 25.6123 35.9465Z" fill="#F4A717"/>
<mask id="mask1_76_6356" style="mask-type:luminance" maskUnits="userSpaceOnUse" x="25" y="35" width="26" height="10">
<path d="M25.6124 35.9464L25.6203 37.2727C25.6242 39.1217 26.8397 40.9667 29.2668 42.3762C34.1486 45.215 42.0908 45.215 47.0083 42.3762C49.4828 40.9469 50.7181 39.0742 50.7102 37.2014L50.7023 35.8751C50.7062 37.7478 49.4709 39.6206 47.0003 41.0499C42.0869 43.8887 34.1446 43.8887 29.2589 41.0499C26.8318 39.6364 25.6163 37.7953 25.6124 35.9464Z" fill="white"/>
</mask>
<g mask="url(#mask1_76_6356)">
<path d="M25.6123 35.9455L25.6203 37.2719C25.6203 37.7114 25.6915 38.1508 25.8301 38.5824L25.8222 37.256C25.6836 36.8245 25.6123 36.385 25.6123 35.9455Z" fill="#F4A717"/>
<path d="M25.8184 37.258L25.8263 38.5844C26.151 39.6019 26.8518 40.5838 27.9287 41.4628L27.9208 40.1364C26.8438 39.2614 26.1431 38.2756 25.8184 37.258Z" fill="#F4A717"/>
<path d="M27.9248 40.135L27.9328 41.4613C28.3247 41.782 28.7721 42.0869 29.2631 42.372C30.0312 42.8194 30.8785 43.1955 31.7732 43.5004L31.7653 42.174C30.8666 41.8691 30.0233 41.493 29.2552 41.0456C28.7602 40.7605 28.3168 40.4557 27.9248 40.135Z" fill="#F4A717"/>
<path d="M31.7647 42.1779L31.7726 43.5043C33.3721 44.0507 35.138 44.3714 36.9355 44.4704L36.9276 43.144C35.1301 43.045 33.3642 42.7243 31.7647 42.1779Z" fill="#F4A717"/>
<path d="M36.9279 43.145L36.9359 44.4713C38.2939 44.5465 39.6717 44.4911 41.0099 44.309L41.002 42.9826C39.6638 43.1648 38.286 43.2202 36.9279 43.145Z" fill="#F4A717"/>
<path d="M41.002 42.9823L41.01 44.3086C43.2034 44.0077 45.2899 43.3663 47.0043 42.3725C49.4788 40.9433 50.7141 39.0705 50.7062 37.1978L50.6983 35.8714C50.7022 37.7442 49.4669 39.6169 46.9964 41.0462C45.282 42.04 43.1955 42.6853 41.002 42.9823Z" fill="#F4A717"/>
</g>
<path d="M29.3143 30.7717C24.4009 33.6105 24.3731 38.2111 29.2549 41.046C34.1367 43.8848 42.079 43.8848 46.9964 41.046C51.9099 38.2072 51.9376 33.6065 47.0558 30.7717C42.17 27.9329 34.2278 27.9329 29.3143 30.7717Z" fill="#FFC641"/>
<path d="M26.3652 34.6044L26.3732 35.8516C26.3771 37.5897 27.5213 39.3239 29.7979 40.6463C34.3867 43.3148 41.8539 43.3148 46.4704 40.6463C48.7945 39.3041 49.9546 37.5422 49.9506 35.7843L49.9427 34.5371C49.9466 36.295 48.7866 38.0569 46.4625 39.3991C41.842 42.0676 34.3788 42.0676 29.79 39.3991C27.5134 38.0727 26.3692 36.3386 26.3652 34.6044Z" fill="#893F24"/>
<mask id="mask2_76_6356" style="mask-type:luminance" maskUnits="userSpaceOnUse" x="26" y="34" width="24" height="9">
<path d="M26.3661 34.6025L26.374 35.8496C26.378 37.5877 27.5222 39.3219 29.7988 40.6443C34.3876 43.3129 41.8548 43.3129 46.4713 40.6443C48.7954 39.3021 49.9554 37.5402 49.9515 35.7823L49.9435 34.5352C49.9475 36.2931 48.7874 38.0549 46.4633 39.3971C41.8429 42.0657 34.3797 42.0657 29.7909 39.3971C27.5143 38.0708 26.3701 36.3366 26.3661 34.6025Z" fill="white"/>
</mask>
<g mask="url(#mask2_76_6356)">
<path d="M26.3661 34.6016L26.374 35.8487C26.374 36.2605 26.4413 36.6762 26.572 37.084L26.5641 35.8369C26.4334 35.4251 26.3661 35.0133 26.3661 34.6016Z" fill="#893F24"/>
<path d="M26.5643 35.834L26.5723 37.0812C26.8771 38.0353 27.5344 38.9618 28.5519 39.7853L28.544 38.5382C27.5264 37.7146 26.8692 36.7921 26.5643 35.834Z" fill="#893F24"/>
<path d="M28.5399 38.5371L28.5478 39.7843C28.9161 40.0852 29.3357 40.3703 29.799 40.6434C30.5235 41.0631 31.3154 41.4155 32.1587 41.7045L32.1508 40.4574C31.3075 40.1683 30.5156 39.816 29.7911 39.3963C29.3278 39.127 28.9121 38.838 28.5399 38.5371Z" fill="#893F24"/>
<path d="M32.1503 40.459L32.1582 41.7062C33.6627 42.2209 35.3217 42.5218 37.0083 42.6128L37.0004 41.3656C35.3137 41.2746 33.6548 40.9737 32.1503 40.459Z" fill="#893F24"/>
<path d="M37.0048 41.3653L37.0127 42.6125C38.2915 42.6837 39.5862 42.6323 40.8413 42.462L40.8334 41.2148C39.5743 41.3851 38.2797 41.4366 37.0048 41.3653Z" fill="#893F24"/>
<path d="M40.8329 41.2144L40.8408 42.4616C42.9036 42.1805 44.8634 41.5747 46.4749 40.6443C48.7989 39.3021 49.959 37.5402 49.9551 35.7823L49.9471 34.5352C49.9511 36.2931 48.791 38.0549 46.4669 39.3971C44.8516 40.3276 42.8957 40.9333 40.8329 41.2144Z" fill="#893F24"/>
</g>
<path d="M29.8455 29.7436C25.225 32.4121 25.2013 36.7357 29.7901 39.4003C34.3789 42.0688 41.846 42.0688 46.4626 39.4003C51.083 36.7317 51.1068 32.4082 46.518 29.7436C41.9292 27.0751 34.466 27.0751 29.8455 29.7436Z" fill="#B6623A"/>
<g opacity="0.4">
<path d="M31.2578 31.6075C28.2131 33.3654 28.1973 36.2161 31.2222 37.974C34.2471 39.7319 39.1684 39.7319 42.2091 37.974C45.2538 36.2161 45.2697 33.3654 42.2448 31.6075C39.2199 29.8496 34.3025 29.8496 31.2578 31.6075Z" fill="#893F24"/>
</g>
<mask id="mask3_76_6356" style="mask-type:luminance" maskUnits="userSpaceOnUse" x="29" y="27" width="15" height="11">
<path d="M29.8672 34.0271L30.861 35.9751C31.344 36.9213 32.4447 37.5508 34.0521 37.6459C37.2908 37.832 41.3609 35.7731 43.1466 33.0412C44.0453 31.6674 44.1918 30.3885 43.7009 29.4304L42.7071 27.4824C43.1941 28.4406 43.0476 29.7194 42.1528 31.0933C40.3711 33.8212 36.297 35.884 33.0584 35.6979C31.4509 35.6029 30.3502 34.9734 29.8672 34.0271Z" fill="white"/>
</mask>
<g mask="url(#mask3_76_6356)">
<path d="M29.8672 34.0271L30.861 35.9751C31.344 36.9213 32.4447 37.5508 34.0521 37.6459C37.2908 37.832 41.3609 35.7731 43.1466 33.0412C44.0453 31.6674 44.1918 30.3885 43.7009 29.4304L42.7071 27.4824C43.1941 28.4406 43.0476 29.7194 42.1528 31.0933C40.3711 33.8212 36.297 35.884 33.0584 35.6979C31.4509 35.6029 30.3502 34.9734 29.8672 34.0271Z" fill="#48210E"/>
</g>
<path d="M30.4241 30.419C28.6424 33.147 29.8223 35.5146 33.061 35.7007C36.2996 35.8868 40.3698 33.828 42.1554 31.0961C43.9371 28.3681 42.7572 26.0005 39.5185 25.8144C36.2759 25.6283 32.2057 27.6911 30.4241 30.419Z" fill="#381A0B"/>
<mask id="mask4_76_6356" style="mask-type:luminance" maskUnits="userSpaceOnUse" x="28" y="24" width="15" height="12">
<path d="M28.457 30.2953L30.112 33.5459C30.5634 34.4328 31.6007 35.0267 33.1131 35.1138C36.1578 35.2919 39.9864 33.3519 41.6612 30.7863C42.5045 29.4956 42.6431 28.2919 42.1838 27.3892L40.5288 24.1387C40.9881 25.0374 40.8495 26.245 40.0062 27.5357C38.3314 30.1013 34.5028 32.0374 31.4582 31.8632C29.9457 31.7761 28.9084 31.1822 28.457 30.2953Z" fill="white"/>
</mask>
<g mask="url(#mask4_76_6356)">
<path d="M28.457 30.2953L30.112 33.5459C30.5634 34.4328 31.6007 35.0267 33.1131 35.1138C36.1578 35.2919 39.9864 33.3519 41.6612 30.7863C42.5045 29.4956 42.6431 28.2919 42.1838 27.3892L40.5288 24.1387C40.9881 25.0374 40.8495 26.245 40.0062 27.5357C38.3314 30.1013 34.5028 32.0374 31.4582 31.8632C29.9457 31.7761 28.9084 31.1822 28.457 30.2953Z" fill="#682F14"/>
</g>
<path d="M28.9798 26.8989C27.3051 29.4645 28.4137 31.6896 31.4583 31.8638C34.503 32.042 38.3316 30.102 40.0064 27.5364C41.6812 24.9708 40.5726 22.7456 37.5279 22.5714C34.4832 22.3972 30.6546 24.3333 28.9798 26.8989Z" fill="#4E2A1A"/>
<mask id="mask5_76_6356" style="mask-type:luminance" maskUnits="userSpaceOnUse" x="24" y="16" width="18" height="17">
<path d="M24.2568 22.9705L28.2319 30.7702C28.715 31.7165 29.8157 32.346 31.4231 32.441C34.6618 32.6271 38.7319 30.5683 40.5136 27.8364C41.4123 26.4625 41.5588 25.1797 41.0679 24.2255L37.0928 16.4258C37.5798 17.3839 37.4333 18.6667 36.5385 20.0366C34.7568 22.7646 30.6867 24.8273 27.444 24.6413C25.8405 24.5462 24.7399 23.9128 24.2568 22.9705Z" fill="white"/>
</mask>
<g mask="url(#mask5_76_6356)">
<path d="M24.2568 22.9705L28.2319 30.7702C28.715 31.7165 29.8157 32.346 31.4231 32.441C34.6618 32.6271 38.7319 30.5683 40.5136 27.8364C41.4123 26.4625 41.5588 25.1797 41.0679 24.2255L37.0928 16.4258C37.5798 17.3839 37.4333 18.6667 36.5385 20.0366C34.7568 22.7646 30.6867 24.8273 27.444 24.6413C25.8405 24.5462 24.7399 23.9128 24.2568 22.9705Z" fill="#FFC641"/>
</g>
<mask id="mask6_76_6356" style="mask-type:luminance" maskUnits="userSpaceOnUse" x="24" y="16" width="18" height="17">
<path d="M24.2568 22.9705L28.2319 30.7702C28.715 31.7165 29.8157 32.346 31.4231 32.441C34.6618 32.6271 38.7319 30.5683 40.5136 27.8364C41.4123 26.4625 41.5588 25.1797 41.0679 24.2255L37.0928 16.4258C37.5798 17.3839 37.4333 18.6667 36.5385 20.0366C34.7568 22.7646 30.6867 24.8273 27.444 24.6413C25.8405 24.5462 24.7399 23.9128 24.2568 22.9705Z" fill="white"/>
</mask>
<g mask="url(#mask6_76_6356)">
<path d="M36.5388 20.0367C36.6655 19.8467 36.7724 19.6566 36.8674 19.4666L40.8425 27.2663C40.7475 27.4524 40.6367 27.6425 40.5139 27.8365C40.2882 28.1849 40.023 28.5214 39.73 28.8421L35.7549 21.0424C36.0518 20.7177 36.3131 20.3812 36.5388 20.0367Z" fill="#FFC641"/>
<path d="M37.0969 16.4215L41.072 24.2213C41.4917 25.0448 41.4402 26.1098 40.8464 27.2659L36.8712 19.4662C37.4651 18.3101 37.5166 17.245 37.0969 16.4215Z" fill="#F8B926"/>
<path d="M35.755 21.0388L39.7301 28.8386C38.8314 29.8205 37.6515 30.6717 36.3648 31.3013L32.3896 23.5015C33.6764 22.8759 34.8602 22.0247 35.755 21.0388Z" fill="#F8B926"/>
<path d="M32.3929 23.5017L36.3681 31.3015C34.7725 32.0815 33.0185 32.5209 31.4546 32.4378L27.4795 24.638C29.0394 24.7212 30.7934 24.2857 32.3929 23.5017Z" fill="#F4A717"/>
<path d="M27.448 24.6374C27.4559 24.6374 27.4678 24.6374 27.4797 24.6374L31.4548 32.4372C31.4429 32.4372 31.435 32.4372 31.4231 32.4372C29.8157 32.3421 28.715 31.7126 28.2319 30.7663L24.2568 22.9666C24.7399 23.9128 25.8405 24.5463 27.448 24.6374Z" fill="#F8B926"/>
</g>
<path d="M24.8118 19.3565C23.0301 22.0845 24.21 24.4521 27.4486 24.6382C30.6873 24.8243 34.7575 22.7655 36.5391 20.0336C38.3208 17.3056 37.1409 14.938 33.9023 14.7519C30.6675 14.5658 26.5974 16.6286 24.8118 19.3565Z" fill="#EE9815"/>
<mask id="mask7_76_6356" style="mask-type:luminance" maskUnits="userSpaceOnUse" x="22" y="12" width="15" height="12">
<path d="M22.7491 19.016L24.404 22.2666C24.8554 23.1574 25.8927 23.7474 27.4052 23.8345C30.4498 24.0126 34.2745 22.0726 35.9532 19.507C36.7965 18.2163 36.9351 17.0127 36.4758 16.1099L34.8209 12.8594C35.2801 13.7581 35.1416 14.9657 34.2982 16.2564C32.6235 18.822 28.7949 20.7581 25.7502 20.5839C24.2338 20.4968 23.2004 19.9029 22.7491 19.016Z" fill="white"/>
</mask>
<g mask="url(#mask7_76_6356)">
<path d="M22.7491 19.016L24.404 22.2666C24.8554 23.1574 25.8927 23.7474 27.4052 23.8345C30.4498 24.0126 34.2745 22.0726 35.9532 19.507C36.7965 18.2163 36.9351 17.0127 36.4758 16.1099L34.8209 12.8594C35.2801 13.7581 35.1416 14.9657 34.2982 16.2564C32.6235 18.822 28.7949 20.7581 25.7502 20.5839C24.2338 20.4968 23.2004 19.9029 22.7491 19.016Z" fill="#682F14"/>
</g>
<path d="M23.267 15.6157C21.5922 18.1813 22.7008 20.4064 25.7455 20.5806C28.7902 20.7588 32.6148 18.8188 34.2935 16.2532C35.9683 13.6875 34.8597 11.4624 31.815 11.2882C28.7704 11.114 24.9457 13.0501 23.267 15.6157Z" fill="#582C18"/>
<mask id="mask8_76_6356" style="mask-type:luminance" maskUnits="userSpaceOnUse" x="21" y="10" width="15" height="11">
<path d="M21.3604 17.2244L22.3541 19.1723C22.8372 20.1186 23.9378 20.7481 25.5453 20.8431C28.784 21.0292 32.8541 18.9704 34.6397 16.2385C35.5385 14.8646 35.685 13.5858 35.194 12.6276L34.2003 10.6797C34.6873 11.6378 34.5408 12.9167 33.646 14.2905C31.8643 17.0185 27.7902 19.0813 24.5515 18.8952C22.9441 18.8001 21.8434 18.1706 21.3604 17.2244Z" fill="white"/>
</mask>
<g mask="url(#mask8_76_6356)">
<path d="M21.3604 17.2244L22.3541 19.1723C22.8372 20.1186 23.9378 20.7481 25.5453 20.8431C28.784 21.0292 32.8541 18.9704 34.6397 16.2385C35.5385 14.8646 35.685 13.5858 35.194 12.6276L34.2003 10.6797C34.6873 11.6378 34.5408 12.9167 33.646 14.2905C31.8643 17.0185 27.7902 19.0813 24.5515 18.8952C22.9441 18.8001 21.8434 18.1706 21.3604 17.2244Z" fill="#48210E"/>
</g>
<path d="M21.9161 13.6163C20.1344 16.3442 21.3143 18.7119 24.5529 18.898C27.7916 19.0841 31.8618 17.0252 33.6474 14.2933C35.4291 11.5654 34.2492 9.19777 31.0105 9.01168C27.7679 8.8256 23.6978 10.8844 21.9161 13.6163Z" fill="#893F24"/>
<path d="M21.4959 14.0294C19.7934 16.6148 20.906 18.8399 23.9784 19.0062C27.0547 19.1725 30.9269 17.2087 32.6294 14.6273C34.3319 12.0418 33.2193 9.81674 30.1469 9.65045C27.0706 9.48416 23.1984 11.448 21.4959 14.0294Z" fill="#893F24"/>
<path d="M27.9635 26.3388C28.2447 26.0815 28.696 26.0102 29.2503 26.1884C30.351 26.5408 31.4398 27.7404 31.6813 28.8649C31.8001 29.4231 31.6892 29.8586 31.4121 30.112L28.2407 33.0102C28.5178 32.7568 28.6287 32.3213 28.5099 31.763C28.2684 30.6386 27.1796 29.439 26.0789 29.0866C25.5246 28.9084 25.0733 28.9797 24.7922 29.237L27.9635 26.3388Z" fill="#682F14"/>
<path d="M26.0792 29.0864C24.9786 28.734 24.2817 29.3596 24.5193 30.484C24.7608 31.6084 25.8496 32.8081 26.9503 33.1605C28.051 33.5129 28.7517 32.8873 28.5102 31.7629C28.2687 30.6384 27.1799 29.4388 26.0792 29.0864Z" fill="#48210E"/>
<path d="M24.9908 29.7516L3.94336 48.9302C4.01859 48.8629 4.10965 48.8115 4.21655 48.7758C4.43035 48.7085 4.68374 48.7283 4.94901 48.8115L25.9965 29.6328C25.7312 29.5496 25.4778 29.5298 25.264 29.5971C25.1571 29.6328 25.0661 29.6842 24.9908 29.7516Z" fill="#381A0B"/>
<mask id="mask9_76_6356" style="mask-type:luminance" maskUnits="userSpaceOnUse" x="3" y="29" width="23" height="20">
<path d="M24.9899 29.7496L3.94238 48.9283C4.01761 48.861 4.10867 48.8095 4.21557 48.7739C4.42937 48.7066 4.68277 48.7264 4.94804 48.8095L25.9955 29.6308C25.7302 29.5477 25.4768 29.5279 25.263 29.5952C25.1561 29.6308 25.0651 29.6823 24.9899 29.7496Z" fill="white"/>
</mask>
<g mask="url(#mask9_76_6356)">
<path d="M4.94804 48.8095L25.9955 29.6308C25.7302 29.5477 25.4768 29.5279 25.263 29.5952C25.1561 29.6269 25.0651 29.6823 24.9899 29.7496L3.94238 48.9283C4.01761 48.861 4.10867 48.8095 4.21557 48.7739C4.42937 48.7066 4.68277 48.7264 4.94804 48.8095Z" fill="#381A0B"/>
</g>
<path d="M6.63592 51.8779L27.6834 32.6992C28.0595 32.3548 28.008 31.6104 27.5131 30.8621C27.1172 30.2603 26.5312 29.809 25.9928 29.6348L4.94531 48.8135C5.48377 48.9877 6.06578 49.439 6.46567 50.0408C6.96454 50.7891 7.01205 51.5335 6.63592 51.8779Z" fill="#381A0B"/>
<mask id="mask10_76_6356" style="mask-type:luminance" maskUnits="userSpaceOnUse" x="4" y="29" width="24" height="23">
<path d="M6.6369 51.8799L27.6844 32.7012C28.0605 32.3567 28.009 31.6124 27.5141 30.8641C27.1182 30.2623 26.5322 29.8109 25.9938 29.6367L4.94629 48.8154C5.48475 48.9896 6.06676 49.441 6.46665 50.0428C6.96551 50.7911 7.01303 51.5354 6.6369 51.8799Z" fill="white"/>
</mask>
<g mask="url(#mask10_76_6356)">
<path d="M6.6369 51.8799L27.6844 32.7012C28.0605 32.3567 28.009 31.6124 27.5141 30.8641C27.1182 30.2623 26.5322 29.8109 25.9938 29.6367L4.94629 48.8154C5.48475 48.9896 6.06676 49.441 6.46665 50.0428C6.96551 50.7911 7.01303 51.5354 6.6369 51.8799Z" fill="#381A0B"/>
</g>
<path d="M4.94872 48.8125C4.68345 48.7293 4.43006 48.7095 4.21626 48.7768C3.56694 48.9788 3.51943 49.8696 4.10936 50.7683C4.50529 51.3701 5.09126 51.8215 5.62972 51.9957C5.89499 52.0789 6.14838 52.0987 6.36218 52.0313C7.0115 51.8294 7.05902 50.9386 6.46908 50.0398C6.0692 49.438 5.48718 48.9867 4.94872 48.8125Z" fill="#4A2818"/>
<path d="M6.03256 46.3174C6.31367 46.06 6.76502 45.9887 7.31932 46.1669C8.42 46.5193 9.5088 47.7189 9.75031 48.8434C9.86909 49.4016 9.75823 49.8372 9.48108 50.0905L3.76786 55.3049C4.04501 55.0515 4.15587 54.616 4.03709 54.0577C3.79557 52.9333 2.70677 51.7336 1.6061 51.3813C1.0518 51.2031 0.600444 51.2744 0.319336 51.5317L6.03256 46.3174Z" fill="#682F14"/>
<path d="M1.6064 51.3814C0.505726 51.0291 -0.191106 51.6546 0.0464501 52.7791C0.287966 53.9035 1.37676 55.1032 2.47744 55.4555C3.57812 55.8079 4.27891 55.1823 4.03739 54.0579C3.79984 52.9335 2.71104 51.7338 1.6064 51.3814Z" fill="#48210E"/>
</svg>
