<svg width="21" height="21" viewBox="0 0 21 21" fill="none" xmlns="http://www.w3.org/2000/svg">
<path d="M15.5 18.8327C14.8056 18.8327 14.2153 18.5896 13.7292 18.1035C13.2431 17.6174 13 17.0271 13 16.3327C13 16.2355 13.0069 16.1346 13.0208 16.0302C13.0347 15.9257 13.0556 15.8321 13.0833 15.7493L7.20833 12.3327C6.97222 12.541 6.70833 12.7043 6.41667 12.8227C6.125 12.941 5.81944 12.9999 5.5 12.9993C4.80556 12.9993 4.21528 12.7563 3.72917 12.2702C3.24306 11.7841 3 11.1938 3 10.4993C3 9.8049 3.24306 9.21463 3.72917 8.72852C4.21528 8.2424 4.80556 7.99935 5.5 7.99935C5.81944 7.99935 6.125 8.05852 6.41667 8.17685C6.70833 8.29518 6.97222 8.45824 7.20833 8.66602L13.0833 5.24935C13.0556 5.16602 13.0347 5.0724 13.0208 4.96852C13.0069 4.86463 13 4.76379 13 4.66602C13 3.97157 13.2431 3.38129 13.7292 2.89518C14.2153 2.40907 14.8056 2.16602 15.5 2.16602C16.1944 2.16602 16.7847 2.40907 17.2708 2.89518C17.7569 3.38129 18 3.97157 18 4.66602C18 5.36046 17.7569 5.95074 17.2708 6.43685C16.7847 6.92296 16.1944 7.16602 15.5 7.16602C15.1806 7.16602 14.875 7.10713 14.5833 6.98935C14.2917 6.87157 14.0278 6.70824 13.7917 6.49935L7.91667 9.91602C7.94444 9.99935 7.96528 10.0932 7.97917 10.1977C7.99306 10.3021 8 10.4027 8 10.4993C8 10.5966 7.99306 10.6974 7.97917 10.8018C7.96528 10.9063 7.94444 10.9999 7.91667 11.0827L13.7917 14.4993C14.0278 14.291 14.2917 14.128 14.5833 14.0102C14.875 13.8924 15.1806 13.8332 15.5 13.8327C16.1944 13.8327 16.7847 14.0757 17.2708 14.5618C17.7569 15.048 18 15.6382 18 16.3327C18 17.0271 17.7569 17.6174 17.2708 18.1035C16.7847 18.5896 16.1944 18.8327 15.5 18.8327Z" fill="#0093AD"/>
</svg>
