<svg width="73" height="72" viewBox="0 0 73 72" fill="none" xmlns="http://www.w3.org/2000/svg">
<circle cx="37.0004" cy="25" r="25" fill="#EBEBF9"/>
<path d="M22.8405 24.6994L22.3212 24.3989L21.3723 22.2599L21.8915 22.5619L22.8405 24.6994Z" fill="#FB6762"/>
<path d="M24.9018 16.1366L25.4211 16.4372C25.2743 16.3524 25.0718 16.3647 24.8477 16.4926L24.3284 16.1921C24.5525 16.0627 24.7565 16.0519 24.9018 16.1366Z" fill="#FB6762"/>
<mask id="mask0_105_16118" style="mask-type:luminance" maskUnits="userSpaceOnUse" x="24" y="16" width="2" height="1">
<path d="M24.9018 16.1366L25.4211 16.4372C25.2743 16.3524 25.0718 16.3647 24.8477 16.4926L24.3284 16.1921C24.5525 16.0627 24.7565 16.0519 24.9018 16.1366Z" fill="white"/>
</mask>
<g mask="url(#mask0_105_16118)">
<path d="M24.8477 16.4926L24.3284 16.1921C24.5525 16.0627 24.755 16.0519 24.9018 16.1366L25.4211 16.4372C25.2743 16.3524 25.0718 16.3647 24.8477 16.4926Z" fill="#FB6762"/>
</g>
<path d="M20.231 23.2411L19.7117 22.9406C19.5664 22.8574 19.4768 22.6786 19.4768 22.4259L19.996 22.7264C19.9976 22.9791 20.0872 23.1579 20.231 23.2411Z" fill="#FB6762"/>
<mask id="mask1_105_16118" style="mask-type:luminance" maskUnits="userSpaceOnUse" x="19" y="22" width="2" height="2">
<path d="M20.231 23.2411L19.7117 22.9406C19.5664 22.8574 19.4768 22.6786 19.4768 22.4259L19.996 22.7264C19.9976 22.9791 20.0872 23.1579 20.231 23.2411Z" fill="white"/>
</mask>
<g mask="url(#mask1_105_16118)">
<path d="M20.231 23.2411L19.7117 22.9406C19.5664 22.8574 19.4768 22.6786 19.4768 22.4259L19.996 22.7264C19.9976 22.9791 20.0872 23.1579 20.231 23.2411Z" fill="#FB6762"/>
</g>
<path d="M19.9964 22.7266L19.4771 22.4261L19.4709 19.9142L19.9902 20.2147L19.9964 22.7266Z" fill="#FB6762"/>
<path d="M20.7919 18.8267L20.2727 18.5262L24.328 16.1915L24.8473 16.492L20.7919 18.8267Z" fill="#FB6762"/>
<path d="M19.9902 20.2149L19.4709 19.9144C19.4694 19.4043 19.8295 18.7833 20.2746 18.5274L20.7938 18.8279C20.3472 19.0838 19.9886 19.7048 19.9902 20.2149Z" fill="#FB6762"/>
<mask id="mask2_105_16118" style="mask-type:luminance" maskUnits="userSpaceOnUse" x="19" y="18" width="2" height="3">
<path d="M19.9902 20.2149L19.4709 19.9144C19.4694 19.4043 19.8295 18.7833 20.2746 18.5274L20.7938 18.8279C20.3472 19.0838 19.9886 19.7048 19.9902 20.2149Z" fill="white"/>
</mask>
<g mask="url(#mask2_105_16118)">
<path d="M19.9902 20.2149L19.4709 19.9144C19.4694 19.4043 19.8295 18.7833 20.2746 18.5274L20.7938 18.8279C20.3472 19.0838 19.9886 19.7048 19.9902 20.2149Z" fill="#FB6762"/>
</g>
<path d="M24.8481 16.493C25.2932 16.2372 25.6549 16.4422 25.6564 16.9523L25.6641 19.4642C25.6657 19.9743 25.3056 20.5954 24.8605 20.8512L23.774 21.4769L22.839 24.7008L21.89 22.5618L20.8035 23.1875C20.3584 23.4433 19.9968 23.2383 19.9952 22.7282L19.9875 20.2163C19.986 19.7062 20.3461 19.0851 20.7912 18.8293L24.8481 16.493Z" fill="#FA433D"/>
<path d="M23.2988 18.267C23.5074 18.1468 23.7161 18.1145 23.8583 18.173C24.3312 18.3672 24.325 19.5569 22.6682 21.6805C21.0053 21.4678 20.9914 20.2889 21.4612 19.5523C21.6034 19.3288 21.8105 19.1223 22.0191 19.0021C22.2664 18.8603 22.5152 18.8388 22.659 19.0561C22.8042 18.6754 23.0515 18.4088 23.2988 18.267Z" fill="#F0F1F6"/>
<path d="M46.1977 20.4864L45.6784 20.1859L44.7295 18.0469L45.2488 18.3474L46.1977 20.4864Z" fill="#134A6E"/>
<path d="M48.259 11.9243L48.7783 12.2248C48.6315 12.1401 48.429 12.1524 48.2049 12.2803L47.6856 11.9798C47.9097 11.8503 48.1122 11.838 48.259 11.9243Z" fill="#FB6762"/>
<mask id="mask3_105_16118" style="mask-type:luminance" maskUnits="userSpaceOnUse" x="47" y="11" width="2" height="2">
<path d="M48.259 11.9243L48.7783 12.2248C48.6315 12.1401 48.429 12.1524 48.2049 12.2803L47.6856 11.9798C47.9097 11.8503 48.1122 11.838 48.259 11.9243Z" fill="white"/>
</mask>
<g mask="url(#mask3_105_16118)">
<path d="M48.2049 12.2797L47.6856 11.9791C47.9097 11.8497 48.1122 11.8389 48.259 11.9237L48.7783 12.2242C48.6315 12.1394 48.429 12.1502 48.2049 12.2797Z" fill="#134A6E"/>
</g>
<path d="M43.5882 19.0281L43.0689 18.7276C42.9236 18.6444 42.834 18.4656 42.834 18.2129L43.3533 18.5134C43.3548 18.7661 43.4445 18.9449 43.5882 19.0281Z" fill="#FB6762"/>
<mask id="mask4_105_16118" style="mask-type:luminance" maskUnits="userSpaceOnUse" x="42" y="18" width="2" height="2">
<path d="M43.5882 19.0281L43.0689 18.7276C42.9236 18.6444 42.834 18.4656 42.834 18.2129L43.3533 18.5134C43.3548 18.7661 43.4445 18.9449 43.5882 19.0281Z" fill="white"/>
</mask>
<g mask="url(#mask4_105_16118)">
<path d="M43.5882 19.0281L43.0689 18.7276C42.9236 18.6444 42.834 18.4656 42.834 18.2129L43.3533 18.5134C43.3548 18.7661 43.4445 18.9449 43.5882 19.0281Z" fill="#134A6E"/>
</g>
<path d="M43.3536 18.5136L42.8343 18.2131L42.8281 15.7012L43.3474 16.0017L43.3536 18.5136Z" fill="#134A6E"/>
<path d="M44.1492 14.6157L43.6299 14.3152L47.6853 11.9805L48.2046 12.281L44.1492 14.6157Z" fill="#134A6E"/>
<path d="M43.3474 16.002L42.8281 15.7015C42.8266 15.1914 43.1867 14.5703 43.6318 14.3145L44.1511 14.615C43.7044 14.8708 43.3459 15.4919 43.3474 16.002Z" fill="#FB6762"/>
<mask id="mask5_105_16118" style="mask-type:luminance" maskUnits="userSpaceOnUse" x="42" y="14" width="3" height="3">
<path d="M43.3474 16.002L42.8281 15.7015C42.8266 15.1914 43.1867 14.5703 43.6318 14.3145L44.1511 14.615C43.7044 14.8708 43.3459 15.4919 43.3474 16.002Z" fill="white"/>
</mask>
<g mask="url(#mask5_105_16118)">
<path d="M43.3474 16.002L42.8281 15.7015C42.8266 15.1914 43.1867 14.5703 43.6318 14.3145L44.1511 14.615C43.7044 14.8708 43.3459 15.4919 43.3474 16.002Z" fill="#134A6E"/>
</g>
<path d="M48.2053 12.28C48.6504 12.0242 49.0121 12.2292 49.0136 12.7393L49.0214 15.2512C49.0229 15.7613 48.6628 16.3824 48.2177 16.6382L47.1312 17.2639L46.1962 20.4878L45.2472 18.3488L44.1608 18.9745C43.7157 19.2303 43.354 19.0253 43.3525 18.5152L43.3447 16.0033C43.3432 15.4932 43.7033 14.8721 44.1484 14.6163L48.2053 12.28Z" fill="#1F2855"/>
<path d="M44.8693 16.6476L45.4736 16.2993L45.5555 15.6998L44.9465 16.0496L45.0084 15.5765L45.625 15.2205L45.7718 14.1819L46.152 13.963L46.0052 15.0017L46.4936 14.7212L46.6358 13.6856L47.016 13.4668L46.8738 14.5024L47.5538 14.111L47.4966 14.5825L46.8151 14.9755L46.7332 15.5796L47.4147 15.1866L47.3606 15.6551L46.6528 16.062L46.506 17.1007L46.1258 17.3195L46.2726 16.2808L45.7827 16.5582L45.6358 17.6015L45.2556 17.8203L45.4025 16.777L44.8105 17.1176L44.8693 16.6476ZM46.353 15.7984L46.4349 15.1943L45.9357 15.481L45.8538 16.0805L46.353 15.7984Z" fill="#F0F1F6"/>
<path d="M23.8589 27.7372L24.4817 28.0978C24.2716 27.976 23.9795 27.993 23.658 28.1779L23.0352 27.8173C23.3566 27.6308 23.6472 27.6139 23.8589 27.7372Z" fill="#FB6762"/>
<mask id="mask6_105_16118" style="mask-type:luminance" maskUnits="userSpaceOnUse" x="23" y="27" width="2" height="2">
<path d="M23.8589 27.7372L24.4817 28.0978C24.2716 27.976 23.9795 27.993 23.658 28.1779L23.0352 27.8173C23.3566 27.6308 23.6472 27.6139 23.8589 27.7372Z" fill="white"/>
</mask>
<g mask="url(#mask6_105_16118)">
<path d="M23.658 28.1787L23.0352 27.8181C23.3566 27.6332 23.6487 27.6162 23.8589 27.738L24.4817 28.0986C24.2716 27.9769 23.9795 27.9938 23.658 28.1787Z" fill="#FB6762"/>
</g>
<path d="M18.2468 40.6874L17.624 40.3268L15.6689 37.5898L16.2918 37.9505L18.2468 40.6874Z" fill="#E1312A"/>
<path d="M11.972 40.0452L11.3492 39.6846C11.1406 39.5644 11.0123 39.3086 11.0107 38.9434L11.6336 39.304C11.6351 39.6677 11.7634 39.9235 11.972 40.0452Z" fill="#FB6762"/>
<mask id="mask7_105_16118" style="mask-type:luminance" maskUnits="userSpaceOnUse" x="11" y="38" width="1" height="3">
<path d="M11.972 40.0452L11.3492 39.6846C11.1406 39.5644 11.0123 39.3086 11.0107 38.9434L11.6336 39.304C11.6351 39.6677 11.7634 39.9235 11.972 40.0452Z" fill="white"/>
</mask>
<g mask="url(#mask7_105_16118)">
<path d="M11.972 40.0452L11.3492 39.6846C11.1406 39.5644 11.0123 39.3086 11.0107 38.9434L11.6336 39.304C11.6351 39.6677 11.7634 39.9235 11.972 40.0452Z" fill="#FB6762"/>
</g>
<path d="M11.6337 39.3045L11.0108 38.9439L11 36.0744L11.6228 36.435L11.6337 39.3045Z" fill="#FB6762"/>
<path d="M12.7787 34.44L12.1543 34.0793L23.0331 27.8164L23.6575 28.177L12.7787 34.44Z" fill="#FB6762"/>
<path d="M11.6228 36.435L11 36.0744C10.9985 35.3424 11.5147 34.4485 12.1545 34.0802L12.7773 34.4408C12.139 34.8092 11.6213 35.703 11.6228 36.435Z" fill="#FB6762"/>
<mask id="mask8_105_16118" style="mask-type:luminance" maskUnits="userSpaceOnUse" x="11" y="34" width="2" height="3">
<path d="M11.6228 36.435L11 36.0744C10.9985 35.3424 11.5147 34.4485 12.1545 34.0802L12.7773 34.4408C12.139 34.8092 11.6213 35.703 11.6228 36.435Z" fill="white"/>
</mask>
<g mask="url(#mask8_105_16118)">
<path d="M11.6228 36.435L11 36.0744C10.9985 35.3424 11.5147 34.4485 12.1545 34.0802L12.7773 34.4408C12.139 34.8092 11.6213 35.703 11.6228 36.435Z" fill="#FB6762"/>
</g>
<path d="M23.6573 28.1779C24.2971 27.8096 24.818 28.1055 24.8195 28.839L24.8303 31.7085C24.8319 32.4405 24.3157 33.3344 23.6758 33.7027L20.1799 35.7153L18.248 40.6899L16.293 37.953L12.7971 39.9656C12.1572 40.3339 11.6364 40.0381 11.6348 39.3045L11.624 36.435C11.6225 35.703 12.1387 34.8092 12.7785 34.4409L23.6573 28.1779Z" fill="#EF403A"/>
<path d="M14.3507 34.933C14.771 34.6911 14.9658 34.8067 14.9658 35.3368C14.9658 35.7483 14.8483 36.0472 14.6752 36.2584C14.7818 36.3616 14.9565 36.6159 14.9889 37.1892C14.9889 37.2462 14.9781 37.2724 14.8514 37.3448C14.8081 37.3695 14.754 37.3972 14.6938 37.428C14.6567 36.7993 14.5006 36.5666 14.4171 36.4911L14.3537 36.5311L14.2332 36.6005V37.6315C14.2332 37.6931 14.2301 37.6946 13.9658 37.8472V35.2151C13.9658 35.2151 13.9658 35.1534 14.0199 35.1226L14.3507 34.933ZM14.38 36.2275C14.5701 36.1181 14.6675 35.9039 14.6675 35.4971C14.6675 35.2012 14.601 35.0625 14.4001 35.1781L14.2332 35.2736V36.3123L14.38 36.2275Z" fill="white"/>
<path d="M16.5015 36.3305C16.5077 36.369 16.4923 36.4014 16.3841 36.463C16.347 36.4846 16.2944 36.5154 16.2233 36.5478L16.0827 35.9437L15.5016 36.2781L15.3718 36.9839C15.361 37.0317 15.3517 37.0564 15.245 37.118C15.211 37.138 15.1415 37.1735 15.0781 37.2028L15.6762 34.2115C15.6824 34.1699 15.7195 34.1329 15.7767 34.1006C15.8231 34.0744 15.871 34.0513 15.9034 34.0389L16.5015 36.3305ZM16.024 35.6987L15.9096 35.2101C15.8555 34.9836 15.8061 34.7124 15.7921 34.5352C15.7721 34.7309 15.7257 35.0591 15.6716 35.3473L15.5588 35.9668L16.024 35.6987Z" fill="white"/>
<path d="M17.5681 33.0819V33.3084C17.5681 33.3577 17.5511 33.3839 17.5109 33.4071L17.0998 33.6444V35.9837C17.0998 36.0454 17.0937 36.0485 16.8294 36.201V33.7985L16.375 34.0605V33.8293C16.375 33.7877 16.392 33.7584 16.4322 33.7353L17.5681 33.0819Z" fill="white"/>
<path d="M17.7412 33.1226C17.7412 32.9809 17.7443 32.9778 18.0148 32.8221V35.4543C18.0148 35.5159 18.0086 35.519 17.7412 35.6731V33.1226Z" fill="white"/>
<path d="M19.2303 32.1859C19.2303 32.1243 19.2365 32.1212 19.5007 31.9686V34.6008C19.5007 34.6393 19.4807 34.6732 19.4436 34.6948L19.2426 34.8104L18.8578 33.9736C18.8006 33.8333 18.6244 33.3155 18.541 33.0643C18.5611 33.3032 18.575 34.0383 18.575 34.1986V35.134C18.575 35.1956 18.5719 35.1972 18.3076 35.3497V32.7176C18.3076 32.676 18.3246 32.6467 18.3617 32.6251L18.5657 32.508L18.9428 33.3294C19.0093 33.4866 19.1793 33.9936 19.2643 34.234V34.2263C19.2411 34.0121 19.2303 33.2724 19.2303 33.0951V32.1859Z" fill="white"/>
<path d="M20.8297 33.7622C20.7524 33.8793 20.6056 34.0642 20.3722 34.1983C19.9271 34.4541 19.7432 34.3169 19.7432 33.2367C19.7432 32.0331 20.0214 31.6308 20.4618 31.3766C20.6828 31.2502 20.8188 31.2672 20.8188 31.3673C20.8188 31.4398 20.8018 31.5199 20.7817 31.5892C20.7215 31.5692 20.6241 31.5877 20.5144 31.6509C20.1728 31.8466 20.0306 32.1872 20.0306 33.0486C20.0306 33.9687 20.1604 34.0164 20.3784 33.8916C20.4989 33.8223 20.5623 33.7236 20.5793 33.6805V32.7219L20.3289 32.8668V32.6711C20.3289 32.6295 20.3521 32.5956 20.3923 32.5724L20.8297 32.3197V33.7622Z" fill="white"/>
<path d="M21.2309 32.0383C21.0779 31.915 21.0207 31.7902 21.0207 31.6053C21.0207 31.2816 21.2247 30.938 21.5956 30.7238C21.9124 30.5404 22.033 30.5558 22.033 30.6637C22.033 30.7176 22.0129 30.7947 21.9665 30.8794C21.9232 30.8625 21.7934 30.8871 21.6389 30.975C21.438 31.0905 21.3112 31.2601 21.3112 31.4296C21.3112 31.5714 21.3684 31.6392 21.4642 31.7224L21.829 31.9859C22.0021 32.1246 22.0531 32.2679 22.0531 32.5068C22.0531 32.8998 21.9093 33.3128 21.458 33.5732C21.1536 33.7489 21.0176 33.7042 21.0176 33.5994C21.0176 33.5347 21.0408 33.4314 21.0871 33.3359C21.1567 33.3683 21.271 33.3652 21.4318 33.2727C21.6729 33.134 21.7625 32.9244 21.7625 32.6902C21.7625 32.5099 21.7161 32.4097 21.5647 32.2957L21.2309 32.0383Z" fill="white"/>
<path d="M45.395 36.369C45.4058 36.366 45.4151 36.3644 45.4243 36.3629C45.4305 36.3629 45.4352 36.3613 45.4413 36.3613C45.4522 36.3613 45.4614 36.3629 45.4707 36.3644C45.4753 36.366 45.48 36.366 45.4846 36.3675C45.4985 36.3721 45.5124 36.3767 45.5248 36.3844C45.5093 36.3767 45.4923 36.3675 45.4753 36.3583C45.4568 36.3475 45.4382 36.3382 45.4182 36.329C45.3981 36.3182 45.378 36.3074 45.3594 36.2981L45.2095 36.2319C45.1601 36.2118 45.092 36.1872 45.041 36.1687L44.8772 36.1178C44.8262 36.1024 44.7567 36.087 44.7041 36.0732L44.6469 36.0608C44.616 36.0547 44.5851 36.0485 44.5542 36.0423L44.531 36.0377C44.5295 36.0377 44.5264 36.0377 44.5249 36.0362C44.0967 35.956 43.6207 35.9437 43.1416 36.0315L43.1014 36.0377C43.0489 36.047 42.9778 36.0639 42.9253 36.0747L42.7568 36.1178C42.7043 36.1333 42.6347 36.1564 42.5837 36.1733L42.4261 36.2334C42.3055 36.2843 42.2993 36.2874 42.1123 36.3875L40.6286 37.2475L39.145 38.1074L37.6613 38.9673L36.1776 39.8272L34.6939 40.6871L33.2102 41.5471L31.7266 42.407L30.2429 43.2669L28.7592 44.1268L27.2755 44.9867L25.7918 45.8467L24.3081 46.7066L22.8245 47.5665L21.3408 48.4264L19.8571 49.2864L18.3734 50.1463L16.8897 51.0062L15.4061 51.8661L13.9224 52.726L12.4387 53.586C12.4495 53.5798 12.4603 53.5752 12.4712 53.5706L42.1417 36.3767C42.1942 36.3567 42.2514 36.3598 42.3148 36.3968C43.1385 35.9175 44.5017 35.9175 45.3316 36.3968C45.3471 36.3875 45.3625 36.3814 45.3764 36.3767C45.3841 36.3721 45.3888 36.3706 45.395 36.369Z" fill="#F0F1F6"/>
<path d="M42.1182 36.3853C42.1753 36.3513 42.2433 36.3529 42.316 36.3945C43.1397 35.9152 44.5029 35.9152 45.3328 36.3945C45.4039 36.3529 45.4719 36.3513 45.5275 36.3837C45.1736 36.1818 44.8491 36.1032 44.71 36.0693C44.5863 36.0401 44.254 35.9707 43.8229 35.9707C43.3901 35.9707 43.0563 36.0401 42.9311 36.0709C42.877 36.0847 42.8044 36.1017 42.7518 36.1186C42.6545 36.1495 42.5277 36.1942 42.4319 36.2311C42.3794 36.2512 42.3114 36.2835 42.2603 36.3097C42.2171 36.3298 42.1599 36.3621 42.1182 36.3853Z" fill="#F0F1F6"/>
<path d="M57.9166 43.6387L45.3331 36.3941C45.3455 36.388 45.3563 36.3818 45.3671 36.3772L45.9962 36.7393L46.6252 37.1015L47.2542 37.4636L47.8832 37.8258L48.5122 38.1879L49.1413 38.5501L49.7703 38.9122L50.3993 39.2744L51.0283 39.6365L51.6573 39.9987L52.2864 40.3609L52.9154 40.723L53.5444 41.0852L54.1734 41.4473L54.8024 41.8095L55.4315 42.1716L56.0605 42.5338L56.6895 42.8959L57.3185 43.2581L57.9475 43.6202C57.9398 43.6264 57.9274 43.631 57.9166 43.6387Z" fill="#F0F1F6"/>
<path d="M57.9506 43.6221L57.3216 43.26L56.6926 42.8978L56.0636 42.5357L55.4345 42.1735L54.8055 41.8114L54.1765 41.4492L53.5475 41.0871L52.9185 40.7249L52.2895 40.3628L51.6604 40.0006L51.0314 39.6384L50.4024 39.2763L49.7734 38.9141L49.1444 38.552L48.5153 38.1898L47.8863 37.8277L47.2573 37.4655L46.6283 37.1034L45.9993 36.7412L45.3702 36.3791C45.429 36.356 45.4831 36.359 45.5294 36.3852L46.7875 37.1095L48.0455 37.8338L49.3035 38.5582L50.5616 39.2825L51.8196 40.0068L53.0777 40.7311L54.3357 41.4554L55.5937 42.1797L56.8518 42.904L57.4808 43.2661L58.1098 43.6283C58.0634 43.6006 58.0094 43.5975 57.9506 43.6221Z" fill="#F0F1F6"/>
<path d="M59.0604 45.3555C59.0557 45.4834 59.0557 45.5003 59.0464 45.5774C59.031 45.6976 59.0047 45.7916 59.0032 45.7962C58.9707 45.9118 58.9213 46.0659 58.8162 46.2385C58.7049 46.4219 58.5843 46.5421 58.5503 46.5745C58.4901 46.6315 58.4081 46.7039 58.3417 46.7532C58.2783 46.801 58.1871 46.858 58.1191 46.8996C58.2227 46.8395 58.2907 46.67 58.2922 46.4327C58.8038 46.1353 59.0588 45.7454 59.0604 45.3555Z" fill="#95A1DC"/>
<mask id="mask9_105_16118" style="mask-type:luminance" maskUnits="userSpaceOnUse" x="58" y="45" width="2" height="2">
<path d="M59.0604 45.3555C59.0557 45.4834 59.0557 45.5003 59.0464 45.5774C59.031 45.6976 59.0047 45.7916 59.0032 45.7962C58.9707 45.9118 58.9213 46.0659 58.8162 46.2385C58.7049 46.4219 58.5843 46.5421 58.5503 46.5745C58.4901 46.6315 58.4081 46.7039 58.3417 46.7532C58.2783 46.801 58.1871 46.858 58.1191 46.8996C58.2227 46.8395 58.2907 46.67 58.2922 46.4327C58.8038 46.1353 59.0588 45.7454 59.0604 45.3555Z" fill="white"/>
</mask>
<g mask="url(#mask9_105_16118)">
<path d="M59.0606 45.3555C59.0327 46.2277 58.5444 46.6392 58.1209 46.8981C58.2244 46.838 58.2924 46.6685 58.294 46.4311C58.804 46.1353 59.059 45.7454 59.0606 45.3555Z" fill="#95A1DC"/>
</g>
<path d="M59.0601 45.1875V45.3555C59.0586 45.7454 58.8036 46.1353 58.292 46.4312V46.2632C58.8036 45.9673 59.0586 45.5774 59.0601 45.1875Z" fill="#BBC3E9"/>
<path d="M12.4385 53.5816C22.3312 47.8488 32.224 42.116 42.1167 36.3832C42.1739 36.3493 42.2419 36.3509 42.3146 36.3925L12.6363 53.5924C12.5637 53.5493 12.4957 53.5493 12.4385 53.5816Z" fill="#C7D0E9"/>
<mask id="mask10_105_16118" style="mask-type:luminance" maskUnits="userSpaceOnUse" x="12" y="36" width="31" height="18">
<path d="M12.4385 53.5816C22.3312 47.8488 32.224 42.116 42.1167 36.3832C42.1739 36.3493 42.2419 36.3509 42.3146 36.3925L12.6363 53.5924C12.5637 53.5493 12.4957 53.5493 12.4385 53.5816Z" fill="white"/>
</mask>
<g mask="url(#mask10_105_16118)">
<path d="M42.3159 36.3947L12.6361 53.5931C12.5773 53.5592 12.5202 53.5515 12.4707 53.5684L42.149 36.37C42.2 36.3531 42.2556 36.3608 42.3159 36.3947Z" fill="#F0F1F6"/>
</g>
<path d="M12.448 56.8525C12.2146 56.7077 11.5021 56.2685 11.499 55.293C11.4975 55.6875 11.7587 56.0835 12.2795 56.384C12.278 56.6245 12.346 56.794 12.448 56.8525Z" fill="#95A1DC"/>
<path d="M12.2795 56.218V56.386C11.7587 56.0855 11.499 55.691 11.499 55.2949V55.127C11.4975 55.5215 11.7587 55.9175 12.2795 56.218Z" fill="#BBC3E9"/>
<path d="M11.499 55.127C11.5207 54.4489 11.8189 53.9589 12.4387 53.5844C12.4959 53.5505 12.5639 53.552 12.6365 53.5936C11.8112 54.0714 11.8159 54.8589 12.6458 55.3366C12.4433 55.4537 12.2795 55.8482 12.278 56.2196C11.7587 55.9176 11.4975 55.5215 11.499 55.127Z" fill="#F0F1F6"/>
<path d="M12.4727 53.5684C11.3058 54.2387 11.2147 55.4855 12.2919 56.0402C12.2841 56.0988 12.2795 56.1589 12.2795 56.2175C11.7587 55.917 11.499 55.5224 11.499 55.1264C11.5006 55.0956 11.5006 55.0555 11.5021 55.0262C11.5129 54.8968 11.5145 54.8891 11.5284 54.8105L11.55 54.7118C11.5608 54.6764 11.5732 54.6271 11.584 54.5916L11.6196 54.4945C11.635 54.4576 11.6567 54.4082 11.6737 54.3713L11.7247 54.2757C11.7494 54.2356 11.7834 54.1817 11.8097 54.1432L11.8823 54.0476C11.924 53.9999 11.9812 53.9367 12.026 53.8904L12.128 53.798C12.2625 53.6932 12.2903 53.6716 12.4387 53.5822C12.4495 53.5761 12.4603 53.5714 12.4727 53.5684Z" fill="#BBC3E9"/>
<path d="M58.1209 46.8986L55.1535 48.6184L52.1862 50.3383L49.2188 52.0581L46.2514 53.778L43.2841 55.4978L40.3167 57.2176L37.3494 58.9375L34.382 60.6573L31.4146 62.3772L28.4473 64.097C28.5508 64.0369 28.6188 63.8674 28.6204 63.6301L58.2924 46.4316C58.2924 46.669 58.2229 46.8385 58.1209 46.8986Z" fill="#95A1DC"/>
<mask id="mask11_105_16118" style="mask-type:luminance" maskUnits="userSpaceOnUse" x="28" y="46" width="31" height="19">
<path d="M58.1209 46.8986L55.1535 48.6184L52.1862 50.3383L49.2188 52.0581L46.2514 53.778L43.2841 55.4978L40.3167 57.2176L37.3494 58.9375L34.382 60.6573L31.4146 62.3772L28.4473 64.097C28.5508 64.0369 28.6188 63.8674 28.6204 63.6301L58.2924 46.4316C58.2924 46.669 58.2229 46.8385 58.1209 46.8986Z" fill="white"/>
</mask>
<g mask="url(#mask11_105_16118)">
<path d="M28.614 63.6285L58.2922 46.4316C58.2922 46.669 58.2227 46.84 58.1191 46.8986L55.1518 48.6184L52.1844 50.3383L49.2171 52.0581L46.2497 53.778L43.2823 55.4978L40.315 57.2176L37.3476 58.9375L34.3802 60.6573L31.4129 62.3772L28.4455 64.097C28.5444 64.0369 28.6124 63.8674 28.614 63.6285Z" fill="#95A1DC"/>
</g>
<path d="M25.0316 64.0963L23.7736 63.372L22.5156 62.6477L21.2575 61.9234L19.9995 61.1991L18.7414 60.4748L17.4834 59.7505L16.2254 59.0262L14.9673 58.3019L13.7093 57.5776L12.4513 56.8533C12.3493 56.7947 12.2812 56.6236 12.2812 56.3848L24.8647 63.6294C24.8616 63.8682 24.9296 64.0378 25.0316 64.0963Z" fill="#95A1DC"/>
<mask id="mask12_105_16118" style="mask-type:luminance" maskUnits="userSpaceOnUse" x="12" y="56" width="14" height="9">
<path d="M25.0316 64.0963L23.7736 63.372L22.5156 62.6477L21.2575 61.9234L19.9995 61.1991L18.7414 60.4748L17.4834 59.7505L16.2254 59.0262L14.9673 58.3019L13.7093 57.5776L12.4513 56.8533C12.3493 56.7947 12.2812 56.6236 12.2812 56.3848L24.8647 63.6294C24.8616 63.8682 24.9296 64.0378 25.0316 64.0963Z" fill="white"/>
</mask>
<g mask="url(#mask12_105_16118)">
<path d="M12.2783 56.3828L24.8618 63.6274C24.8618 63.8663 24.9282 64.0373 25.0318 64.0959L23.7738 63.3716L22.5157 62.6473L21.2577 61.923L19.9996 61.1987L18.7416 60.4744L17.4836 59.7501L16.2255 59.0258L14.9675 58.3015L13.7095 57.5771L12.4514 56.8528C12.3463 56.7927 12.2783 56.6232 12.2783 56.3828Z" fill="#95A1DC"/>
</g>
<path d="M58.2925 46.2637V46.4317L28.6143 63.6285V63.4621L58.2925 46.2637Z" fill="#BBC3E9"/>
<path d="M24.8633 63.4614V63.6278L12.2783 56.3832L12.2799 56.2168L24.8633 63.4614Z" fill="#BBC3E9"/>
<path d="M28.2354 62.5793L57.9136 45.3809C57.943 45.3978 57.9708 45.4194 57.9986 45.4471L28.3204 62.6456C28.2925 62.6194 28.2647 62.5962 28.2354 62.5793Z" fill="#F0F1F6"/>
<path d="M12.6471 55.334L25.2306 62.5786C25.2028 62.5955 25.175 62.6171 25.1487 62.6433L12.5652 55.3987C12.5915 55.3725 12.6178 55.3509 12.6471 55.334Z" fill="#F0F1F6"/>
<path d="M12.5637 55.3984L25.1472 62.643C25.0807 62.7093 25.0205 62.8049 24.9726 62.9174L12.3906 55.6727C12.4385 55.5603 12.4973 55.4647 12.5637 55.3984Z" fill="#F0F1F6"/>
<path d="M12.3909 55.6738L24.9744 62.9184C24.928 63.0294 24.8925 63.1558 24.8755 63.2852L12.292 56.0406C12.309 55.9112 12.343 55.7848 12.3909 55.6738Z" fill="#F0F1F6"/>
<path d="M12.2917 56.0391L24.8751 63.2837C24.8674 63.3422 24.8628 63.4023 24.8628 63.4609L12.2793 56.2163C12.2793 56.1577 12.2824 56.0976 12.2917 56.0391Z" fill="#BBC3E9"/>
<path d="M28.4407 64.0978C28.3974 64.1209 28.3418 64.1533 28.2985 64.1749C28.2475 64.1995 28.1795 64.2319 28.127 64.2535C28.0327 64.2904 27.9044 64.3351 27.8071 64.366C27.7545 64.3829 27.6819 64.3999 27.6278 64.4122C27.5041 64.443 27.1688 64.5124 26.736 64.5124C26.3048 64.5124 25.971 64.443 25.8489 64.4137C25.7964 64.4014 25.7268 64.3844 25.6758 64.369C25.5784 64.3382 25.4502 64.2951 25.3543 64.2581C25.3482 64.2565 25.2091 64.2026 25.0313 64.0993C24.9293 64.0408 24.8613 63.8697 24.8613 63.6309C25.8968 64.2273 27.5845 64.2273 28.6123 63.6309C28.6123 63.8682 28.5443 64.0377 28.4407 64.0978Z" fill="#95A1DC"/>
<mask id="mask13_105_16118" style="mask-type:luminance" maskUnits="userSpaceOnUse" x="24" y="63" width="5" height="2">
<path d="M28.4407 64.0978C28.3974 64.1209 28.3418 64.1533 28.2985 64.1749C28.2475 64.1995 28.1795 64.2319 28.127 64.2535C28.0327 64.2904 27.9044 64.3351 27.8071 64.366C27.7545 64.3829 27.6819 64.3999 27.6278 64.4122C27.5041 64.443 27.1688 64.5124 26.736 64.5124C26.3048 64.5124 25.971 64.443 25.8489 64.4137C25.7964 64.4014 25.7268 64.3844 25.6758 64.369C25.5784 64.3382 25.4502 64.2951 25.3543 64.2581C25.3482 64.2565 25.2091 64.2026 25.0313 64.0993C24.9293 64.0408 24.8613 63.8697 24.8613 63.6309C25.8968 64.2273 27.5845 64.2273 28.6123 63.6309C28.6123 63.8682 28.5443 64.0377 28.4407 64.0978Z" fill="white"/>
</mask>
<g mask="url(#mask13_105_16118)">
<path d="M28.4407 64.0978C27.2352 64.7466 25.8288 64.5524 25.0313 64.0993C24.9293 64.0408 24.8613 63.8697 24.8613 63.6309C25.8968 64.2273 27.5845 64.2273 28.6123 63.6309C28.6123 63.8682 28.5443 64.0377 28.4407 64.0978Z" fill="#95A1DC"/>
</g>
<path d="M28.6142 63.4629V63.6309C27.5865 64.2273 25.8972 64.2273 24.8633 63.6309V63.4629C25.8972 64.0577 27.5865 64.0577 28.6142 63.4629Z" fill="#BBC3E9"/>
<path d="M28.6022 63.2843C28.562 62.973 28.4183 62.6772 28.2483 62.5801C27.4245 63.0594 26.0614 63.0594 25.2314 62.5801C25.0614 62.6787 24.9177 62.9746 24.876 63.2859C25.9084 63.87 27.5775 63.87 28.6022 63.2843Z" fill="#F0F1F6"/>
<path d="M24.8756 63.2853C24.8679 63.3438 24.8633 63.4039 24.8633 63.4625C25.8988 64.0589 27.5865 64.0589 28.6142 63.4625C28.6142 63.4039 28.6096 63.3438 28.6018 63.2853C27.5772 63.8709 25.908 63.8709 24.8756 63.2853Z" fill="#BBC3E9"/>
<path d="M25.2311 62.5795C26.061 63.0587 27.4226 63.0587 28.2479 62.5795C28.4195 62.6781 28.5617 62.9724 28.6018 63.2837C28.6065 63.2822 28.6096 63.2791 28.6142 63.2776C28.6158 62.9077 28.4504 62.5117 28.2479 62.3945C27.4242 62.8738 26.061 62.8738 25.2311 62.3945C25.0287 62.5117 24.8648 62.9062 24.8633 63.2776C24.8679 63.2807 24.8726 63.2822 24.8756 63.2837C24.9174 62.974 25.0611 62.6781 25.2311 62.5795Z" fill="#F0F1F6"/>
<path d="M57.9264 45.3802C58.7517 44.9025 58.747 44.115 57.9171 43.6373C53.7226 41.2224 49.5281 38.8075 45.3336 36.3927C44.5037 35.9134 43.1421 35.9134 42.3168 36.3927C42.1854 36.4682 42.0541 36.5452 41.9227 36.6207L57.5323 45.6083C57.6636 45.5328 57.795 45.4573 57.9264 45.3802Z" fill="#F0F1F6"/>
<path d="M41.9227 36.623C32.1613 42.2803 22.3999 47.9361 12.6385 53.5934C11.8132 54.0711 11.8179 54.8586 12.6478 55.3364C16.8423 57.7512 21.0368 60.1661 25.2313 62.581C26.0612 63.0602 27.4228 63.0602 28.2481 62.581C38.0095 56.9237 47.7709 51.2679 57.5323 45.6106L41.9227 36.623Z" fill="url(#paint0_linear_105_16118)"/>
<path d="M58.0005 45.4492L28.3223 62.6476C28.4552 62.7802 28.5819 63.0206 28.6159 63.2795L58.2911 46.1951C58.2756 45.8992 58.1504 45.6002 58.0005 45.4492Z" fill="#F0F1F6"/>
<path d="M28.6016 63.2855C28.6093 63.344 28.6139 63.4041 28.6139 63.4627L58.2922 46.2642C58.2922 46.2411 58.2906 46.2165 58.2891 46.1934L28.6016 63.2855Z" fill="#BBC3E9"/>
<path d="M58.1117 43.6282C58.3451 43.773 59.0576 44.2122 59.0607 45.1877C59.0591 45.5776 58.8041 45.9675 58.2925 46.2634C58.2848 45.9151 58.1287 45.4975 57.9263 45.3804C58.7516 44.9026 58.7469 44.1151 57.917 43.6374C57.9881 43.5973 58.0545 43.5958 58.1117 43.6282Z" fill="#F0F1F6"/>
<path d="M59.0514 45.0078C59.0529 45.0448 59.056 45.0802 59.0576 45.1188C59.056 45.5087 58.801 45.8986 58.291 46.1944C58.2926 46.2176 58.2941 46.2422 58.2941 46.2653C58.8057 45.9694 59.0607 45.5796 59.0622 45.1897C59.0607 45.1249 59.0576 45.0648 59.0514 45.0078Z" fill="#BBC3E9"/>
<path d="M45.0033 37.361C44.7189 37.5243 44.7174 37.7894 45.0002 37.9528C45.283 38.1161 45.7436 38.1146 46.028 37.9512C46.3124 37.7879 46.3139 37.5228 46.0295 37.3594C45.7482 37.1976 45.2877 37.1976 45.0033 37.361Z" fill="#0A1934"/>
<path d="M44.0817 36.8014C43.9009 36.9062 43.8993 37.0742 44.0802 37.1775C44.261 37.2807 44.5531 37.2807 44.7339 37.1759C44.9147 37.0711 44.9163 36.9032 44.7355 36.7999C44.5562 36.6967 44.2641 36.6967 44.0817 36.8014Z" fill="#0A1934"/>
<path d="M50.0427 40.7358L49.0134 40.1425C48.8109 40.0269 48.8125 39.8358 49.0149 39.7187C49.2174 39.6016 49.5497 39.6016 49.7506 39.7172L50.7799 40.3105C50.9824 40.4261 50.9808 40.6172 50.7784 40.7343C50.5759 40.8514 50.2452 40.8514 50.0427 40.7358Z" fill="#0A1934"/>
<path d="M24.002 63.1769C24.002 63.311 24.0978 63.4759 24.2137 63.5437C24.2971 63.593 24.3713 63.5776 24.4053 63.5144C24.4192 63.4897 24.427 63.4589 24.427 63.4219C24.427 63.2863 24.3311 63.1229 24.2152 63.0536C24.1859 63.0366 24.1565 63.0274 24.1318 63.0259C24.0545 63.0197 24.002 63.0752 24.002 63.1769Z" fill="#DFE1F6"/>
<path d="M24.1084 63.1214C24.1084 63.2554 24.2042 63.4203 24.3201 63.4881C24.3495 63.5051 24.3789 63.5143 24.4036 63.5159C24.4175 63.4912 24.4252 63.4604 24.4252 63.4234C24.4252 63.2878 24.3294 63.1244 24.2135 63.0551C24.1841 63.0381 24.1548 63.0289 24.13 63.0273C24.1161 63.0505 24.1084 63.0828 24.1084 63.1214Z" fill="#0A1934"/>
<path d="M17.791 59.569C17.791 59.7031 17.8868 59.8664 18.0027 59.9342L18.5885 60.2717C18.6225 60.2902 18.655 60.301 18.6828 60.301C18.7214 60.301 18.7523 60.2841 18.7724 60.2532C18.7894 60.2286 18.8002 60.1931 18.8002 60.15C18.8002 60.0159 18.7044 59.8525 18.5885 59.7847L18.0027 59.4472C17.9811 59.4349 17.9595 59.4257 17.9409 59.4226C17.9301 59.4195 17.9193 59.418 17.9085 59.418C17.8405 59.418 17.791 59.4734 17.791 59.569Z" fill="#DFE1F6"/>
<path d="M17.9141 59.5232C17.9141 59.6572 18.0099 59.8206 18.1258 59.8884L18.7131 60.2259C18.7347 60.2382 18.7548 60.2475 18.7749 60.2506C18.7919 60.2259 18.8027 60.1905 18.8027 60.1473C18.8027 60.0132 18.7069 59.8499 18.591 59.7821L18.0052 59.4446C17.9836 59.4323 17.962 59.423 17.9434 59.4199C17.9249 59.4461 17.9141 59.4816 17.9141 59.5232Z" fill="#0A1934"/>
<path d="M36.5119 25.8008L36.6325 44.2598L44.8792 49.0387L44.7587 30.5797L36.5119 25.8008Z" fill="#D6DBF2"/>
<path d="M44.759 30.5797L44.8795 49.0387L53.1804 44.2598L53.0599 25.8008L44.759 30.5797Z" fill="#BBC3E9"/>
<path d="M36.5119 25.8004L44.7587 30.5793L53.0596 25.8004L44.8128 21.0215L36.5119 25.8004Z" fill="#F0F1F6"/>
<path d="M25.9978 19.7871L26.1184 50.3112L34.3652 55.0901L34.2446 24.566L25.9978 19.7871Z" fill="#0093AD"/>
<path d="M34.2449 24.566L34.3655 55.0901L42.6664 50.3112L42.5458 19.7871L34.2449 24.566Z" fill="#006B89"/>
<path d="M25.9978 19.7871L34.2446 24.566L42.5455 19.7871L34.2987 15.0098L25.9978 19.7871Z" fill="#53AFC3"/>
<path d="M15.4854 44.9004L15.6059 56.3645L23.8527 61.1434L23.7321 49.6777L15.4854 44.9004Z" fill="#D6DBF2"/>
<path d="M23.7324 49.6777L23.853 61.1434L32.1539 56.3645L32.0333 44.9004L23.7324 49.6777Z" fill="#BBC3E9"/>
<path d="M15.4854 44.9L23.7321 49.6773L32.033 44.9L23.7862 40.1211L15.4854 44.9Z" fill="#F0F1F6"/>
<path d="M40.1694 9.41838L38.3209 8.34733C38.2622 8.31343 38.1849 8.30726 38.0938 8.33963L39.9422 9.41068C40.0334 9.37831 40.1106 9.38448 40.1694 9.41838Z" fill="#FBB400"/>
<mask id="mask14_105_16118" style="mask-type:luminance" maskUnits="userSpaceOnUse" x="38" y="8" width="3" height="2">
<path d="M40.1694 9.41838L38.3209 8.34733C38.2622 8.31343 38.1849 8.30726 38.0938 8.33963L39.9422 9.41068C40.0334 9.37831 40.1106 9.38448 40.1694 9.41838Z" fill="white"/>
</mask>
<g mask="url(#mask14_105_16118)">
<path d="M40.1694 9.41838L38.3209 8.34733C38.2622 8.31343 38.1849 8.30726 38.0938 8.33963L39.9422 9.41068C40.0334 9.37831 40.1106 9.38448 40.1694 9.41838Z" fill="#FBB400"/>
</g>
<path d="M29.4023 21.1292L31.2507 22.2003C31.1611 22.1479 31.1085 22.0323 31.1255 21.8582L29.2771 20.7871C29.2616 20.9597 29.3142 21.0768 29.4023 21.1292Z" fill="#FBB400"/>
<mask id="mask15_105_16118" style="mask-type:luminance" maskUnits="userSpaceOnUse" x="29" y="20" width="3" height="3">
<path d="M29.4023 21.1292L31.2507 22.2003C31.1611 22.1479 31.1085 22.0323 31.1255 21.8582L29.2771 20.7871C29.2616 20.9597 29.3142 21.0768 29.4023 21.1292Z" fill="white"/>
</mask>
<g mask="url(#mask15_105_16118)">
<path d="M31.1255 21.8564L29.2771 20.7854C29.2616 20.9595 29.3126 21.0766 29.4023 21.1275L31.2507 22.1985C31.1611 22.1477 31.1085 22.0305 31.1255 21.8564Z" fill="#FBB400"/>
</g>
<path d="M39.9419 9.41089L38.095 8.33984L35.0674 9.38315L36.9143 10.4542L39.9419 9.41089Z" fill="#FBB400"/>
<path d="M34.839 9.37299L36.6874 10.444C36.7492 10.4795 36.828 10.4841 36.9146 10.4533L35.0662 9.38223C34.9796 9.41305 34.9008 9.40843 34.839 9.37299Z" fill="#FBB400"/>
<mask id="mask16_105_16118" style="mask-type:luminance" maskUnits="userSpaceOnUse" x="34" y="9" width="3" height="2">
<path d="M34.839 9.37299L36.6874 10.444C36.7492 10.4795 36.828 10.4841 36.9146 10.4533L35.0662 9.38223C34.9796 9.41305 34.9008 9.40843 34.839 9.37299Z" fill="white"/>
</mask>
<g mask="url(#mask16_105_16118)">
<path d="M36.9146 10.4533L35.0662 9.38223C34.9796 9.41151 34.8993 9.40843 34.839 9.37299L36.6874 10.444C36.7492 10.4795 36.828 10.4826 36.9146 10.4533Z" fill="#FBB400"/>
</g>
<path d="M31.4694 18.1379L29.621 17.0684L29.2764 20.7839L31.1248 21.8549L31.4694 18.1379Z" fill="#FBB400"/>
<path d="M31.3553 17.8035L29.5068 16.7324C29.5949 16.791 29.6367 16.9127 29.6212 17.0684L31.4696 18.1394C31.4835 17.9838 31.4418 17.862 31.3553 17.8035Z" fill="#FBB400"/>
<mask id="mask17_105_16118" style="mask-type:luminance" maskUnits="userSpaceOnUse" x="29" y="16" width="3" height="3">
<path d="M31.3553 17.8035L29.5068 16.7324C29.5949 16.791 29.6367 16.9127 29.6212 17.0684L31.4696 18.1394C31.4835 17.9838 31.4418 17.862 31.3553 17.8035Z" fill="white"/>
</mask>
<g mask="url(#mask17_105_16118)">
<path d="M31.3553 17.8035L29.5068 16.7324C29.5949 16.791 29.6367 16.9127 29.6212 17.0684L31.4696 18.1394C31.4835 17.9838 31.4418 17.862 31.3553 17.8035Z" fill="#FBB400"/>
</g>
<path d="M32.8156 12.5652L30.9672 11.4941C30.9039 11.659 30.7957 11.8116 30.6689 11.9133L32.5174 12.9844C32.6426 12.8842 32.7523 12.7301 32.8156 12.5652Z" fill="#FBB400"/>
<mask id="mask18_105_16118" style="mask-type:luminance" maskUnits="userSpaceOnUse" x="30" y="11" width="3" height="2">
<path d="M32.8156 12.5652L30.9672 11.4941C30.9039 11.659 30.7957 11.8116 30.6689 11.9133L32.5174 12.9844C32.6426 12.8842 32.7523 12.7301 32.8156 12.5652Z" fill="white"/>
</mask>
<g mask="url(#mask18_105_16118)">
<path d="M32.8156 12.5652L30.9672 11.4941C30.9039 11.659 30.7957 11.8116 30.6689 11.9133L32.5174 12.9844C32.6426 12.8842 32.7523 12.7301 32.8156 12.5652Z" fill="#FBB400"/>
</g>
<path d="M35.0198 8.10005L33.1714 7.029C33.0848 6.97968 32.972 6.99509 32.8577 7.06136L34.7061 8.13241C34.8204 8.06614 34.9348 8.04919 35.0198 8.10005Z" fill="#FBB400"/>
<mask id="mask19_105_16118" style="mask-type:luminance" maskUnits="userSpaceOnUse" x="32" y="7" width="4" height="2">
<path d="M35.0198 8.10005L33.1714 7.029C33.0848 6.97968 32.972 6.99509 32.8577 7.06136L34.7061 8.13241C34.8204 8.06614 34.9348 8.04919 35.0198 8.10005Z" fill="white"/>
</mask>
<g mask="url(#mask19_105_16118)">
<path d="M35.0198 8.10005L33.1714 7.029C33.0848 6.97968 32.972 6.99509 32.8577 7.06136L34.7061 8.13241C34.8204 8.06614 34.9348 8.04919 35.0198 8.10005Z" fill="#FBB400"/>
</g>
<path d="M34.3215 8.61206L32.4731 7.54102L30.9678 11.4954L32.8162 12.5649L34.3215 8.61206Z" fill="#FBB400"/>
<path d="M34.7059 8.1316L32.8575 7.06055C32.7076 7.14685 32.5577 7.31945 32.4727 7.53982L34.3211 8.61087C34.4045 8.3905 34.556 8.2179 34.7059 8.1316Z" fill="#FBB400"/>
<mask id="mask20_105_16118" style="mask-type:luminance" maskUnits="userSpaceOnUse" x="32" y="7" width="3" height="2">
<path d="M34.7059 8.1316L32.8575 7.06055C32.7076 7.14685 32.5577 7.31945 32.4727 7.53982L34.3211 8.61087C34.4045 8.3905 34.556 8.2179 34.7059 8.1316Z" fill="white"/>
</mask>
<g mask="url(#mask20_105_16118)">
<path d="M34.7059 8.1316L32.8575 7.06055C32.7076 7.14685 32.5577 7.31945 32.4727 7.53982L34.3211 8.61087C34.4045 8.3905 34.556 8.2179 34.7059 8.1316Z" fill="#FBB400"/>
</g>
<path d="M29.2586 16.4031L27.4102 15.332L29.5074 16.7313L31.3558 17.8024L29.2586 16.4031Z" fill="#FBB400"/>
<path d="M32.5179 12.9851L30.6695 11.9141L27.6465 14.3551L29.4949 15.4246L32.5179 12.9851Z" fill="#FBB400"/>
<path d="M34.7063 8.13277C34.5564 8.21907 34.4065 8.39167 34.3215 8.61205L32.8161 12.5649C32.7528 12.7298 32.6446 12.8824 32.5179 12.9841L29.4949 15.4252C29.1564 15.6979 29.025 16.2465 29.2584 16.4022L31.3541 17.8015C31.4422 17.8601 31.4839 17.9818 31.4685 18.1374L31.1238 21.8545C31.0929 22.1889 31.3139 22.3122 31.5643 22.1674C31.6246 22.1319 31.6879 22.0811 31.7482 22.0148L34.5502 18.9265C34.6089 18.8618 34.6723 18.8094 34.7341 18.7739C34.7975 18.7369 34.8593 18.7169 34.918 18.7138L37.7277 18.5705C37.7896 18.5674 37.8514 18.5458 37.9117 18.5104C38.162 18.3655 38.3815 17.988 38.349 17.6905L37.9843 14.3818C37.9688 14.2431 38.0106 14.0736 38.0971 13.9149L40.1789 10.11C40.4107 9.68464 40.2763 9.29012 39.9378 9.40725L36.9102 10.4506C36.7834 10.4937 36.6753 10.466 36.6119 10.3735L35.088 8.1636C35.0077 8.04493 34.8562 8.04493 34.7063 8.13277Z" fill="#FBD037"/>
<path d="M29.4946 15.4248L27.6462 14.3537C27.3078 14.6265 27.1764 15.1751 27.4098 15.3308L29.2582 16.4018C29.0233 16.2462 29.1562 15.6975 29.4946 15.4248Z" fill="#FBB400"/>
<mask id="mask21_105_16118" style="mask-type:luminance" maskUnits="userSpaceOnUse" x="27" y="14" width="3" height="3">
<path d="M29.4946 15.4248L27.6462 14.3537C27.3078 14.6265 27.1764 15.1751 27.4098 15.3308L29.2582 16.4018C29.0233 16.2462 29.1562 15.6975 29.4946 15.4248Z" fill="white"/>
</mask>
<g mask="url(#mask21_105_16118)">
<path d="M29.4946 15.4248L27.6462 14.3537C27.3078 14.6265 27.1764 15.1751 27.4098 15.3308L29.2582 16.4018C29.0233 16.2462 29.1562 15.6975 29.4946 15.4248Z" fill="#FBB400"/>
</g>
<path d="M27.5155 39.3035L26.4259 38.6732C26.3919 38.6531 26.3455 38.65 26.293 38.6685L27.3825 39.2988C27.4351 39.2788 27.4799 39.2834 27.5155 39.3035Z" fill="#D6DBF2"/>
<mask id="mask22_105_16118" style="mask-type:luminance" maskUnits="userSpaceOnUse" x="26" y="38" width="2" height="2">
<path d="M27.5155 39.3035L26.4259 38.6732C26.3919 38.6531 26.3455 38.65 26.293 38.6685L27.3825 39.2988C27.4351 39.2788 27.4799 39.2834 27.5155 39.3035Z" fill="white"/>
</mask>
<g mask="url(#mask22_105_16118)">
<path d="M27.5155 39.3035L26.4259 38.6732C26.3919 38.6531 26.3455 38.65 26.293 38.6685L27.3825 39.2988C27.4351 39.2788 27.4799 39.2834 27.5155 39.3035Z" fill="#D6DBF2"/>
</g>
<path d="M21.1696 46.2034L22.2591 46.8337C22.2066 46.8029 22.1757 46.7351 22.185 46.6318L21.0954 46C21.0861 46.1033 21.117 46.1726 21.1696 46.2034Z" fill="#D6DBF2"/>
<mask id="mask23_105_16118" style="mask-type:luminance" maskUnits="userSpaceOnUse" x="21" y="46" width="2" height="1">
<path d="M21.1696 46.2034L22.2591 46.8337C22.2066 46.8029 22.1757 46.7351 22.185 46.6318L21.0954 46C21.0861 46.1033 21.117 46.1726 21.1696 46.2034Z" fill="white"/>
</mask>
<g mask="url(#mask23_105_16118)">
<path d="M22.185 46.6318L21.0954 46C21.0861 46.1033 21.117 46.1711 21.1696 46.2019L22.2591 46.8322C22.2051 46.8029 22.1741 46.7351 22.185 46.6318Z" fill="#D6DBF2"/>
</g>
<path d="M27.3809 39.2963L26.2929 38.666L24.5078 39.2809L25.5974 39.9112L27.3809 39.2963Z" fill="#D6DBF2"/>
<path d="M24.374 39.2754L25.4636 39.9057C25.4991 39.9273 25.5471 39.9288 25.5981 39.9119L24.5085 39.2816C24.4575 39.2985 24.4111 39.297 24.374 39.2754Z" fill="#D6DBF2"/>
<mask id="mask24_105_16118" style="mask-type:luminance" maskUnits="userSpaceOnUse" x="24" y="39" width="2" height="1">
<path d="M24.374 39.2754L25.4636 39.9057C25.4991 39.9273 25.5471 39.9288 25.5981 39.9119L24.5085 39.2816C24.4575 39.2985 24.4111 39.297 24.374 39.2754Z" fill="white"/>
</mask>
<g mask="url(#mask24_105_16118)">
<path d="M25.5981 39.9119L24.5085 39.2816C24.4575 39.2985 24.4111 39.297 24.374 39.2754L25.4636 39.9057C25.4991 39.9273 25.5455 39.9303 25.5981 39.9119Z" fill="#D6DBF2"/>
</g>
<path d="M22.3877 44.4422L21.2981 43.8104L21.0956 46.0003L22.1852 46.6321L22.3877 44.4422Z" fill="#D6DBF2"/>
<path d="M22.32 44.2436L21.2305 43.6133C21.2815 43.6472 21.3062 43.7196 21.2985 43.8121L22.388 44.4424C22.3973 44.3499 22.3726 44.2775 22.32 44.2436Z" fill="#D6DBF2"/>
<mask id="mask25_105_16118" style="mask-type:luminance" maskUnits="userSpaceOnUse" x="21" y="43" width="2" height="2">
<path d="M22.32 44.2436L21.2305 43.6133C21.2815 43.6472 21.3062 43.7196 21.2985 43.8121L22.388 44.4424C22.3973 44.3499 22.3726 44.2775 22.32 44.2436Z" fill="white"/>
</mask>
<g mask="url(#mask25_105_16118)">
<path d="M22.32 44.2436L21.2305 43.6133C21.2815 43.6472 21.3062 43.7196 21.2985 43.8121L22.388 44.4424C22.3973 44.3499 22.3726 44.2775 22.32 44.2436Z" fill="#D6DBF2"/>
</g>
<path d="M23.1808 41.1557L22.0912 40.5254C22.0541 40.6225 21.9892 40.7134 21.915 40.7735L23.0046 41.4038C23.0803 41.3422 23.1437 41.2528 23.1808 41.1557Z" fill="#D6DBF2"/>
<mask id="mask26_105_16118" style="mask-type:luminance" maskUnits="userSpaceOnUse" x="21" y="40" width="3" height="2">
<path d="M23.1808 41.1557L22.0912 40.5254C22.0541 40.6225 21.9892 40.7134 21.915 40.7735L23.0046 41.4038C23.0803 41.3422 23.1437 41.2528 23.1808 41.1557Z" fill="white"/>
</mask>
<g mask="url(#mask26_105_16118)">
<path d="M23.1808 41.1557L22.0912 40.5254C22.0541 40.6225 21.9892 40.7134 21.915 40.7735L23.0046 41.4038C23.0803 41.3422 23.1437 41.2528 23.1808 41.1557Z" fill="#D6DBF2"/>
</g>
<path d="M24.4803 38.5245L23.3907 37.8942C23.3397 37.8649 23.2733 37.8742 23.2053 37.9127L24.2948 38.543C24.3628 38.5045 24.4293 38.4952 24.4803 38.5245Z" fill="#D6DBF2"/>
<mask id="mask27_105_16118" style="mask-type:luminance" maskUnits="userSpaceOnUse" x="23" y="37" width="2" height="2">
<path d="M24.4803 38.5245L23.3907 37.8942C23.3397 37.8649 23.2733 37.8742 23.2053 37.9127L24.2948 38.543C24.3628 38.5045 24.4293 38.4952 24.4803 38.5245Z" fill="white"/>
</mask>
<g mask="url(#mask27_105_16118)">
<path d="M24.4803 38.5245L23.3907 37.8942C23.3397 37.8649 23.2733 37.8742 23.2053 37.9127L24.2948 38.543C24.3628 38.5045 24.4293 38.4952 24.4803 38.5245Z" fill="#D6DBF2"/>
</g>
<path d="M24.0695 38.8272L22.9799 38.1953L22.0928 40.5254L23.1808 41.1573L24.0695 38.8272Z" fill="#D6DBF2"/>
<path d="M24.2953 38.5424L23.2057 37.9121C23.1176 37.963 23.028 38.0647 22.9785 38.1957L24.0681 38.826C24.1191 38.6965 24.2072 38.5948 24.2953 38.5424Z" fill="#D6DBF2"/>
<mask id="mask28_105_16118" style="mask-type:luminance" maskUnits="userSpaceOnUse" x="22" y="37" width="3" height="2">
<path d="M24.2953 38.5424L23.2057 37.9121C23.1176 37.963 23.028 38.0647 22.9785 38.1957L24.0681 38.826C24.1191 38.6965 24.2072 38.5948 24.2953 38.5424Z" fill="white"/>
</mask>
<g mask="url(#mask28_105_16118)">
<path d="M24.2953 38.5424L23.2057 37.9121C23.1176 37.963 23.028 38.0647 22.9785 38.1957L24.0681 38.826C24.1191 38.6965 24.2072 38.5948 24.2953 38.5424Z" fill="#D6DBF2"/>
</g>
<path d="M21.0848 43.4174L19.9952 42.7871L21.2316 43.6116L22.3197 44.2434L21.0848 43.4174Z" fill="#D6DBF2"/>
<path d="M23.0063 41.4037L21.9167 40.7734L20.1348 42.2113L21.2243 42.8431L23.0063 41.4037Z" fill="#D6DBF2"/>
<path d="M24.2947 38.5438C24.2066 38.5946 24.117 38.6963 24.0675 38.8258L23.1804 41.1559C23.1433 41.253 23.0784 41.3439 23.0042 41.404L21.2222 42.8418C21.0229 43.0021 20.9456 43.3257 21.0831 43.4182L22.318 44.2427C22.369 44.2766 22.3937 44.349 22.386 44.4415L22.182 46.6313C22.1634 46.8286 22.2948 46.901 22.4416 46.8163C22.4772 46.7962 22.5143 46.7654 22.5498 46.7253L24.2004 44.9053C24.2344 44.8668 24.2715 44.836 24.3086 44.8159C24.3457 44.7944 24.3828 44.782 24.4168 44.7805L26.0736 44.6957C26.1091 44.6942 26.1462 44.6819 26.1817 44.6603C26.3301 44.5755 26.4584 44.3521 26.4398 44.1779L26.225 42.2285C26.2157 42.1468 26.2405 42.0466 26.2915 41.9526L27.5186 39.7104C27.6562 39.4592 27.5758 39.228 27.3764 39.2958L25.5914 39.9107C25.5172 39.9369 25.4523 39.9199 25.4152 39.866L24.5172 38.5638C24.4724 38.4929 24.3843 38.4929 24.2947 38.5438Z" fill="#BBC3E9"/>
<path d="M21.2239 42.8432L20.1343 42.2129C19.935 42.3732 19.8577 42.6968 19.9952 42.7893L21.0848 43.4211C20.9457 43.3271 21.0245 43.0035 21.2239 42.8432Z" fill="#D6DBF2"/>
<mask id="mask29_105_16118" style="mask-type:luminance" maskUnits="userSpaceOnUse" x="19" y="42" width="3" height="2">
<path d="M21.2239 42.8432L20.1343 42.2129C19.935 42.3732 19.8577 42.6968 19.9952 42.7893L21.0848 43.4211C20.9457 43.3271 21.0245 43.0035 21.2239 42.8432Z" fill="white"/>
</mask>
<g mask="url(#mask29_105_16118)">
<path d="M21.2239 42.8432L20.1343 42.2129C19.935 42.3732 19.8577 42.6968 19.9952 42.7893L21.0848 43.4211C20.9457 43.3271 21.0245 43.0035 21.2239 42.8432Z" fill="#D6DBF2"/>
</g>
<defs>
<linearGradient id="paint0_linear_105_16118" x1="60.6489" y1="30.7678" x2="29.2004" y2="54.0611" gradientUnits="userSpaceOnUse">
<stop stop-color="#4DAEE9"/>
<stop offset="0.1879" stop-color="#48A5E8"/>
<stop offset="0.4914" stop-color="#398DE7"/>
<stop offset="0.8706" stop-color="#2267E4"/>
<stop offset="1" stop-color="#1958E3"/>
</linearGradient>
</defs>
</svg>
