<svg width="342" height="335" viewBox="0 0 342 335" fill="none" xmlns="http://www.w3.org/2000/svg">
<path d="M245.536 208.063H294.961V169.937H245.536V208.063Z" fill="#EBEBEB"/>
<path d="M249.065 204.732H255.023V198.002H249.065V204.732Z" fill="white"/>
<path d="M279.886 170.033H274.271V178.166H279.886V170.033Z" fill="#FAFAFA"/>
<path d="M279.886 199.814H274.271V207.947H279.886V199.814Z" fill="#FAFAFA"/>
<path d="M257.868 208.323C257.779 208.323 257.711 199.937 257.711 189.595C257.711 179.253 257.779 170.867 257.868 170.867C257.957 170.867 258.025 179.253 258.025 189.595C258.025 199.937 257.957 208.323 257.868 208.323Z" fill="#E0E0E0"/>
<path d="M225.378 273.714H310.659V207.933H225.378V273.714Z" fill="#EBEBEB"/>
<path d="M231.472 267.975H241.746V256.361H231.472V267.975Z" fill="white"/>
<path d="M284.64 208.104H274.954V222.14H284.64V208.104Z" fill="#FAFAFA"/>
<path d="M284.64 259.48H274.954V273.515H284.64V259.48Z" fill="#FAFAFA"/>
<path d="M246.664 274.165C246.514 274.165 246.391 259.699 246.391 241.853C246.391 224.007 246.514 209.541 246.664 209.541C246.815 209.541 246.931 224.007 246.931 241.853C246.931 259.699 246.815 274.165 246.664 274.165Z" fill="#E0E0E0"/>
<path d="M307.95 71.1196L312.52 80.3741L322.732 81.8584L315.344 89.0678L317.089 99.2389L307.95 94.4372L298.812 99.2389L300.556 89.0678L293.169 81.8584L303.381 80.3741L307.95 71.1196Z" fill="#EBEBEB"/>
<path d="M35.9169 190.656L38.7966 196.49L45.233 197.42L40.575 201.962L41.6762 208.378L35.9169 205.348L30.1576 208.378L31.2589 201.962L26.6008 197.42L33.0373 196.49L35.9169 190.656Z" fill="#EBEBEB"/>
<path d="M39.4874 139.828L45.8828 152.783L60.1784 154.862L49.8363 164.944L52.2782 179.185L39.4874 172.461L26.7034 179.185L29.1453 164.944L18.7964 154.862L33.092 152.783L39.4874 139.828Z" fill="#EBEBEB"/>
<path d="M303.881 112.919L306.637 118.507L312.8 119.403L308.34 123.747L309.394 129.882L303.881 126.989L298.368 129.882L299.421 123.747L294.961 119.403L301.124 118.507L303.881 112.919Z" fill="#EBEBEB"/>
<path d="M213.442 22.46L216.199 28.0414L222.362 28.9374L217.902 33.2877L218.955 39.4232L213.442 36.523L207.929 39.4232L208.983 33.2877L204.523 28.9374L210.686 28.0414L213.442 22.46Z" fill="#EBEBEB"/>
<path d="M276.487 82.2004L278.292 85.853L282.328 86.4412L279.407 89.2867L280.098 93.3018L276.487 91.4071L272.882 93.3018L273.573 89.2867L270.652 86.4412L274.688 85.853L276.487 82.2004Z" fill="#EBEBEB"/>
<path d="M110.069 266.675L113.585 273.789L121.437 274.931L115.753 280.472L117.101 288.297L110.069 284.603L103.045 288.297L104.385 280.472L98.7012 274.931L106.56 273.789L110.069 266.675Z" fill="#EBEBEB"/>
<path d="M119.344 259.596L120.794 262.537L124.043 263.009L121.69 265.301L122.245 268.536L119.344 267.004L116.444 268.536L116.998 265.301L114.645 263.009L117.894 262.537L119.344 259.596Z" fill="#EBEBEB"/>
<path d="M249.065 232.345L252.157 238.604L259.065 239.61L254.065 244.48L255.248 251.361L249.065 248.112L242.889 251.361L244.072 244.48L239.072 239.61L245.98 238.604L249.065 232.345Z" fill="#00ADAD"/>
<path d="M263.805 226.798L265.262 229.746L268.511 230.218L266.158 232.516L266.712 235.759L263.805 234.226L260.891 235.759L261.452 232.516L259.093 230.218L262.348 229.746L263.805 226.798Z" fill="#00ADAD"/>
<path d="M203.907 232.051L72.7435 261.285C71.9843 261.459 71.1983 261.481 70.4307 261.349C69.6632 261.217 68.9292 260.935 68.2712 260.519C67.6131 260.102 67.044 259.56 66.5965 258.923C66.1491 258.285 65.8322 257.566 65.6641 256.805L23.1261 65.7982C22.9566 65.0413 22.9382 64.2585 23.0717 63.4945C23.2053 62.7306 23.4883 62.0004 23.9044 61.346C24.3206 60.6916 24.8618 60.1256 25.497 59.6807C26.1323 59.2357 26.849 58.9205 27.6063 58.753L158.77 29.5188C159.527 29.3493 160.311 29.3307 161.075 29.4642C161.84 29.5977 162.57 29.8806 163.225 30.2967C163.88 30.7128 164.447 31.254 164.892 31.8893C165.338 32.5246 165.654 33.2415 165.822 33.999L208.387 225.006C208.557 225.763 208.575 226.546 208.442 227.31C208.308 228.074 208.025 228.804 207.609 229.458C207.193 230.113 206.652 230.679 206.017 231.123C205.381 231.568 204.665 231.884 203.907 232.051Z" fill="#E0E0E0"/>
<path d="M203.907 232.051L204.345 231.928C204.77 231.79 205.18 231.608 205.569 231.388C206.207 231.013 206.771 230.523 207.231 229.944C207.859 229.151 208.272 228.208 208.428 227.208C208.528 226.604 208.528 225.987 208.428 225.382C208.319 224.746 208.148 224.076 207.998 223.378C207.683 222.01 207.314 220.45 206.972 218.795C206.228 215.48 205.373 211.666 204.407 207.352C200.556 190.136 194.988 165.224 188.107 134.437C184.687 119.047 180.911 102.187 176.869 84.0814C174.853 75.0344 172.767 65.6864 170.61 56.0374C169.539 51.2129 168.449 46.3223 167.341 41.3656C166.78 38.8895 166.226 36.3929 165.658 33.8826C165.35 32.6314 164.63 31.5202 163.614 30.7275C162.598 29.9348 161.345 29.5067 160.056 29.5119C159.413 29.5261 158.775 29.618 158.154 29.7855L156.239 30.2096L152.388 31.0714L144.618 32.8019L128.804 36.3314L96.2183 43.616L27.6541 58.8828C26.2048 59.204 24.935 60.0712 24.1083 61.3042C23.2816 62.5372 22.9617 64.0412 23.215 65.504C23.8374 68.411 24.5077 71.3248 25.1439 74.225C26.4389 80.0162 27.7225 85.7732 28.9948 91.496L36.5188 125.292C41.4573 147.447 46.2179 168.788 50.7528 189.171C55.2877 209.554 59.5901 228.843 63.6257 246.976C64.1273 249.256 64.6266 251.5 65.1237 253.707C65.3767 254.815 65.6025 255.936 65.8692 257.024C66.1565 258.095 66.7453 259.061 67.5655 259.808C68.3805 260.543 69.3851 261.036 70.4657 261.231C71.0016 261.318 71.5467 261.334 72.0868 261.278C72.6203 261.21 73.1606 261.08 73.6942 260.957L80.0622 259.541L104.228 254.165L177.156 237.961L196.992 233.57L202.149 232.434L203.907 232.051L202.156 232.462L196.999 233.624L177.163 238.063L104.248 254.363L80.1101 259.76L73.742 261.183C73.2085 261.299 72.675 261.436 72.1141 261.511C71.5533 261.568 70.9874 261.55 70.4315 261.456C69.2998 261.26 68.2479 260.744 67.3996 259.97C66.5514 259.195 65.9421 258.195 65.6435 257.086C65.3699 255.984 65.1442 254.876 64.8911 253.768C64.3941 251.547 63.8925 249.304 63.3863 247.038C59.3507 228.932 55.0347 209.589 50.4929 189.233C45.9511 168.877 41.1905 147.509 36.2452 125.354L28.7212 91.5644C27.4489 85.8461 26.1653 80.0846 24.8703 74.2797C24.2273 71.3795 23.5638 68.4794 22.9345 65.545C22.6712 64.0127 23.0083 62.4378 23.8757 61.1475C24.7431 59.8572 26.0742 58.9506 27.5926 58.6161L96.1636 43.3287L128.77 36.092L144.577 32.5694L152.347 30.8388L156.205 29.936L158.12 29.5119C158.753 29.3479 159.403 29.2607 160.056 29.252C161.391 29.2551 162.687 29.7024 163.74 30.5235C164.792 31.3446 165.542 32.4928 165.87 33.7869C166.431 36.304 166.992 38.7938 167.546 41.2767C168.663 46.238 169.762 51.1217 170.843 55.928C172.981 65.5724 175.063 74.9204 177.088 83.972C181.116 102.077 184.865 118.938 188.292 134.335C195.132 165.115 200.672 190.047 204.502 207.27C205.453 211.572 206.301 215.403 207.04 218.713C207.402 220.375 207.724 221.901 208.052 223.303C208.203 223.987 208.374 224.671 208.476 225.307C208.579 225.918 208.579 226.542 208.476 227.154C208.32 228.172 207.901 229.132 207.259 229.938C206.792 230.516 206.224 231.005 205.583 231.381C205.189 231.602 204.771 231.779 204.338 231.907L203.907 232.051Z" fill="#263238"/>
<g opacity="0.3">
<path d="M79.3919 254.521L198.9 227.202L195.125 203.781L188.346 190.656L74.0225 235.56L79.3919 254.521Z" fill="black"/>
</g>
<g opacity="0.3">
<path d="M129.29 36.5229L133.811 43.9854L134.687 47.9457L131.622 48.6297L129.29 36.5229Z" fill="black"/>
</g>
<path d="M29.9319 66.9061L71.396 252.954L201.363 223.994L193.948 190.724L159.899 37.9387L29.9319 66.9061Z" fill="white"/>
<path d="M29.9319 66.9062L159.892 37.8293H160.001V37.9456C171.534 89.6492 185.918 154.171 201.486 223.994V224.137H201.349L71.3891 253.091H71.266V252.961C46.8541 143.097 30.1781 68.0211 29.925 66.913C30.1781 68.0485 46.9635 143.104 71.5191 252.961L71.3618 252.865L201.322 223.884L201.212 224.055C185.665 154.246 171.294 89.7244 159.782 38.0072L159.919 38.0961L29.9319 66.9062Z" fill="#263238"/>
<path d="M66.5293 44.7689L123.845 31.9992C124.966 31.7495 126.14 31.9553 127.109 32.5712C128.079 33.1872 128.763 34.1629 129.013 35.2838L132.324 50.1452L66.5424 64.801L63.2343 49.9529C63.1084 49.396 63.0939 48.8198 63.1915 48.2573C63.2892 47.6948 63.4971 47.1572 63.8034 46.6754C64.1096 46.1936 64.5081 45.7771 64.9759 45.4499C65.4437 45.1227 65.9717 44.8913 66.5293 44.7689Z" fill="#263238"/>
<path d="M101.964 29.3545L85.2263 33.0823L90.3768 46.9949L102.983 44.1836L101.964 29.3545Z" fill="#263238"/>
<path d="M123.845 31.9879C123.845 32.0631 111.047 34.9838 95.2265 38.5132C79.4056 42.0427 66.5533 44.8539 66.5327 44.7786C66.5122 44.7034 79.3304 41.7827 95.165 38.2533C111 34.7239 123.804 31.9331 123.845 31.9879Z" fill="#455A64"/>
<path d="M67.3467 61.3999C67.2714 61.3999 66.6079 58.7323 65.8692 55.408C65.1305 52.0838 64.5833 49.3683 64.6654 49.3478C64.7475 49.3273 65.4041 52.0154 66.1428 55.3465C66.8815 58.6775 67.4219 61.3999 67.3467 61.3999Z" fill="#455A64"/>
<path d="M129.187 46.1056C128.637 44.3063 128.181 42.4799 127.819 40.6336C127.366 38.8291 127.006 37.0027 126.738 35.1616C127.287 36.9497 127.743 38.7647 128.106 40.5994C128.56 42.4152 128.921 44.253 129.187 46.1056Z" fill="#455A64"/>
<path d="M126.581 49.3547C126.581 49.43 113.442 52.4259 97.2033 56.0442C80.9652 59.6626 67.7913 62.5422 67.7571 62.4602C67.7229 62.3781 80.8899 59.389 97.1691 55.7706C113.448 52.1523 126.54 49.2795 126.581 49.3547Z" fill="#455A64"/>
<path d="M91.9637 103.473C91.9637 103.555 83.1059 105.593 72.1277 108.042C61.1495 110.491 52.2917 112.399 52.2438 112.324C52.196 112.249 61.1358 110.203 72.0798 107.762C83.0238 105.32 91.9432 103.398 91.9637 103.473Z" fill="#263238"/>
<path d="M158.114 96.024C158.114 96.1061 134.946 101.339 106.335 107.714C77.723 114.088 54.5012 119.198 54.4876 119.123C54.4739 119.047 77.6478 113.808 106.273 107.433C134.899 101.058 158.1 95.9488 158.114 96.024Z" fill="#263238"/>
<path d="M159.543 102.44C159.543 102.515 136.369 107.748 107.757 114.13C79.1456 120.511 55.9307 125.614 55.9102 125.532C55.8896 125.45 79.0773 120.224 107.696 113.849C136.314 107.474 159.522 102.344 159.543 102.44Z" fill="#263238"/>
<path d="M160.966 108.815C160.966 108.89 137.799 114.123 109.187 120.497C80.5751 126.872 57.3533 131.989 57.3328 131.907C57.3123 131.825 80.4999 126.599 109.125 120.217C137.751 113.835 160.945 108.74 160.966 108.815Z" fill="#263238"/>
<path d="M162.388 115.21C162.388 115.285 139.221 120.518 110.61 126.893C81.9979 133.268 58.7761 138.377 58.7625 138.302C58.7488 138.227 81.9227 132.994 110.548 126.612C139.173 120.231 162.375 115.128 162.388 115.21Z" fill="#263238"/>
<path d="M163.818 121.592C163.818 121.674 140.644 126.907 112.032 133.282C83.4205 139.656 60.1919 144.773 60.1919 144.698C60.1919 144.622 83.359 139.39 111.978 133.008C140.596 126.626 163.797 121.524 163.818 121.592Z" fill="#263238"/>
<path d="M80.281 166.606C80.2532 166.538 80.2326 166.467 80.2195 166.394L80.069 165.785C79.939 165.231 79.7543 164.458 79.5286 163.494C79.0703 161.517 78.4274 158.74 77.6613 155.416L77.8118 155.512L66.5942 158.029C66.5942 158.029 66.7994 157.707 66.7036 157.858V157.906V158.001L66.7447 158.193L66.8336 158.576L66.9977 159.335C67.114 159.841 67.2235 160.341 67.3329 160.84C67.5518 161.825 67.7707 162.796 67.9759 163.74C68.3931 165.621 68.783 167.4 69.1455 169.034L68.995 168.939L77.1004 167.194L79.4055 166.716L80.0211 166.599L80.24 166.558C80.24 166.558 80.1853 166.558 80.0485 166.62L79.4671 166.763L77.2099 167.297L69.0839 169.233H68.9608V169.11L67.7707 163.822C67.5586 162.878 67.3397 161.907 67.0867 160.922C66.9772 160.423 66.8609 159.923 66.7515 159.417C66.6899 159.171 66.6352 158.911 66.5805 158.658L66.4916 158.275L66.4505 158.083V157.988V157.94V157.906C66.3548 158.063 66.5805 157.7 66.56 157.735L77.7844 155.252H77.9075V155.375L79.6723 163.583C79.8706 164.54 80.0279 165.307 80.1442 165.854C80.1921 166.1 80.2263 166.291 80.2605 166.449C80.2742 166.5 80.2811 166.553 80.281 166.606Z" fill="#263238"/>
<path d="M163.661 138.952L85.4016 156.388L86.8563 162.917L165.116 145.481L163.661 138.952Z" fill="#E0E0E0"/>
<path d="M84.6176 186.073C84.5919 186.001 84.5713 185.928 84.5561 185.854C84.515 185.696 84.4671 185.491 84.4056 185.245C84.2756 184.691 84.0909 183.925 83.8652 182.96C83.4069 180.977 82.764 178.172 81.9979 174.876L82.1484 174.971L70.9308 177.488C70.9308 177.529 71.136 177.167 71.0402 177.324V177.358V177.406V177.502L71.0812 177.694L71.1702 178.077C71.2249 178.337 71.2796 178.59 71.3412 178.843L71.6695 180.341C71.8884 181.333 72.1072 182.297 72.3124 183.241C72.7297 185.122 73.1196 186.9 73.4821 188.535L73.3316 188.439L81.4438 186.702L83.7421 186.223L84.3577 186.1C84.4291 186.08 84.5025 186.069 84.5766 186.066L84.3919 186.121L83.8036 186.264L81.5464 186.805L73.3863 188.686H73.2632V188.562L72.073 183.275C71.861 182.331 71.6421 181.36 71.389 180.375C71.2796 179.882 71.1633 179.376 71.0539 178.877C70.9992 178.624 70.9376 178.371 70.8829 178.111L70.794 177.728L70.7529 177.536V177.441V177.358L70.8624 177.181L82.08 174.732H82.2031V174.848C82.9281 178.22 83.5711 181.004 83.9678 183.056C84.1662 184.014 84.3235 184.78 84.4398 185.327C84.4876 185.573 84.5219 185.765 84.5561 185.922C84.583 185.969 84.6037 186.02 84.6176 186.073Z" fill="#263238"/>
<path d="M167.995 158.419L89.7349 175.855L91.1896 182.384L169.449 164.948L167.995 158.419Z" fill="#E0E0E0"/>
<path d="M88.9542 205.532C88.9542 205.532 88.9542 205.45 88.8926 205.313C88.831 205.177 88.8037 204.951 88.7421 204.705C88.6122 204.151 88.4275 203.385 88.2018 202.42C87.7435 200.443 87.1005 197.632 86.3344 194.335L86.4849 194.431L75.24 196.948C75.24 196.989 75.4452 196.627 75.3494 196.784V196.832V196.88V196.976L75.3904 197.167L75.4794 197.55C75.5341 197.81 75.5888 198.063 75.6504 198.316L75.9787 199.814C76.1976 200.806 76.4164 201.77 76.6216 202.714L77.7913 208.008L77.6408 207.92L85.753 206.175L88.0513 205.697L88.6669 205.573C88.7396 205.565 88.813 205.565 88.8858 205.573L88.7011 205.628L88.1128 205.772L85.8556 206.312L77.6955 208.193H77.5724V208.07C77.2099 206.442 76.8063 204.65 76.3822 202.783C76.1702 201.839 75.9513 200.874 75.6982 199.883C75.5888 199.39 75.4725 198.891 75.3631 198.385C75.3084 198.131 75.2468 197.878 75.1921 197.625L75.11 197.242L75.0621 197.051V196.948V196.832C74.9664 196.982 75.1921 196.62 75.1716 196.661L86.396 194.178H86.5191V194.301L88.2838 202.509C88.4822 203.467 88.6395 204.233 88.7558 204.787C88.8037 205.026 88.8447 205.218 88.8721 205.375C88.9066 205.423 88.9342 205.476 88.9542 205.532Z" fill="#263238"/>
<path d="M172.336 177.886L94.0764 195.322L95.5311 201.851L173.791 184.415L172.336 177.886Z" fill="#E0E0E0"/>
<path d="M69.5012 162.591L70.6777 160.737L74.1729 162.68L78.6737 155.895L80.411 157.098L74.6107 165.648L69.5012 162.591Z" fill="#00ADAD"/>
<path d="M73.6941 181.401L74.8706 179.547L78.3658 181.49L82.8597 174.705L84.6039 175.908L78.7967 184.452L73.6941 181.401Z" fill="#00ADAD"/>
<path d="M77.9966 200.683L79.1731 198.836L82.6615 200.779L87.1622 193.993L88.8995 195.19L83.0992 203.74L77.9966 200.683Z" fill="#00ADAD"/>
<path d="M113.818 224.876C113.818 224.958 107.224 226.497 99.0569 228.296C90.89 230.095 84.2552 231.524 84.2415 231.449C84.2278 231.374 90.8284 229.835 98.9954 228.029C107.162 226.223 113.797 224.808 113.818 224.876Z" fill="#263238"/>
<path d="M128.551 221.36C126.766 221.91 124.953 222.367 123.12 222.728C121.315 223.177 119.489 223.536 117.648 223.802C119.431 223.254 121.242 222.797 123.072 222.434C126.075 221.771 128.537 221.285 128.551 221.36Z" fill="#263238"/>
<path d="M177.348 206.004C177.348 206.08 171.417 207.475 164.071 209.11C156.725 210.745 150.747 212.01 150.733 211.935C150.719 211.859 156.657 210.471 164.01 208.829C171.363 207.188 177.334 205.929 177.348 206.004Z" fill="#263238"/>
<path d="M171 224.007C171 224.007 171.062 223.823 171.13 223.467C171.221 222.941 171.192 222.401 171.048 221.887C170.805 221.073 170.489 220.284 170.104 219.527C169.559 218.523 169.239 217.412 169.167 216.271C169.183 215.569 169.346 214.879 169.645 214.244C169.945 213.609 170.373 213.044 170.904 212.584C171.526 212.068 172.271 211.719 173.066 211.572C173.861 211.425 174.68 211.484 175.446 211.743C176.287 211.999 177.037 212.49 177.608 213.159C177.911 213.519 178.091 213.968 178.121 214.438C178.128 214.691 178.055 214.94 177.911 215.148C177.767 215.356 177.56 215.512 177.32 215.594C176.873 215.739 176.416 215.851 175.952 215.929L174.584 216.21C173.668 216.394 172.737 216.558 171.78 216.682C169.925 216.949 168.043 216.961 166.185 216.716C165.345 216.535 164.469 216.677 163.729 217.112C163.141 217.705 162.644 218.38 162.252 219.117C162.014 219.479 161.683 219.772 161.294 219.965C160.899 220.139 160.452 220.159 160.042 220.019C159.339 219.706 158.669 219.321 158.045 218.87C157.755 218.678 157.426 218.554 157.081 218.508C156.758 218.472 156.433 218.552 156.164 218.734C155.691 219.166 155.299 219.681 155.008 220.252C154.697 220.742 154.272 221.15 153.77 221.44C153.267 221.731 152.702 221.896 152.122 221.921C151.244 221.956 150.387 221.652 149.728 221.073C149.313 220.715 148.988 220.265 148.777 219.76C148.703 219.586 148.65 219.405 148.62 219.219C148.62 219.219 148.681 219.404 148.832 219.739C149.053 220.222 149.383 220.648 149.796 220.984C150.439 221.529 151.266 221.808 152.108 221.764C152.661 221.735 153.199 221.573 153.676 221.29C154.153 221.008 154.553 220.614 154.844 220.143C155.145 219.544 155.553 219.007 156.048 218.556C156.359 218.339 156.737 218.24 157.115 218.275C157.489 218.331 157.848 218.464 158.168 218.665C158.782 219.1 159.438 219.473 160.125 219.78C160.476 219.898 160.859 219.881 161.198 219.732C161.546 219.559 161.838 219.291 162.04 218.959C162.446 218.203 162.963 217.512 163.572 216.907C163.951 216.637 164.394 216.472 164.858 216.428C165.313 216.38 165.771 216.38 166.226 216.428C168.063 216.667 169.925 216.655 171.759 216.394C172.703 216.271 173.627 216.1 174.543 215.922L175.911 215.649C176.35 215.567 176.784 215.46 177.211 215.327C177.398 215.268 177.561 215.149 177.675 214.988C177.788 214.828 177.846 214.635 177.84 214.438C177.809 214.029 177.651 213.639 177.389 213.323C176.849 212.681 176.137 212.206 175.337 211.955C174.611 211.709 173.835 211.651 173.081 211.787C172.327 211.924 171.621 212.25 171.027 212.735C170.518 213.169 170.105 213.704 169.815 214.308C169.525 214.911 169.365 215.568 169.345 216.237C169.406 217.352 169.705 218.441 170.22 219.431C170.599 220.199 170.903 221 171.13 221.825C171.264 222.354 171.276 222.906 171.164 223.439C171.132 223.635 171.077 223.825 171 224.007Z" fill="#263238"/>
<path d="M185.138 215.252C185.023 215.298 184.904 215.335 184.783 215.361L183.743 215.608L179.926 216.49C176.711 217.242 172.265 218.296 167.375 219.534C162.484 220.772 158.072 221.969 154.892 222.844L151.116 223.884L150.083 224.158C149.965 224.195 149.844 224.222 149.721 224.24C149.831 224.18 149.948 224.134 150.07 224.103L151.082 223.781C151.964 223.501 153.243 223.097 154.83 222.653C158.011 221.723 162.409 220.498 167.306 219.233C172.204 217.967 176.65 216.969 179.885 216.278C181.499 215.929 182.813 215.656 183.722 215.478L184.769 215.279C184.891 215.259 185.015 215.25 185.138 215.252Z" fill="#263238"/>
<path d="M129.035 65.1669L75.9116 77.0024L78.1353 86.9835L131.259 75.148L129.035 65.1669Z" fill="#E0E0E0"/>
<path d="M169.638 227.14L186.799 317.811L202.484 288.83L232.21 306.279L200.657 217.988L169.638 227.14Z" fill="#00ADAD"/>
<g opacity="0.3">
<path d="M175.411 257.633C177.045 257.941 178.729 257.847 180.318 257.36C181.908 256.872 183.355 256.006 184.535 254.835C186.102 253.221 187.142 251.019 189.111 249.938C190.883 248.967 193.065 249.103 195.014 249.644C196.964 250.184 198.797 251.08 200.746 251.586C202.67 252.076 204.672 252.179 206.635 251.888C208.598 251.596 210.484 250.917 212.183 249.89L207.231 236.142L184.248 233.269L173.304 246.436L175.411 257.633Z" fill="black"/>
</g>
<path d="M201.369 285.232C201.273 285.232 198.715 275.834 195.657 264.199C192.6 252.564 190.185 243.098 190.295 243.077C190.404 243.057 192.942 252.462 195.999 264.11C199.057 275.759 201.464 285.205 201.369 285.232Z" fill="#263238"/>
<path d="M172.148 231.853L154.986 322.524L139.302 293.55L109.576 310.992L141.129 222.701L172.148 231.853Z" fill="#00ADAD"/>
<g opacity="0.3">
<path d="M131.689 249.11C131.689 249.11 136.573 253.125 142.394 251.278C148.215 249.432 151.833 249.035 154.986 251.278C158.14 253.522 166.669 260.82 166.669 260.82L168.646 250.362L157.189 234.63L145.233 237.044L136.724 237.872L133.557 243.871L131.689 249.11Z" fill="black"/>
</g>
<path d="M272.771 150.005C272.771 156.51 264.461 162.112 263.243 168.261C261.992 174.595 267.505 182.947 265.09 188.781C262.676 194.616 252.778 196.709 249.269 201.983C245.76 207.256 247.607 217.133 243.113 221.634C238.619 226.135 228.749 224.24 223.462 227.79C218.175 231.34 216.191 241.148 210.261 243.611C204.433 246.025 196.081 240.512 189.741 241.764C183.585 242.982 177.99 251.292 171.485 251.292C164.98 251.292 159.371 242.982 153.222 241.764C146.888 240.512 138.536 246.025 132.702 243.611C126.867 241.196 124.781 231.299 119.508 227.79C114.234 224.281 104.357 226.128 99.8494 221.634C95.3418 217.14 97.2434 207.27 93.6934 201.983C90.1434 196.695 80.3349 194.712 77.8793 188.781C75.4238 182.851 80.9778 174.602 79.7261 168.261C78.5086 162.105 70.1912 156.51 70.1912 150.005C70.1912 143.501 78.5086 137.892 79.7261 131.743C80.9778 125.409 75.458 117.057 77.8793 111.223C80.3007 105.388 90.1913 103.295 93.6934 98.0283C97.1955 92.7615 95.3555 82.8777 99.8494 78.3702C104.343 73.8626 114.213 75.7641 119.508 72.2142C124.802 68.6642 126.772 58.8556 132.702 56.4001C138.632 53.9445 146.881 59.4986 153.222 58.2469C159.378 57.0294 164.98 48.7119 171.485 48.7119C177.99 48.7119 183.592 57.0294 189.741 58.2469C196.075 59.4986 204.426 53.9787 210.261 56.4001C216.191 58.8556 218.188 68.7121 223.462 72.2142C228.736 75.7162 238.612 73.8763 243.113 78.3702C247.614 82.864 245.719 92.7342 249.269 98.0283C252.819 103.322 262.628 105.292 265.09 111.223C267.553 117.153 261.992 125.402 263.243 131.743C264.461 137.892 272.771 143.48 272.771 150.005Z" fill="#00ADAD"/>
<path d="M147.784 93.2266C147.784 93.2266 147.709 93.1377 147.599 92.9461C147.49 92.7546 147.319 92.4468 147.134 92.1117C146.731 91.3866 146.177 90.3196 145.52 88.9926C144.2 86.3387 142.49 82.6041 140.841 78.3906C139.193 74.1772 137.927 70.2647 137.1 67.4466C136.689 66.0171 136.375 64.8611 136.176 64.0266C136.088 63.6573 136.012 63.3426 135.958 63.0964C135.922 62.9905 135.904 62.8797 135.903 62.7681C135.956 62.8678 135.997 62.9734 136.026 63.0827L136.306 63.9924C136.573 64.8337 136.922 65.9692 137.339 67.344C138.228 70.1689 139.535 74.0472 141.17 78.288C142.804 82.5288 144.487 86.2293 145.746 88.9105L147.257 92.0775L147.661 92.9393C147.71 93.0311 147.752 93.1273 147.784 93.2266Z" fill="#263238"/>
<path d="M156.799 89.7997C156.679 89.5609 156.59 89.3081 156.532 89.0473C156.389 88.5548 156.197 87.8366 155.972 86.9474C155.52 85.1758 154.959 82.6997 154.453 79.9501C153.947 77.2004 153.591 74.6901 153.386 72.8707C153.277 71.9609 153.208 71.2222 153.167 70.7092C153.136 70.4457 153.136 70.1793 153.167 69.9158C153.246 70.1697 153.298 70.431 153.324 70.6955L153.653 72.8365C153.926 74.6491 154.337 77.1457 154.822 79.8885C155.308 82.6313 155.848 85.1074 156.231 86.8927C156.416 87.7271 156.567 88.4385 156.69 89.0131C156.752 89.271 156.789 89.5345 156.799 89.7997Z" fill="#263238"/>
<path d="M172.702 88.2196C172.6 88.2196 172.347 80.5451 172.134 71.0854C171.922 61.6257 171.827 53.9443 171.922 53.9375C172.018 53.9307 172.278 61.6051 172.49 71.0785C172.702 80.5519 172.798 88.2196 172.702 88.2196Z" fill="#263238"/>
<path d="M188.708 72.4535C188.804 72.4535 187.696 76.3181 186.239 81.024C184.782 85.73 183.503 89.5125 183.434 89.4851C183.366 89.4578 184.447 85.6205 185.903 80.9146C187.36 76.2087 188.605 72.4262 188.708 72.4535Z" fill="#263238"/>
<path d="M195.233 92.2827C195.247 92.1695 195.277 92.0589 195.322 91.9544L195.63 91.0515C195.903 90.2717 196.314 89.15 196.861 87.7683C197.935 85.0323 199.467 81.2087 201.218 77.0363C202.969 72.8639 204.597 69.1088 205.794 66.4001C206.382 65.0868 206.868 64.0061 207.237 63.199L207.641 62.3372C207.744 62.1456 207.798 62.043 207.812 62.0499C207.787 62.1575 207.753 62.2628 207.709 62.3645L207.36 63.2537L206.027 66.5027C204.857 69.2798 203.291 73.0281 201.546 77.18C199.802 81.3318 198.256 85.0802 197.094 87.864L195.76 91.1062L195.384 91.9817C195.346 92.0879 195.296 92.1889 195.233 92.2827Z" fill="#263238"/>
<path d="M203.756 96.7424C203.86 96.5005 203.991 96.271 204.146 96.0584C204.419 95.6206 204.83 94.9982 205.336 94.2389C206.362 92.7273 207.839 90.6616 209.556 88.4591C211.273 86.2566 212.921 84.3551 214.139 82.9871C214.748 82.3031 215.254 81.7628 215.61 81.3934C215.781 81.1885 215.976 81.0048 216.191 80.8462C216.059 81.0795 215.898 81.2955 215.712 81.4892C215.343 81.9406 214.878 82.4946 214.344 83.1513C213.175 84.5603 211.567 86.5097 209.85 88.7122C208.133 90.9147 206.636 92.9462 205.555 94.4236L204.276 96.1678C204.123 96.3769 203.949 96.5694 203.756 96.7424Z" fill="#263238"/>
<path d="M216.218 106.934C216.15 106.865 221.567 101.722 228.304 95.4495C235.042 89.1772 240.569 84.1498 240.616 84.2182C240.664 84.2866 235.274 89.4371 228.53 95.7094C221.786 101.982 216.287 107.009 216.218 106.934Z" fill="#263238"/>
<path d="M237.956 109.061C237.296 109.478 236.611 109.853 235.904 110.183C234.618 110.867 232.874 111.818 230.945 112.919C229.016 114.02 227.237 114.937 225.917 115.552C225.233 115.86 224.727 116.099 224.344 116.236C224.157 116.334 223.956 116.403 223.749 116.441C224.409 116.024 225.094 115.65 225.801 115.32C227.087 114.636 228.831 113.685 230.76 112.584C232.689 111.482 234.467 110.532 235.787 109.95C236.471 109.642 236.978 109.403 237.361 109.266C237.547 109.166 237.747 109.097 237.956 109.061Z" fill="#263238"/>
<path d="M258.058 117.399C258.093 117.495 251.649 119.848 243.694 122.659C235.74 125.47 229.221 127.666 229.194 127.577C229.166 127.488 235.596 125.128 243.558 122.317C251.519 119.506 258.024 117.31 258.058 117.399Z" fill="#263238"/>
<path d="M264.461 153.973C264.461 154.068 257.45 153.487 248.824 152.666C240.199 151.845 233.209 151.1 233.222 150.997C233.236 150.895 240.227 151.49 248.859 152.31C257.491 153.131 264.468 153.877 264.461 153.973Z" fill="#263238"/>
<path d="M259.31 186.777C259.269 186.866 252.723 183.856 244.693 180.067C236.663 176.278 230.185 173.125 230.227 173.036C230.268 172.947 236.813 175.949 244.844 179.746C252.874 183.542 259.351 186.688 259.31 186.777Z" fill="#263238"/>
<path d="M237.778 217.988C237.703 218.05 232.99 212.571 227.237 205.758C221.485 198.946 216.888 193.357 216.977 193.296C217.066 193.234 221.765 198.706 227.518 205.526C233.27 212.345 237.853 217.92 237.778 217.988Z" fill="#263238"/>
<path d="M219.802 222.14C219.59 221.903 219.4 221.646 219.235 221.374C218.886 220.868 218.393 220.122 217.805 219.199C216.615 217.345 215.021 214.753 213.339 211.846C211.656 208.939 210.22 206.257 209.235 204.322C208.735 203.344 208.332 202.55 208.072 201.996C207.917 201.714 207.789 201.419 207.689 201.114C207.882 201.369 208.051 201.641 208.195 201.928C208.523 202.53 208.947 203.296 209.46 204.205C210.52 206.127 211.998 208.781 213.674 211.688C215.35 214.595 216.909 217.201 218.044 219.082C218.578 219.985 219.029 220.731 219.378 221.319C219.549 221.576 219.692 221.852 219.802 222.14Z" fill="#263238"/>
<path d="M208.639 237.804C208.639 237.804 208.571 237.715 208.462 237.523L208.017 236.689C207.627 235.957 207.1 234.89 206.471 233.563C205.213 230.902 203.591 227.168 202.052 222.94C200.513 218.713 199.351 214.814 198.632 211.996C198.256 210.574 197.948 209.411 197.798 208.611C197.723 208.241 197.661 207.927 197.606 207.68C197.579 207.573 197.563 207.463 197.559 207.352C197.614 207.45 197.654 207.556 197.675 207.667L197.935 208.576C198.174 209.425 198.489 210.553 198.872 211.928C199.679 214.753 200.876 218.638 202.415 222.872C203.954 227.106 205.527 230.82 206.731 233.508L208.167 236.675C208.318 237.017 208.448 237.304 208.557 237.537C208.596 237.622 208.623 237.712 208.639 237.804Z" fill="#263238"/>
<path d="M186.026 226.798C185.878 226.012 185.78 225.217 185.732 224.418C185.575 222.947 185.322 220.916 184.953 218.693C184.583 216.47 184.152 214.472 183.824 213.029C183.609 212.256 183.445 211.47 183.332 210.676C183.433 210.867 183.511 211.069 183.564 211.278C183.701 211.675 183.872 212.249 184.07 212.968C184.46 214.397 184.925 216.388 185.301 218.638C185.629 220.545 185.857 222.467 185.985 224.397C186.033 225.136 186.061 225.765 186.061 226.155C186.078 226.37 186.067 226.586 186.026 226.798Z" fill="#263238"/>
<path d="M171.232 246.49C171.216 246.375 171.216 246.257 171.232 246.142C171.232 245.868 171.232 245.533 171.232 245.136C171.232 244.261 171.232 242.995 171.232 241.436C171.286 238.31 171.43 234.001 171.676 229.247C171.922 224.493 172.23 220.184 172.483 217.072C172.606 215.512 172.723 214.254 172.812 213.385C172.86 212.988 172.894 212.653 172.921 212.386C172.929 212.267 172.952 212.15 172.989 212.037C173.006 212.155 173.006 212.275 172.989 212.393C172.989 212.66 172.989 212.995 172.942 213.399C172.887 214.322 172.818 215.567 172.73 217.085C172.545 220.252 172.299 224.534 172.046 229.26C171.792 233.987 171.615 238.323 171.498 241.443C171.444 242.961 171.396 244.179 171.362 245.136C171.362 245.54 171.321 245.868 171.307 246.142C171.299 246.261 171.274 246.379 171.232 246.49Z" fill="#263238"/>
<path d="M159.207 212.037C159.202 212.627 159.133 213.214 159.002 213.788C158.824 214.855 158.537 216.326 158.16 217.933C157.784 219.541 157.387 220.991 157.073 222.037C156.936 222.61 156.737 223.165 156.478 223.693C156.539 223.108 156.655 222.531 156.827 221.969L157.812 217.865C158.167 216.326 158.496 214.931 158.756 213.761C158.85 213.173 159.002 212.596 159.207 212.037Z" fill="#263238"/>
<path d="M137.462 201.62C136.566 203.102 135.568 204.519 134.473 205.861C133.47 207.273 132.375 208.619 131.197 209.89C132.091 208.407 133.09 206.99 134.186 205.649C135.185 204.233 136.28 202.887 137.462 201.62Z" fill="#263238"/>
<path d="M126.06 193.932C126.129 193.993 121.888 198.98 116.58 205.061C111.272 211.141 106.901 216.005 106.826 215.957C106.751 215.909 110.999 210.909 116.306 204.828C121.614 198.747 125.985 193.863 126.06 193.932Z" fill="#263238"/>
<path d="M120.349 185.443C118.672 187.061 116.911 188.591 115.075 190.026C112.1 192.475 109.637 194.404 109.603 194.329C111.282 192.714 113.042 191.187 114.877 189.753C116.627 188.225 118.454 186.787 120.349 185.443Z" fill="#263238"/>
<path d="M113.673 172.646C113.714 172.735 107.804 175.676 100.465 179.205C93.1257 182.735 87.1544 185.532 87.1065 185.444C87.0586 185.355 92.9752 182.42 100.315 178.884C107.654 175.348 113.632 172.557 113.673 172.646Z" fill="#263238"/>
<path d="M110.992 166.264C110.795 166.35 110.588 166.41 110.376 166.442C109.973 166.538 109.391 166.661 108.673 166.791C107.23 167.064 105.219 167.365 102.989 167.591C100.759 167.817 98.7276 167.913 97.257 167.933C96.5251 167.933 95.9301 167.933 95.5197 167.933C95.3057 167.947 95.0909 167.926 94.8835 167.872C95.6681 167.764 96.4584 167.702 97.2502 167.687C98.7139 167.598 100.732 167.461 102.955 167.235C105.178 167.01 107.182 166.75 108.632 166.551C109.411 166.4 110.199 166.304 110.992 166.264Z" fill="#263238"/>
<path d="M108.823 151.524C108.425 151.557 108.025 151.557 107.626 151.524L104.371 151.36C101.635 151.223 97.8316 151.1 93.6387 151.12C89.4457 151.141 85.6427 151.312 82.8999 151.476L79.6509 151.674C79.2536 151.72 78.8533 151.734 78.4539 151.715C78.8424 151.622 79.2384 151.563 79.6372 151.538C80.4033 151.449 81.5113 151.339 82.8793 151.223C85.6153 150.997 89.4321 150.792 93.6318 150.765C97.8316 150.737 101.641 150.908 104.391 151.107C105.759 151.209 106.874 151.305 107.64 151.387C108.037 151.405 108.433 151.451 108.823 151.524Z" fill="#263238"/>
<path d="M110.164 138.583C110.164 138.678 105.711 137.522 100.273 136.004C94.8355 134.485 90.451 133.186 90.4784 133.09C90.5058 132.994 94.9312 134.143 100.369 135.662C105.807 137.18 110.191 138.487 110.164 138.583Z" fill="#263238"/>
<path d="M113.03 127.748C112.92 127.741 112.812 127.718 112.709 127.68L111.799 127.406C111.019 127.16 109.89 126.777 108.516 126.277C104.923 124.958 101.403 123.451 97.9684 121.763C94.5354 120.073 91.195 118.2 87.9614 116.154C86.7234 115.368 85.7316 114.711 85.0613 114.239L84.2952 113.685C84.1242 113.555 84.0353 113.487 84.0421 113.473C84.1455 113.515 84.2442 113.567 84.3362 113.63L85.1434 114.123C85.8274 114.56 86.8397 115.183 88.0914 115.942C90.6017 117.461 94.1174 119.465 98.1257 121.414C102.134 123.364 105.869 124.95 108.605 126.017C109.973 126.544 111.074 126.961 111.847 127.249L112.729 127.584C112.834 127.63 112.934 127.685 113.03 127.748Z" fill="#263238"/>
<path d="M119.466 116.804C119.412 116.879 115.951 114.54 111.737 111.572C107.524 108.603 104.152 106.134 104.213 106.052C104.275 105.97 107.729 108.316 111.949 111.284C116.17 114.253 119.521 116.743 119.466 116.804Z" fill="#263238"/>
<path d="M105.862 83.5752C105.862 83.5752 105.957 83.6299 106.122 83.7599L106.806 84.3618L109.33 86.5916L117.613 93.9857L125.93 101.339L128.447 103.575L129.131 104.198C129.214 104.266 129.287 104.344 129.35 104.43C129.35 104.43 129.254 104.382 129.083 104.253L128.399 103.685C127.777 103.185 126.895 102.447 125.807 101.53C123.632 99.6971 120.663 97.1321 117.414 94.2524C114.165 91.3728 111.258 88.7189 109.206 86.7763C108.167 85.805 107.332 85.0184 106.758 84.4576L106.108 83.8146C105.944 83.6641 105.848 83.582 105.862 83.5752Z" fill="#263238"/>
<path d="M127.196 84.1978C127.196 84.1978 127.38 84.3482 127.661 84.6697C127.941 84.9912 128.345 85.4632 128.817 86.0377C129.767 87.2279 131.033 88.9105 132.346 90.8257C133.659 92.7409 134.761 94.533 135.52 95.8531C135.903 96.5371 136.204 97.0501 136.395 97.4263C136.514 97.6135 136.606 97.816 136.669 98.0282C136.168 97.3756 135.711 96.69 135.301 95.9762C134.487 94.6903 133.352 92.9324 132.045 91.0172C130.739 89.102 129.507 87.4126 128.625 86.1882C128.109 85.5537 127.632 84.8891 127.196 84.1978Z" fill="#263238"/>
<g opacity="0.2">
<path d="M99.8562 78.3768L129.617 104.43L137.011 98.5138L119.747 72.0566C119.747 72.0566 118.42 73.0279 114.959 74.0129C111.655 74.9636 101.84 75.2167 99.8562 78.3768Z" fill="black"/>
</g>
<g opacity="0.2">
<path d="M132.982 56.3385L147.51 92.7067L156.799 89.7997L153.701 58.2537C153.701 58.2537 152.107 58.6299 148.557 58.1784C145.116 57.7407 136.778 54.478 132.982 56.3385Z" fill="black"/>
</g>
<g opacity="0.3">
<path d="M171.724 48.7256L172.702 88.2198L181.403 88.637L190.213 58.3221C188.382 57.9587 186.641 57.2381 185.089 56.2017C182.08 54.2728 175.938 48.4041 171.724 48.7256Z" fill="black"/>
</g>
<g opacity="0.2">
<path d="M209.672 56.188L195.233 92.5973L203.072 96.3525L222.942 71.8242C221.449 70.5634 220.175 69.0633 219.173 67.3851C217.299 64.355 214.071 57.3987 209.672 56.188Z" fill="black"/>
</g>
<g opacity="0.2">
<path d="M243.585 78.9036L216.69 106.948L222.682 115.026L248.961 97.4878C248.096 95.894 247.51 94.1635 247.231 92.3715C246.602 88.9515 246.513 82.7408 243.585 78.9036Z" fill="black"/>
</g>
<g opacity="0.2">
<path d="M264.816 110.545L228.599 125.45L231.601 134.704L263.113 131.284C263.113 131.284 262.915 130.313 263.332 126.763C263.729 123.323 267.368 115.634 264.816 110.545Z" fill="black"/>
</g>
<g opacity="0.2">
<path d="M272.84 150.005L233.352 151.373L233.024 160.081L263.12 168.891C263.32 167.637 263.722 166.424 264.31 165.3C266.554 161.114 272.84 155.204 272.84 150.005Z" fill="black"/>
</g>
<g opacity="0.2">
<path d="M265.555 187.338L229.2 173.172L225.527 181.1L250.268 200.683C251.568 199.437 253.007 198.345 254.556 197.427C257.566 195.505 264.721 192.393 265.555 187.338Z" fill="black"/>
</g>
<g opacity="0.2">
<path d="M212.087 186.777L203.085 194.301C203.769 194.985 215.76 215.396 223.154 227.995C223.25 227.912 223.351 227.835 223.455 227.763C228.318 224.507 236.978 225.813 241.861 222.592L212.087 186.777Z" fill="black"/>
<path d="M195.548 201.059L182.114 205.642L188.475 242.113C188.888 241.967 189.311 241.851 189.741 241.764C196.074 240.512 204.426 246.025 210.261 243.611C211.059 243.268 211.802 242.807 212.463 242.243L195.548 201.059Z" fill="black"/>
<path d="M171.02 251.278L173.16 203.631L161.532 200.683L152.894 241.723L153.208 241.778C159.227 242.947 164.706 250.868 171.02 251.278Z" fill="black"/>
<path d="M141.813 195.539C141.813 195.539 126.464 216.1 118.434 227.167C118.805 227.355 119.166 227.562 119.514 227.79C124.788 231.319 126.778 241.148 132.709 243.611C132.982 243.72 133.263 243.809 133.543 243.891L154.987 203.303L141.813 195.539Z" fill="black"/>
<path d="M126.06 178.987L93.324 201.483C93.4471 201.647 93.5839 201.805 93.6933 201.976C97.2501 207.284 95.3554 217.126 99.8493 221.627C100.264 222.035 100.723 222.395 101.217 222.701C112.784 209.664 133.55 186.257 134.302 185.444L126.06 178.987Z" fill="black"/>
<path d="M118.557 162.919L79.8492 169.171C80.4717 175.382 75.5742 183.221 77.8793 188.775C78.0182 189.114 78.1852 189.441 78.3786 189.753C91.9218 183.009 120.219 168.98 121.395 168.904L118.557 162.919Z" fill="black"/>
<path d="M116.443 141.36L79.8561 130.805C79.8219 131.12 79.7808 131.435 79.7261 131.742C78.5086 137.898 70.1912 143.5 70.1912 150.005C70.193 150.438 70.2296 150.871 70.3006 151.298H114.959L116.443 141.36Z" fill="black"/>
<path d="M78.0298 110.942C91.7098 118.268 118.434 133.09 118.434 133.09L125.014 120.593L94.1106 97.3374C93.9738 97.5768 93.8439 97.823 93.6934 98.0214C90.2118 103.213 80.6837 105.238 78.0298 110.942Z" fill="black"/>
</g>
<path d="M272.771 150.005L272.73 149.568C272.714 149.139 272.654 148.712 272.552 148.295C272.154 146.655 271.459 145.102 270.5 143.713C269.324 141.825 267.546 139.711 265.712 137.037C264.677 135.614 263.882 134.031 263.36 132.351C262.914 130.39 262.914 128.355 263.36 126.394C263.743 124.307 264.365 122.16 264.905 119.882C265.446 117.604 265.952 115.142 265.446 112.625C265.159 111.351 264.576 110.162 263.743 109.157C262.849 108.133 261.828 107.227 260.706 106.462C258.435 104.848 255.822 103.562 253.325 101.879C252.034 101.046 250.86 100.043 249.837 98.8969C248.832 97.6527 248.102 96.2096 247.696 94.6629C246.82 91.5507 246.622 88.2265 245.959 84.9023C245.669 83.2096 245.098 81.5774 244.269 80.0732C243.369 78.5589 242.004 77.376 240.377 76.7011C238.698 76.0262 236.939 75.5666 235.145 75.3331C233.332 75.0321 231.471 74.8201 229.611 74.4918C227.705 74.2169 225.856 73.6324 224.139 72.7613C222.436 71.7375 220.994 70.3327 219.926 68.6573C218.79 67.0293 217.812 65.2783 216.772 63.5478C215.776 61.7771 214.583 60.125 213.215 58.623C211.806 57.1035 209.883 56.1604 207.819 55.9759C205.71 55.8979 203.601 56.1447 201.567 56.7078C199.515 57.2071 197.408 57.8159 195.254 58.2194C193.076 58.7327 190.804 58.6904 188.646 58.0963C186.543 57.2713 184.576 56.1345 182.812 54.7242C180.985 53.3562 179.207 51.9882 177.258 50.7707C175.308 49.5531 173.099 48.6708 170.801 48.9307H170.37C170.226 48.9307 170.089 48.9923 169.952 49.0196C169.672 49.088 169.385 49.1359 169.111 49.218C168.56 49.3932 168.021 49.6034 167.497 49.8473C166.439 50.3504 165.423 50.9383 164.46 51.6051C162.517 52.9731 160.677 54.4643 158.68 55.8186C157.686 56.5147 156.633 57.1234 155.534 57.638C154.407 58.142 153.201 58.4452 151.97 58.5341C149.502 58.5499 147.045 58.2019 144.679 57.5012C142.296 56.8209 139.865 56.3202 137.408 56.0033C136.18 55.8825 134.942 55.9657 133.742 56.2495C132.546 56.5818 131.444 57.1858 130.52 58.0142C128.632 59.6627 127.319 61.8788 126.005 64.0539C124.766 66.3316 123.316 68.4887 121.676 70.4972C120.807 71.4922 119.764 72.3198 118.598 72.9391C117.407 73.502 116.156 73.9288 114.87 74.2113C112.298 74.7791 109.672 75.0185 107.079 75.4836C104.487 75.9487 101.84 76.6806 99.9656 78.5C99.061 79.4636 98.3627 80.6018 97.9136 81.8448C97.4607 83.0985 97.1286 84.3925 96.9218 85.7094C96.443 88.3496 96.2378 91.0583 95.5538 93.719C95.2599 95.0694 94.769 96.3692 94.0969 97.5768C93.3888 98.7732 92.4604 99.8245 91.3609 100.675C89.1994 102.413 86.7439 103.699 84.3909 105.135C83.2121 105.844 82.0811 106.63 81.0051 107.488C79.9347 108.343 79.0345 109.392 78.3512 110.58C77.6997 111.789 77.3699 113.146 77.3936 114.519C77.4178 115.9 77.5805 117.275 77.8792 118.623C78.4538 121.359 79.3225 124.048 79.7876 126.831C80.0633 128.26 80.1187 129.723 79.9518 131.168C79.7576 132.61 79.2935 134.002 78.5838 135.272C77.1542 137.769 75.2937 139.964 73.6453 142.29C72.7987 143.436 72.0613 144.659 71.4428 145.942C70.7651 147.194 70.4102 148.595 70.4102 150.019C70.4102 151.443 70.7651 152.844 71.4428 154.096C72.0603 155.38 72.7977 156.603 73.6453 157.748C75.2937 160.074 77.1542 162.269 78.5838 164.766C79.2805 166.012 79.744 167.375 79.9518 168.788C80.1255 170.214 80.0794 171.658 79.815 173.07C79.3567 175.881 78.488 178.576 77.9066 181.312C77.6103 182.661 77.4477 184.035 77.421 185.416C77.394 186.791 77.7214 188.151 78.3717 189.363C79.0497 190.554 79.948 191.606 81.0188 192.461C82.0947 193.319 83.2258 194.105 84.4046 194.814C86.7575 196.251 89.1926 197.55 91.3814 199.274C92.4791 200.127 93.4072 201.178 94.1174 202.372C94.7945 203.575 95.2857 204.874 95.5743 206.223C96.2173 208.891 96.4362 211.6 96.9423 214.24C97.1547 215.556 97.489 216.85 97.941 218.104C98.3794 219.347 99.0659 220.487 99.9588 221.456C101.853 223.296 104.521 224.028 107.079 224.493C109.637 224.958 112.298 225.177 114.87 225.765C116.158 226.049 117.411 226.476 118.605 227.037C119.769 227.659 120.812 228.486 121.683 229.479C123.307 231.491 124.742 233.648 125.971 235.923C127.285 238.098 128.598 240.314 130.486 241.962C131.408 242.789 132.508 243.393 133.7 243.727C134.911 244.033 136.164 244.134 137.408 244.028C139.861 243.698 142.287 243.188 144.665 242.503C147.033 241.797 149.492 241.446 151.963 241.463C153.194 241.556 154.4 241.861 155.527 242.366C156.625 242.882 157.678 243.491 158.673 244.185C160.671 245.553 162.504 247.065 164.453 248.392C165.412 249.063 166.426 249.654 167.483 250.157C168.008 250.399 168.547 250.61 169.097 250.786C169.378 250.861 169.658 250.916 169.939 250.984L170.363 251.073H170.787C173.092 251.333 175.308 250.389 177.251 249.233C179.193 248.077 180.979 246.62 182.798 245.28C184.565 243.869 186.534 242.733 188.639 241.908C190.797 241.317 193.068 241.275 195.247 241.785C197.401 242.195 199.481 242.804 201.56 243.303C203.598 243.86 205.708 244.106 207.819 244.035C209.881 243.843 211.799 242.898 213.209 241.381C214.572 239.873 215.765 238.219 216.765 236.449C217.798 234.726 218.776 232.975 219.912 231.34C220.986 229.667 222.43 228.263 224.132 227.236C225.849 226.364 227.698 225.781 229.604 225.512C231.471 225.177 233.325 224.965 235.138 224.671C236.934 224.426 238.692 223.955 240.37 223.269C241.996 222.591 243.36 221.409 244.262 219.896C245.086 218.391 245.654 216.759 245.945 215.067C246.629 211.743 246.807 208.412 247.689 205.3C248.091 203.754 248.822 202.312 249.83 201.073C250.85 199.923 252.024 198.92 253.318 198.091C255.815 196.408 258.428 195.122 260.692 193.508C261.82 192.744 262.843 191.836 263.736 190.806C264.568 189.803 265.149 188.617 265.432 187.345C265.671 186.116 265.705 184.857 265.535 183.617C265.393 182.429 265.179 181.25 264.892 180.088C264.344 177.81 263.729 175.662 263.346 173.576C262.901 171.615 262.901 169.579 263.346 167.618C263.872 165.94 264.666 164.357 265.699 162.933C267.552 160.259 269.338 158.145 270.487 156.257C271.446 154.868 272.142 153.315 272.539 151.674C272.641 151.257 272.701 150.831 272.717 150.402L272.758 149.971C272.758 149.971 272.758 150.115 272.758 150.402C272.745 150.833 272.69 151.261 272.594 151.681C272.204 153.335 271.508 154.901 270.542 156.298C269.372 158.2 267.6 160.32 265.754 162.995C264.727 164.408 263.944 165.982 263.435 167.653C262.99 169.593 262.99 171.608 263.435 173.549C263.818 175.601 264.44 177.769 264.994 180.047C265.292 181.218 265.521 182.405 265.678 183.603C265.849 184.859 265.814 186.134 265.576 187.379C265.29 188.68 264.699 189.895 263.852 190.922C262.951 191.963 261.919 192.883 260.781 193.658C258.496 195.286 255.89 196.579 253.407 198.255C252.139 199.079 250.989 200.07 249.987 201.203C248.999 202.423 248.286 203.841 247.894 205.361C247.026 208.439 246.834 211.764 246.164 215.108C245.875 216.827 245.299 218.485 244.461 220.013C243.537 221.57 242.136 222.788 240.466 223.487C238.771 224.184 236.994 224.662 235.179 224.91C233.359 225.211 231.499 225.423 229.645 225.758C227.763 226.027 225.938 226.602 224.242 227.462C222.587 228.466 221.183 229.834 220.138 231.463C219.016 233.084 218.038 234.828 216.998 236.566C215.992 238.353 214.79 240.023 213.414 241.545C211.959 243.113 209.976 244.088 207.846 244.281C205.705 244.365 203.564 244.118 201.499 243.549C199.412 243.05 197.333 242.448 195.199 242.044C193.068 241.546 190.847 241.586 188.735 242.161C186.662 242.978 184.723 244.101 182.983 245.492C181.17 246.826 179.385 248.262 177.415 249.466C176.902 249.739 176.416 250.061 175.883 250.287C175.616 250.41 175.356 250.54 175.089 250.649L174.262 250.943C173.139 251.329 171.947 251.469 170.766 251.354L170.322 251.319C170.178 251.319 170.035 251.258 169.884 251.231C169.597 251.162 169.303 251.107 169.022 251.025C168.454 250.85 167.899 250.635 167.36 250.382C166.287 249.873 165.257 249.276 164.282 248.597C162.319 247.229 160.479 245.738 158.502 244.391C157.52 243.709 156.484 243.11 155.404 242.598C154.311 242.112 153.142 241.819 151.95 241.73C149.511 241.719 147.084 242.067 144.747 242.763C142.344 243.47 139.89 243.993 137.408 244.329C136.139 244.453 134.859 244.367 133.618 244.076C132.376 243.73 131.229 243.102 130.267 242.243C128.324 240.54 126.997 238.303 125.684 236.121C124.467 233.864 123.043 231.725 121.43 229.732C120.589 228.769 119.578 227.969 118.447 227.373C117.282 226.819 116.056 226.401 114.795 226.128C112.25 225.567 109.631 225.327 107.018 224.856C105.701 224.637 104.408 224.298 103.153 223.843C101.881 223.377 100.717 222.655 99.733 221.723C98.7994 220.726 98.0842 219.544 97.6332 218.255C97.1713 216.981 96.8301 215.666 96.614 214.329C96.1352 211.668 95.93 208.959 95.246 206.333C94.962 205.017 94.4824 203.751 93.8233 202.578C93.131 201.418 92.2259 200.399 91.1557 199.575C89.0353 197.872 86.5866 196.586 84.2268 195.143C83.0362 194.424 81.8938 193.629 80.8068 192.762C79.7003 191.875 78.7719 190.787 78.0708 189.554C77.3953 188.294 77.0561 186.88 77.0858 185.45C77.102 184.035 77.2671 182.625 77.5783 181.244C78.1597 178.508 79.0284 175.772 79.4798 173.036C79.738 171.658 79.7818 170.248 79.6098 168.856C79.4025 167.474 78.9386 166.142 78.2418 164.93C76.8738 162.468 74.9859 160.286 73.3238 157.94C72.4576 156.771 71.6998 155.525 71.0598 154.219C70.364 152.918 70 151.466 70 149.992C70 148.517 70.364 147.065 71.0598 145.765C71.691 144.462 72.4421 143.221 73.3033 142.057C74.9654 139.711 76.819 137.529 78.2144 135.074C78.9105 133.859 79.3744 132.525 79.5824 131.141C79.742 129.748 79.6959 128.34 79.4456 126.961C78.9873 124.225 78.1186 121.489 77.5372 118.753C77.2317 117.374 77.069 115.967 77.0516 114.554C77.0243 113.123 77.3659 111.71 78.0434 110.45C78.7491 109.222 79.6769 108.137 80.7794 107.249C81.8648 106.379 83.0073 105.584 84.1994 104.868C86.5592 103.425 88.9874 102.132 91.1283 100.436C92.1966 99.6116 93.0993 98.5928 93.7891 97.4331C94.445 96.2563 94.9222 94.9884 95.205 93.6711C95.8411 91.0446 96.06 88.3428 96.573 85.682C96.7867 84.3445 97.1257 83.03 97.5853 81.7559C97.9977 80.4516 98.7156 79.2648 99.6793 78.2939C100.643 77.3231 101.825 76.5965 103.126 76.1744C104.38 75.7199 105.674 75.381 106.99 75.1621C109.603 74.6901 112.223 74.4781 114.767 73.8967C116.026 73.6151 117.251 73.1977 118.42 72.6518C119.547 72.0504 120.556 71.2484 121.395 70.2852C123.009 68.2922 124.433 66.1535 125.65 63.8966C126.963 61.7147 128.29 59.478 130.239 57.7817C131.206 56.9094 132.363 56.2747 133.618 55.928C134.86 55.6395 136.139 55.554 137.408 55.6749C139.875 56.0048 142.314 56.5169 144.706 57.2071C147.042 57.9085 149.469 58.2588 151.909 58.2468C153.09 58.1526 154.247 57.8564 155.329 57.3713C156.412 56.8665 157.449 56.2668 158.427 55.5792C160.411 54.2112 162.251 52.7132 164.214 51.3794C165.187 50.6981 166.217 50.1009 167.292 49.5942C167.829 49.3435 168.382 49.1265 168.947 48.9444C169.234 48.8623 169.528 48.8144 169.816 48.746L170.247 48.6503H170.691C171.872 48.5387 173.063 48.6786 174.186 49.0607L175.014 49.3548C175.281 49.4642 175.541 49.5942 175.808 49.7173C176.348 49.9499 176.834 50.2645 177.34 50.5381C179.316 51.7419 181.095 53.1783 182.914 54.5121C184.653 55.902 186.59 57.0247 188.66 57.8432C190.771 58.4217 192.993 58.4617 195.124 57.9595C197.258 57.5628 199.337 56.9609 201.423 56.4615C203.489 55.8934 205.63 55.6443 207.771 55.7228C209.9 55.9184 211.883 56.8926 213.339 58.4588C214.716 59.9832 215.92 61.6555 216.93 63.4452C217.969 65.1757 218.941 66.9267 220.062 68.541C221.106 70.1732 222.51 71.5444 224.166 72.5492C225.861 73.4113 227.687 73.9868 229.57 74.2524C231.424 74.5875 233.284 74.7996 235.103 75.1005C236.918 75.3522 238.695 75.8302 240.391 76.5233C242.061 77.2222 243.463 78.4375 244.392 79.9911C245.228 81.5203 245.803 83.1776 246.095 84.8954C246.779 88.2402 246.957 91.5644 247.819 94.6424C248.215 96.161 248.928 97.5784 249.912 98.8011C250.912 99.9376 252.063 100.932 253.332 101.756C255.815 103.432 258.428 104.725 260.706 106.352C261.843 107.128 262.876 108.048 263.777 109.088C264.625 110.114 265.218 111.326 265.507 112.625C265.746 113.872 265.78 115.149 265.61 116.407C265.453 117.603 265.225 118.789 264.926 119.957C264.379 122.242 263.749 124.383 263.366 126.462C262.921 128.402 262.921 130.418 263.366 132.358C263.875 134.029 264.659 135.603 265.685 137.016C267.525 139.697 269.297 141.804 270.473 143.713C271.438 145.111 272.134 146.677 272.525 148.33C272.621 148.75 272.676 149.178 272.689 149.609C272.771 149.855 272.771 150.005 272.771 150.005Z" fill="#263238"/>
<path d="M152.456 244.028C152.552 244.028 150.028 254.288 146.82 266.887C143.612 279.487 140.93 289.685 140.835 289.665C140.739 289.644 143.263 279.405 146.471 266.798C149.679 254.192 152.387 243.973 152.456 244.028Z" fill="#263238"/>
<path d="M139.726 96.6397L139.001 97.1185L136.867 98.4865C135.923 99.0953 134.815 99.964 133.516 100.922C132.832 101.414 132.202 102.009 131.464 102.611L130.349 103.548C129.966 103.876 129.603 104.232 129.213 104.608C125.43 108.137 122.107 112.129 119.323 116.489L118.105 118.446C117.674 119.095 117.346 119.814 116.949 120.498C116.553 121.182 116.163 121.92 115.807 122.673C115.451 123.425 115.123 124.198 114.754 124.978C114.583 125.368 114.391 125.751 114.227 126.154C114.063 126.558 113.919 126.968 113.762 127.386C113.454 128.206 113.126 129.034 112.825 129.889C112.319 131.619 111.676 133.371 111.293 135.238C109.343 143.317 109.017 151.704 110.335 159.91C112.05 170.477 116.475 180.419 123.178 188.767C129.882 197.114 138.634 203.581 148.582 207.536C158.53 211.492 169.334 212.801 179.939 211.336C190.544 209.872 200.588 205.683 209.091 199.178C211.238 197.528 213.28 195.746 215.206 193.843L216.574 192.393C217.039 191.914 217.49 191.428 217.942 190.915L219.241 189.417C219.652 188.898 220.055 188.378 220.466 187.865C226.653 179.896 230.781 170.524 232.484 160.58C232.884 158.271 233.156 155.942 233.298 153.603C233.366 152.447 233.366 151.305 233.407 150.183C233.448 149.061 233.325 147.919 233.284 146.804C233.284 146.25 233.236 145.689 233.216 145.135C233.195 144.581 233.092 144.041 233.038 143.494C232.901 142.406 232.771 141.325 232.641 140.258C232.511 139.191 232.231 138.152 232.025 137.112C231.854 136.081 231.626 135.06 231.341 134.055L230.493 131.093C230.36 130.607 230.198 130.13 230.008 129.663C229.83 129.191 229.652 128.719 229.481 128.254C229.118 127.331 228.797 126.387 228.407 125.518C228.017 124.65 227.593 123.767 227.19 122.912C224.215 116.728 220.224 111.087 215.384 106.223C211.716 102.579 207.624 99.3887 203.195 96.7218L200.582 95.2239C200.188 94.9926 199.781 94.7826 199.364 94.5946L198.215 94.0474L196.163 93.0761C195.548 92.7615 194.939 92.5836 194.426 92.3921L192.046 91.4755L191.239 91.1472L192.059 91.4413L194.446 92.3305C194.966 92.5357 195.575 92.7136 196.198 93.0145L198.25 93.9721L199.405 94.5193C199.824 94.7026 200.233 94.9081 200.63 95.1349L203.25 96.6261C207.708 99.2761 211.826 102.46 215.514 106.106C220.383 110.967 224.402 116.611 227.402 122.803C227.805 123.671 228.216 124.54 228.633 125.429C229.05 126.318 229.317 127.256 229.714 128.165L230.247 129.574C230.438 130.043 230.6 130.523 230.733 131.011C231.02 131.996 231.307 132.981 231.595 133.986C231.891 134.996 232.131 136.021 232.313 137.057C232.518 138.097 232.764 139.109 232.942 140.211C233.12 141.312 233.202 142.372 233.339 143.466C233.4 144.014 233.489 144.561 233.523 145.115C233.558 145.669 233.571 146.23 233.592 146.791C233.633 147.912 233.694 149.041 233.722 150.211C233.749 151.38 233.688 152.502 233.612 153.631C232.914 166.151 228.421 178.163 220.733 188.07L219.488 189.63L218.174 191.141C217.75 191.654 217.292 192.147 216.806 192.625L215.438 194.089C213.501 196.004 211.445 197.795 209.282 199.452C200.738 205.983 190.647 210.189 179.994 211.66C169.34 213.131 158.487 211.816 148.492 207.844C138.498 203.872 129.703 197.378 122.966 188.995C116.228 180.612 111.778 170.627 110.048 160.012C109.354 155.734 109.124 151.392 109.364 147.064C109.536 143.072 110.111 139.108 111.081 135.231C111.464 133.357 112.113 131.606 112.62 129.862C112.927 129.013 113.263 128.179 113.577 127.351C113.734 126.941 113.892 126.531 114.042 126.12C114.193 125.71 114.405 125.334 114.576 124.937C114.938 124.157 115.26 123.391 115.636 122.632C116.012 121.872 116.416 121.168 116.792 120.45C117.168 119.732 117.524 119.02 117.955 118.364L119.186 116.407C121.985 112.04 125.335 108.052 129.152 104.54C129.542 104.177 129.904 103.808 130.287 103.48L131.409 102.543C132.148 101.948 132.777 101.359 133.461 100.867C134.795 99.9093 135.889 99.0543 136.84 98.4523L138.995 97.0843C139.46 96.7834 139.726 96.6397 139.726 96.6397Z" fill="#263238"/>
<g filter="url(#filter0_d_188_1301)">
<rect x="91" y="71" width="160" height="160" rx="80" fill="white"/>
</g>
<defs>
<filter id="filter0_d_188_1301" x="61" y="53" width="220" height="220" filterUnits="userSpaceOnUse" color-interpolation-filters="sRGB">
<feFlood flood-opacity="0" result="BackgroundImageFix"/>
<feColorMatrix in="SourceAlpha" type="matrix" values="0 0 0 0 0 0 0 0 0 0 0 0 0 0 0 0 0 0 127 0" result="hardAlpha"/>
<feOffset dy="12"/>
<feGaussianBlur stdDeviation="15"/>
<feComposite in2="hardAlpha" operator="out"/>
<feColorMatrix type="matrix" values="0 0 0 0 0.45098 0 0 0 0 0.45098 0 0 0 0 0.45098 0 0 0 0.2 0"/>
<feBlend mode="normal" in2="BackgroundImageFix" result="effect1_dropShadow_188_1301"/>
<feBlend mode="normal" in="SourceGraphic" in2="effect1_dropShadow_188_1301" result="shape"/>
</filter>
</defs>
</svg>
