<svg width="21" height="21" viewBox="0 0 21 21" fill="none" xmlns="http://www.w3.org/2000/svg">
<path d="M17.7818 16.294C17.7677 16.1329 17.6257 16.0138 17.4644 16.0277C17.3032 16.0418 17.184 16.1839 17.1981 16.3451L17.2529 16.9721C17.2567 17.0148 17.2354 17.043 17.2223 17.056C17.2093 17.069 17.1812 17.0901 17.1383 17.0866L14.3827 16.8431C14.26 16.8321 14.1434 16.8995 14.0913 17.0114L12.9244 19.5195C12.9063 19.5584 12.8737 19.5722 12.8559 19.577C12.8381 19.5818 12.803 19.5861 12.7678 19.5615L10.5026 17.9752C10.4018 17.9046 10.2675 17.9046 10.1666 17.9752L7.90043 19.5608C7.86531 19.5854 7.83023 19.5811 7.81246 19.5763C7.79468 19.5715 7.76214 19.5577 7.74402 19.5189L6.57428 17.0126C6.52221 16.901 6.40596 16.8337 6.28327 16.8447L3.52832 17.0858C3.48551 17.0896 3.45735 17.0682 3.44434 17.0552C3.43133 17.0422 3.41004 17.0139 3.41379 16.9712L3.65723 14.2156C3.66809 14.0927 3.60082 13.9762 3.48899 13.9242L0.980884 12.7572C0.941939 12.7391 0.92811 12.7066 0.923345 12.6887C0.918579 12.6709 0.914243 12.6359 0.938853 12.6007L2.52511 10.3354C2.59574 10.2346 2.59578 10.1003 2.52515 9.99943L0.939556 7.73328C0.914985 7.69816 0.919282 7.66309 0.924048 7.64531C0.928814 7.62754 0.942603 7.595 0.98147 7.57687L3.4877 6.40714C3.59926 6.35507 3.66637 6.23878 3.65567 6.11612L3.41457 3.36118C3.41082 3.31841 3.43215 3.2902 3.44516 3.2772C3.45821 3.26415 3.48668 3.24302 3.52918 3.24665L6.28475 3.49009C6.40756 3.5013 6.52413 3.43372 6.57616 3.32184L6.88647 2.65493C6.95476 2.50821 6.89116 2.33395 6.74444 2.2657C6.59764 2.19742 6.4235 2.26106 6.35522 2.40774L6.13158 2.88836L3.58075 2.66301C3.37614 2.64489 3.17606 2.7177 3.03098 2.8627C2.8859 3.00766 2.81293 3.20798 2.83082 3.41227L3.05402 5.96292L0.733617 7.04593C0.547951 7.13261 0.411075 7.29578 0.358028 7.49371C0.30502 7.6916 0.341973 7.90137 0.459435 8.06922L1.92745 10.1673L0.458888 12.2646C0.34127 12.4326 0.304278 12.6425 0.357442 12.8406C0.410607 13.0387 0.547756 13.202 0.733695 13.2884L3.05547 14.3687L2.83012 16.9196C2.81207 17.1238 2.88484 17.3242 3.02981 17.4693C3.17477 17.6144 3.37516 17.6875 3.57938 17.6695L6.13002 17.4463L7.21304 19.7667C7.29972 19.9524 7.46288 20.0892 7.66081 20.1423C7.85867 20.1952 8.06851 20.1583 8.23633 20.0409L10.3344 18.5729L12.4317 20.0415C12.5494 20.1239 12.6876 20.1667 12.828 20.1667C12.888 20.1667 12.9484 20.1589 13.0078 20.143C13.2059 20.0898 13.3691 19.9527 13.4556 19.7667L14.5359 17.445L17.0867 17.6703C17.2909 17.6885 17.4914 17.6156 17.6365 17.4706C17.7816 17.3257 17.8545 17.1253 17.8366 16.921L17.7818 16.294Z" fill="#878787"/>
<path d="M18.7401 10.1654L20.2087 8.06808C20.3264 7.90007 20.3634 7.69011 20.3102 7.49202C20.257 7.29393 20.1199 7.13073 19.9339 7.04424L17.6121 5.964L17.8375 3.41312C17.8556 3.20882 17.7828 3.00847 17.6378 2.86335C17.4928 2.71827 17.2927 2.64527 17.0883 2.66319L14.5376 2.8864L13.4546 0.566031C13.3679 0.380366 13.2047 0.24349 13.0068 0.190443C12.8089 0.137435 12.5991 0.174349 12.4313 0.29185L10.3332 1.75987L8.23584 0.291225C8.06787 0.173607 7.85795 0.136614 7.65982 0.189779C7.46174 0.242943 7.29849 0.380092 7.21201 0.566031L6.94119 1.14807C6.8729 1.29479 6.9365 1.46905 7.08322 1.53729C7.22994 1.60557 7.4042 1.54194 7.47244 1.39526L7.74326 0.813221C7.76139 0.774275 7.79393 0.760447 7.81174 0.755681C7.82959 0.750876 7.86463 0.746579 7.89975 0.771189L10.165 2.35745C10.2659 2.42808 10.4001 2.42811 10.5011 2.35749L12.7672 0.771892C12.8023 0.747283 12.8374 0.75158 12.8552 0.756423C12.8729 0.761189 12.9055 0.774978 12.9237 0.813807L14.0933 3.32004C14.1454 3.43164 14.2621 3.4989 14.3843 3.48797L17.1393 3.24687C17.1815 3.24328 17.2102 3.26445 17.2233 3.27746C17.2363 3.2905 17.2576 3.31875 17.2538 3.36148L17.0104 6.11705C16.9995 6.23994 17.0668 6.35642 17.1786 6.40846L19.6867 7.57542C19.7257 7.5935 19.7395 7.62604 19.7442 7.64386C19.7491 7.66167 19.7533 7.69675 19.7288 7.7319L18.1425 9.99727C18.0719 10.0981 18.0718 10.2324 18.1424 10.3333L19.728 12.5994C19.7526 12.6346 19.7483 12.6696 19.7435 12.6874C19.7387 12.7052 19.7249 12.7377 19.6861 12.7558L17.1799 13.9255C17.0683 13.9776 17.0012 14.0939 17.0119 14.2166L17.0784 14.9774C17.0918 15.1299 17.2197 15.2448 17.37 15.2448C17.3785 15.2448 17.3872 15.2445 17.3958 15.2437C17.557 15.2296 17.6763 15.0875 17.6622 14.9263L17.6134 14.3698L19.9339 13.2868C20.1195 13.2001 20.2564 13.0369 20.3094 12.839C20.3625 12.6412 20.3255 12.4314 20.208 12.2635L18.7401 10.1654Z" fill="#878787"/>
<path d="M7.76402 12.142V8.14C7.76402 7.69043 7.39828 7.32469 6.94874 7.32469C6.49921 7.32469 6.13346 7.69043 6.13346 8.14V9.64197L4.8642 7.68461C4.86271 7.68235 4.86127 7.68016 4.85974 7.67797C4.65619 7.38207 4.28896 7.25484 3.94611 7.36152C3.60317 7.46809 3.37274 7.78098 3.37274 8.14008V12.1952C3.37274 12.6447 3.73849 13.0105 4.18806 13.0105C4.63759 13.0105 5.00334 12.6447 5.00334 12.1952V10.8137L6.17557 12.6273C6.17714 12.6297 6.1787 12.6321 6.1803 12.6344C6.34237 12.8699 6.6098 13.0105 6.89562 13.0105C7.37449 13.0104 7.76402 12.6209 7.76402 12.142ZM7.17808 12.142C7.17808 12.2978 7.05136 12.4245 6.89562 12.4245C6.80382 12.4245 6.71784 12.3799 6.66495 12.305L4.95642 9.6617C4.88592 9.55263 4.75213 9.50302 4.62748 9.53974C4.50295 9.5765 4.41744 9.69088 4.41744 9.82072V12.1951C4.41744 12.3216 4.31455 12.4245 4.1881 12.4245C4.06161 12.4245 3.95872 12.3216 3.95872 12.1951V8.14004C3.95872 8.03903 4.02353 7.95102 4.12005 7.92102C4.21548 7.89141 4.31759 7.92606 4.37521 8.00743L6.18065 10.7916C6.25128 10.9005 6.38503 10.95 6.5096 10.9131C6.63405 10.8763 6.71945 10.762 6.71945 10.6322V8.14C6.71945 8.01352 6.82234 7.91063 6.94878 7.91063C7.07523 7.91063 7.17812 8.01352 7.17812 8.14L7.17808 12.142Z" fill="#878787"/>
<path d="M10.559 8.95482C11.0085 8.95482 11.3742 8.58907 11.3742 8.13954C11.3742 7.68996 11.0085 7.32422 10.559 7.32422H8.98197C8.53243 7.32422 8.16669 7.68996 8.16669 8.13954V12.1947C8.16669 12.6443 8.53243 13.01 8.98197 13.01H10.559C11.0085 13.01 11.3742 12.6443 11.3742 12.1947C11.3742 11.7451 11.0085 11.3794 10.559 11.3794H9.79728V10.9824H10.3826C10.8322 10.9824 11.1979 10.6167 11.1979 10.1671C11.1979 9.71759 10.8322 9.35185 10.3826 9.35185H9.79728V8.95485L10.559 8.95482ZM9.50431 9.93775H10.3826C10.5091 9.93775 10.612 10.0406 10.612 10.1671C10.612 10.2935 10.5091 10.3964 10.3826 10.3964H9.50431C9.34252 10.3964 9.21134 10.5276 9.21134 10.6894V11.6723C9.21134 11.8341 9.34252 11.9653 9.50431 11.9653H10.559C10.6854 11.9653 10.7883 12.0682 10.7883 12.1946C10.7883 12.3211 10.6854 12.424 10.559 12.424H8.98197C8.85552 12.424 8.75263 12.3211 8.75263 12.1946V8.13954C8.75263 8.01305 8.85552 7.91016 8.98197 7.91016H10.559C10.6854 7.91016 10.7883 8.01305 10.7883 8.13954C10.7883 8.26598 10.6854 8.36887 10.559 8.36887H9.50431C9.34252 8.36887 9.21134 8.50005 9.21134 8.66185V9.64478C9.21134 9.80658 9.34252 9.93775 9.50431 9.93775Z" fill="#878787"/>
<path d="M12.4339 7.34006C11.9929 7.4274 11.7052 7.85721 11.7927 8.29932L12.5952 12.2696C12.6802 12.6988 13.0595 13.0103 13.4969 13.0103C13.9026 13.0103 14.2556 12.7499 14.3752 12.3625L14.7298 11.2156L15.0835 12.3621C15.2031 12.7498 15.5561 13.0103 15.9619 13.0103C16.3957 13.0103 16.7726 12.7035 16.8616 12.2796L17.8995 8.31588C17.901 8.31022 17.9023 8.30452 17.9034 8.29881C17.9459 8.08522 17.9027 7.86787 17.7817 7.68682C17.6607 7.50576 17.4764 7.38264 17.2628 7.34017C16.8276 7.25365 16.4032 7.5324 16.3079 7.96338L15.8722 9.34265L15.51 8.21202C15.4039 7.86823 15.0909 7.63717 14.7309 7.63705C14.3713 7.63705 14.0582 7.86791 13.9529 8.20846L13.6441 9.17007L13.3916 7.97936C13.3489 7.76658 13.2262 7.58303 13.0458 7.46228C12.8648 7.34111 12.6474 7.29764 12.4339 7.34006ZM12.8172 8.09526C12.8175 8.09655 12.8178 8.09784 12.818 8.09913L13.2994 10.3696C13.3269 10.4996 13.4384 10.5947 13.5711 10.6015C13.7038 10.6087 13.8243 10.5249 13.8649 10.3985L14.5117 8.38464C14.5417 8.28795 14.6297 8.22303 14.731 8.22303C14.8322 8.22307 14.9202 8.28811 14.951 8.38784L15.5951 10.3984C15.634 10.5198 15.7468 10.602 15.8742 10.602H15.8748C16.0024 10.6018 16.1151 10.519 16.1535 10.3973L16.871 8.12627C16.8742 8.11604 16.8769 8.10565 16.879 8.09514C16.9036 7.97108 17.0248 7.89033 17.1486 7.91494C17.2087 7.9269 17.2605 7.96151 17.2945 8.01244C17.3273 8.06143 17.3398 8.11987 17.3301 8.17768L16.2928 12.1389C16.2913 12.1445 16.29 12.1502 16.2889 12.156C16.2579 12.3115 16.1204 12.4244 15.9619 12.4244C15.8147 12.4244 15.6867 12.33 15.6433 12.1894L15.0101 10.1364C14.9722 10.0136 14.8588 9.92976 14.7303 9.92972C14.7302 9.92972 14.7302 9.92972 14.7302 9.92972C14.6017 9.92972 14.4882 10.0134 14.4503 10.1362L13.8154 12.1895C13.772 12.33 13.644 12.4244 13.4969 12.4244C13.3382 12.4244 13.2007 12.3114 13.1697 12.1547L12.3673 8.18444C12.3427 8.06037 12.4236 7.93948 12.5477 7.91491C12.6076 7.90307 12.6689 7.91518 12.7198 7.94928C12.7707 7.98326 12.8053 8.03518 12.8172 8.09526Z" fill="#878787"/>
<path d="M11.5566 5.69531H5.93817C5.77638 5.69531 5.6452 5.82649 5.6452 5.98828C5.6452 6.15008 5.77638 6.28125 5.93817 6.28125H11.5566C11.7184 6.28125 11.8496 6.15008 11.8496 5.98828C11.8496 5.82649 11.7184 5.69531 11.5566 5.69531Z" fill="#878787"/>
<path d="M14.7294 6.28125C14.8913 6.28125 15.0224 6.15008 15.0224 5.98828C15.0224 5.82649 14.8913 5.69531 14.7294 5.69531H12.9225C12.7607 5.69531 12.6296 5.82649 12.6296 5.98828C12.6296 6.15008 12.7607 6.28125 12.9225 6.28125H14.7294Z" fill="#878787"/>
<path d="M5.93817 14.0508C5.77638 14.0508 5.6452 14.182 5.6452 14.3438C5.6452 14.5056 5.77638 14.6367 5.93817 14.6367H7.09326C7.25506 14.6367 7.38623 14.5056 7.38623 14.3438C7.38623 14.182 7.25506 14.0508 7.09326 14.0508H5.93817Z" fill="#878787"/>
<path d="M8.45966 14.6367H14.7296C14.8915 14.6367 15.0226 14.5056 15.0226 14.3438C15.0226 14.182 14.8915 14.0508 14.7296 14.0508H8.45966C8.29786 14.0508 8.16669 14.182 8.16669 14.3438C8.16669 14.5056 8.29786 14.6367 8.45966 14.6367Z" fill="#878787"/>
</svg>
