<svg width="21" height="20" viewBox="0 0 21 20" fill="none" xmlns="http://www.w3.org/2000/svg">
<path d="M13.2834 15.2558C15.7176 14.0193 18.4259 8.70494 18.6827 7.37869L17.5785 5.92092C17.5555 5.91021 17.5476 5.8631 17.5355 5.84209C17.5234 5.82107 17.5176 5.79642 17.5198 5.77111L17.7632 3.01674C17.7857 2.76221 17.5728 2.54916 17.3182 2.57143L14.5643 2.81244C14.5138 2.81686 14.4658 2.7892 14.4444 2.74322L13.2751 0.237911C13.1671 0.00662178 12.8766 -0.0712298 12.6674 0.0750983L10.4022 1.6601C10.3606 1.6892 10.3053 1.68916 10.2637 1.66006L7.99928 0.0743952C7.78999 -0.0721673 7.49909 0.00591865 7.39128 0.237559L6.22483 2.74459C6.20339 2.79068 6.15538 2.81838 6.10475 2.81393L3.35038 2.57057C3.09585 2.54807 2.8828 2.76096 2.90507 3.01553L3.14608 5.76943C3.1505 5.81998 3.12284 5.86791 3.07686 5.88935L0.57159 7.05861C0.340301 7.16658 0.262449 7.45713 0.408778 7.66627L1.99378 9.93154C2.02288 9.9731 2.02284 10.0285 1.99374 10.07L0.408074 12.3344C0.261512 12.5437 0.339598 12.8346 0.571238 12.9424L3.07827 14.1089C3.12436 14.1303 3.15206 14.1783 3.14761 14.229L3.06202 15.1985L3.26319 16.1012C6.62917 16.977 10.0929 16.7972 13.2834 15.2558Z" fill="#00ADAD"/>
<path d="M20.2585 12.3337C20.405 12.5429 20.3273 12.8335 20.0959 12.9413L17.5905 14.1107C17.5446 14.1321 17.5169 14.1799 17.5213 14.2307L17.7623 16.9844C17.7845 17.2391 17.5716 17.452 17.3169 17.4295L14.5627 17.186C14.512 17.1816 14.4641 17.2094 14.4424 17.2556L13.2762 19.7627C13.1683 19.9941 12.8774 20.0721 12.6682 19.9256L10.4037 18.3401C10.3623 18.3108 10.3067 18.3108 10.2653 18.3401L8.00011 19.9249C7.79085 20.0714 7.5003 19.9937 7.39245 19.7623L6.22304 17.2569C6.20171 17.211 6.15382 17.1832 6.10312 17.1876L3.34937 17.4287C3.09464 17.4508 2.88175 17.238 2.90429 16.9832L3.06202 15.1985C4.30347 15.7188 5.66648 16.0065 7.09706 16.0065C12.7711 16.0065 17.3885 11.4818 17.5366 5.84351C17.5486 5.86401 17.5667 5.88093 17.5893 5.8914L20.0964 7.05761C20.3278 7.16546 20.4058 7.4564 20.2593 7.66565L18.6738 9.93007C18.6444 9.97151 18.6444 10.0271 18.6738 10.0685L20.2585 12.3337Z" fill="#00ADAD"/>
<path d="M6.92683 12.6125C6.68418 12.668 6.44011 12.5683 6.30433 12.371L4.61547 9.75816C4.59371 9.72449 4.54144 9.73988 4.54144 9.77999V12.0744C4.54144 12.3642 4.31879 12.6135 4.02937 12.6271C3.72039 12.6417 3.46527 12.3954 3.46527 12.0896V7.92816C3.46527 7.7107 3.58773 7.50652 3.78703 7.41945C4.02656 7.3148 4.30179 7.39656 4.44668 7.60718L6.23527 10.3654C6.25707 10.3991 6.30929 10.3836 6.30929 10.3435V7.92734C6.30929 7.63761 6.53195 7.38832 6.82136 7.37468C7.13035 7.36011 7.38546 7.60636 7.38546 7.91214V12.0198C7.38546 12.2988 7.19879 12.5504 6.92683 12.6125Z" fill="#F5F8F9"/>
<path d="M10.5511 11.5515H9.52003C9.4978 11.5515 9.4798 11.5335 9.4798 11.5113V10.5792C9.4798 10.557 9.4978 10.5389 9.52003 10.5389H10.3694C10.6592 10.5389 10.9085 10.3163 10.9221 10.0269C10.9367 9.71789 10.6904 9.46277 10.3846 9.46277H9.52003C9.4978 9.46277 9.4798 9.44477 9.4798 9.42254V8.49043C9.4798 8.4682 9.4978 8.4502 9.52003 8.4502H10.5511C10.8408 8.4502 11.0901 8.22754 11.1037 7.93813C11.1183 7.62914 10.8721 7.37402 10.5663 7.37402H8.94171C8.64452 7.37402 8.40363 7.61492 8.40363 7.91211V12.0896C8.40363 12.3868 8.64452 12.6277 8.94171 12.6277H10.5663C10.8721 12.6277 11.1183 12.3726 11.1037 12.0636C11.0901 11.7742 10.8408 11.5515 10.5511 11.5515Z" fill="#F5F8F9"/>
<path d="M16.0014 12.4849C15.7166 12.4849 15.7298 12.3739 15.6458 12.1018L15.4222 11.8727L14.9014 10.1842C14.8897 10.1464 14.8362 10.1463 14.8245 10.1841L14.209 12.1749C14.125 12.4468 13.8772 12.6296 13.5925 12.6296C13.2854 12.6296 13.0193 12.4109 12.9596 12.1097L12.1327 8.01846C12.075 7.72694 12.2645 7.44385 12.556 7.38612C12.8475 7.32834 13.1306 7.51788 13.1884 7.80944L13.6528 10.0004C13.6614 10.0407 13.7179 10.0436 13.7305 10.0043L14.3496 8.07694C14.4193 7.85155 14.6277 7.6978 14.8637 7.6978H14.8639C15.0999 7.69787 15.3083 7.85174 15.3778 8.07733L16.0028 10.0281C16.0148 10.0655 16.0677 10.0654 16.0795 10.028L16.7805 7.80905C16.8384 7.5176 17.0921 7.32342 17.3835 7.38131C17.675 7.43924 17.7337 7.91592 17.6758 8.20737L16.6342 11.9655C16.5743 12.2665 16.3082 12.4849 16.0014 12.4849Z" fill="#F5F8F9"/>
<path d="M14.8626 6.00105H5.80479C5.63811 6.00105 5.50299 5.86594 5.50299 5.69926C5.50299 5.53258 5.63811 5.39746 5.80479 5.39746H14.8626C15.0294 5.39746 15.1644 5.53258 15.1644 5.69926C15.1644 5.86594 15.0293 6.00105 14.8626 6.00105Z" fill="white"/>
<path d="M14.8626 14.6055H5.80479C5.63811 14.6055 5.50299 14.4704 5.50299 14.3038C5.50299 14.1371 5.63811 14.002 5.80479 14.002H14.8626C15.0294 14.002 15.1644 14.1371 15.1644 14.3038C15.1644 14.4704 15.0293 14.6055 14.8626 14.6055Z" fill="white"/>
<path d="M17.8353 8.01653L16.7641 12.1079C16.7041 12.4089 16.4381 12.6274 16.1311 12.6274C15.8466 12.6274 15.5987 12.4443 15.5145 12.1723L15.4216 11.8705C16.4035 10.5759 17.0908 9.04556 17.3829 7.37915C17.393 7.38036 17.4027 7.38196 17.4127 7.38399C17.7041 7.44189 17.8932 7.72517 17.8353 8.01653Z" fill="#E6EDF4"/>
</svg>
