<svg width="23" height="23" viewBox="0 0 23 23" fill="none" xmlns="http://www.w3.org/2000/svg">
<path d="M11.4967 8.625C10.7342 8.625 10.003 8.9279 9.46381 9.46707C8.92464 10.0062 8.62174 10.7375 8.62174 11.5C8.62174 12.2625 8.92464 12.9938 9.46381 13.5329C10.003 14.0721 10.7342 14.375 11.4967 14.375C12.2592 14.375 12.9905 14.0721 13.5297 13.5329C14.0688 12.9938 14.3717 12.2625 14.3717 11.5C14.3717 10.7375 14.0688 10.0062 13.5297 9.46707C12.9905 8.9279 12.2592 8.625 11.4967 8.625ZM11.4967 16.2917C10.2259 16.2917 9.00714 15.7868 8.10852 14.8882C7.20991 13.9896 6.70508 12.7708 6.70508 11.5C6.70508 10.2292 7.20991 9.01039 8.10852 8.11178C9.00714 7.21317 10.2259 6.70833 11.4967 6.70833C12.7676 6.70833 13.9864 7.21317 14.885 8.11178C15.7836 9.01039 16.2884 10.2292 16.2884 11.5C16.2884 12.7708 15.7836 13.9896 14.885 14.8882C13.9864 15.7868 12.7676 16.2917 11.4967 16.2917ZM11.4967 4.3125C6.70508 4.3125 2.61299 7.29292 0.955078 11.5C2.61299 15.7071 6.70508 18.6875 11.4967 18.6875C16.2884 18.6875 20.3805 15.7071 22.0384 11.5C20.3805 7.29292 16.2884 4.3125 11.4967 4.3125Z" fill="#00ADAD"/>
</svg>
